<?xml version="1.0" standalone="no"?> <!DOCTYPE svg PUBLIC "-//W3C//DTD SVG 1.0//EN" "http://www.w3.org/TR/2001/REC-SVG-20010904/DTD/svg10.dtd" > <svg xmlns="http://www.w3.org/2000/svg" width="100%" height="100%">
<defs >
<font horiz-adv-x="422" ><font-face
    font-family="Hortensia"
    units-per-em="1000"
    panose-1="2 0 5 3 8 0 0 2 0 3"
    ascent="701"
    descent="-405"
    alphabetic="0" />
<missing-glyph horiz-adv-x="475" />
<glyph unicode=" " glyph-name="space" horiz-adv-x="475" />
<glyph unicode="!" glyph-name="exclam" horiz-adv-x="328" d="M159 185Q143 154 126 154Q109 154 109 170Q109 174 116 203T136 274T163 368T192 468T219 557T237 620Q248 658 257 676T274 703Q279 708 284 712T304 719Q310 720 318 720T334 721Q341 721 341
712Q332 689 324 667Q317 647 310 626T296 584Q290 563 286 548T277 518T268 489T256 452Q223 351 198 283T159 185ZM145 46Q143 22 129 3T83 -17Q62 -17 54 -9T47 25Q49 57 62 75T112 93Q134 93 140 81T145 46Z" />
<glyph unicode="&quot;" glyph-name="quotedbl" horiz-adv-x="400" d="M218 707Q229 707 230 704T232 694Q232 689 229 678T220 653T209 623T198 594Q185 562 175 541T144 508Q140 506 135 503T124 499Q117 499 117 506Q117 508 121 528T132 573T143 624T149 660Q151
684 170 695T218 707ZM348 707Q359 707 360 704T362 694Q362 689 359 678T350 653T339 624T326 596Q309 558 298 539T272 505Q264 497 259 495T249 493Q238 493 238 499Q238 506 243 528T256 576T270 625T279 660Q284 684 302 695T348 707Z" />
<glyph unicode="#" glyph-name="numbersign" horiz-adv-x="600" d="M514 548Q511 539 507 527T500 503T493 480T487 460L536 462Q556 464 556 454Q556 445 537 432Q526 424 514 419T473 413Q463 376 453 339T431 264L496 267Q514 268 516 256Q516 247 497 237Q479
228 436 219Q434 219 430 219T417 218Q410 192 403 164T389 104Q386 84 383 64Q380 43 377 31Q374 20 370 11Q366 2 356 -11T327 -35Q314 -43 299 -46Q278 -46 277 -32Q277 -27 279 -15T288 21Q294 43 298 57T304 80Q311 111 319 144T338 215Q325 214 311 214T281
213Q256 212 239 212T208 211T184 211T160 210Q155 190 150 169T139 124Q137 115 136 105T133 84Q130 63 127 51Q124 40 120 31Q116 22 107 11T77 -15Q70 -20 63 -22T49 -26Q28 -26 27 -12Q27 -7 29 5T38 41Q44 63 48 77T54 100Q60 125 66 152T81 208H39Q30 208
24 208T13 207Q-5 207 -5 218Q-5 241 15 250Q26 254 39 255T69 258H94Q103 293 115 331T136 403H79Q70 403 64 403T53 402Q35 402 35 413Q35 436 55 445Q66 449 79 450T109 453H151Q185 573 197 606Q218 671 223 678Q230 686 239 692T272 703Q278 704 285 704T302
705Q309 705 309 696L264 568Q256 547 249 519T230 455Q264 455 289 455T335 456T372 457T408 457Q436 556 447 586Q468 651 473 658Q480 669 489 673T522 683Q528 684 536 684T552 685Q559 685 559 676L514 548ZM394 410Q348 410 300 408T215 405Q205 370 196
335T175 265Q174 263 174 262T173 259Q206 259 231 259T276 260T314 261T351 262Q356 282 362 302T375 344Q380 362 384 378T394 410Z" />
<glyph unicode="$" glyph-name="dollar" horiz-adv-x="497" d="M379 691Q400 690 419 685T454 673T478 658T487 644Q487 628 484 614T477 592Q472 584 461 571T437 558Q437 587 417 612T366 646Q349 587 330 522T293 393Q334 359 361 334T405 286T427 244T434
200Q434 163 418 124T368 52T285 -2T169 -23Q160 -52 148 -71T123 -90Q115 -90 108 -87T101 -76Q101 -56 106 -39Q109 -30 112 -22Q89 -20 67 -12T27 8T-2 35T-13 69Q-13 96 4 113T50 138Q58 103 73 76T127 34Q181 228 216 350Q186 377 168 398T139 437T125 472T121
506Q121 581 174 628T317 689Q323 705 331 718T354 741Q359 744 367 743T384 743Q389 743 391 734Q390 729 388 723Q386 718 384 710T379 691ZM182 22Q203 20 233 21T292 37T341 82T361 170Q361 186 352 203T330 239T300 274T267 305Q259 279 248 242T225 166T202
88T182 22ZM305 651Q255 646 225 619T195 546Q195 532 196 521T203 499T217 475T243 443Q258 495 268 529T286 585T297 622T305 651Z" />
<glyph unicode="%" glyph-name="percent" horiz-adv-x="675" d="M344 601Q344 569 330 536T290 476T229 432T151 415Q126 415 109 422T80 442T64 469T59 502Q59 520 63 536T77 568T103 603T144 642Q170 665 191 672T225 683Q238 687 252 690T278 693Q307 693 325
669T344 601ZM563 721Q563 703 550 684T522 636Q486 568 445 498T361 357T276 220T198 90Q190 77 187 71T180 60T173 51T162 36Q147 16 130 7T102 -2Q96 -2 96 4Q96 12 111 34T140 78Q143 82 166 120T224 215T300 340T379 472T448 588T493 667Q502 683 514 695T537
715T555 723T563 721ZM588 197Q588 165 575 132T538 71T479 27T403 10Q378 10 361 17T332 37T316 64T311 97Q311 132 327 171T393 252Q426 280 457 288T520 297Q549 297 568 269T588 197ZM279 576Q279 606 268 625T242 644Q239 644 233 644T219 645Q189 645 172
630T144 596T131 558T128 532Q128 518 131 504T140 479T157 460T181 452Q195 452 212 456T244 474T269 512T279 576ZM523 172Q523 219 510 237T477 256Q444 256 425 244T396 212T383 171T380 127Q380 113 383 99T392 74T409 55T433 47Q447 47 463 54T492 78T514
117T523 172Z" />
<glyph unicode="&amp;" glyph-name="ampersand" horiz-adv-x="719" d="M699 97Q699 94 697 88T692 80Q680 69 663 54T621 26T564 3T489 -6Q460 -6 437 2T396 22T368 44T354 59Q349 56 334 45T296 22T241 0T174 -10Q145 -10 118 -5T70 14T36 53T23 119Q23 152 36
180T69 233T114 276T160 309T200 332T224 347Q222 360 220 373Q218 384 217 398T216 426Q216 482 239 533T296 624T372 686T451 710Q500 710 516 689T532 636Q532 610 518 582T481 526T431 472T377 423T329 385T296 361Q303 331 315 297T341 230T369 171T396 129Q435
170 457 201T490 256Q502 282 506 303Q495 303 489 303T479 302T470 302T459 301Q446 301 439 301T432 313Q432 324 439 331T459 343T487 349T517 351L587 353Q600 353 615 354T643 355T665 356T678 357Q691 357 694 357T697 354Q697 336 686 327T649 312Q634 309
612 308T575 305Q568 293 553 271T517 222T469 164T412 105Q435 76 467 58T537 40Q570 40 593 46T633 62T661 80T681 97Q685 100 688 100T696 101Q699 101 699 97ZM458 612Q458 668 417 668Q383 668 358 652T316 606T291 536T282 446Q282 437 282 427T285 408Q287
397 289 388Q318 409 348 432T402 483T442 543T458 612ZM334 82Q312 115 297 142T271 196T250 252T229 317Q213 306 190 293T145 261T108 216T92 152Q92 98 121 64T198 29Q242 29 277 47T334 82Z" />
<glyph unicode="&apos;" glyph-name="quotesingle" horiz-adv-x="239" d="M172 707Q186 707 186 704T186 694Q186 689 183 678T174 653T163 623T152 594Q139 562 129 541T98 508Q94 506 89 503T78 499Q71 499 71 506Q71 508 75 528T86 573T97 624T103 660Q105
684 124 695T172 707Z" />
<glyph unicode="(" glyph-name="parenleft" horiz-adv-x="314" d="M367 725Q327 692 282 647T197 536T133 379T107 162Q107 120 110 89T120 33T135 -9T153 -42Q152 -50 149 -58Q147 -65 144 -72T136 -84Q133 -87 132 -89T130 -94T124 -97T112 -98Q100 -98 86 -82T61
-39T43 26T35 105Q35 230 64 335T140 521T245 657T359 738L367 725V725Z" />
<glyph unicode=")" glyph-name="parenright" horiz-adv-x="339" d="M-39 -85Q1 -52 46 -7T131 104T195 261T221 478Q221 520 218 551T208 607T193 649T175 682Q176 690 179 698Q181 705 184 712T192 724Q195 727 196 729T198 734T204 737T216 738Q228 738 242
722T267 679T285 614T293 535Q293 410 264 305T188 119T83 -17T-31 -98L-39 -85V-85Z" />
<glyph unicode="*" glyph-name="asterisk" horiz-adv-x="369" d="M136 524Q103 551 79 578T55 622Q55 629 59 638T69 655T83 668T100 674Q110 674 115 666T124 650Q133 633 145 619T171 592Q178 630 186 663T200 707Q204 713 211 715T230 721Q236 723 241 724T254
725Q260 725 260 721T260 712Q254 692 248 671Q243 653 237 632T225 591Q245 608 273 629T324 677Q330 685 335 693T350 701Q355 701 356 699T357 690Q357 669 342 650T310 616Q290 598 270 582T228 549Q262 527 290 513T329 489Q327 487 322 479T311 462T299 446T286
439Q275 439 252 450T202 477Q199 457 190 428Q184 409 179 404T162 399Q151 399 145 401T135 407Q140 437 144 457T154 500Q122 482 98 471T63 460Q48 460 48 472Q48 480 71 490T136 524Z" />
<glyph unicode="+" glyph-name="plus" horiz-adv-x="450" d="M438 348Q438 321 386 312Q375 310 340 309T261 307Q256 288 252 273T243 243T236 214T229 183Q227 172 220 156T188 126Q175 118 161 118Q138 118 138 132Q138 138 140 145T146 165T157 199T175 253Q181
273 189 306Q165 305 144 305T107 305H72Q65 305 58 304T44 303T33 306T28 315Q28 330 35 338T52 349T76 354T102 355H133Q147 355 165 355T202 354Q209 380 215 404T226 449Q229 462 232 477T241 506T256 531T280 549Q288 553 298 554T319 555Q328 555 328 540Q328
534 325 523T312 484Q305 463 301 447T292 420Q287 402 283 386T274 355H297Q310 355 329 356T368 357T401 358T418 359Q431 359 434 356T438 348Z" />
<glyph unicode="," glyph-name="comma" horiz-adv-x="233" d="M51 33Q51 46 58 55T74 71Q89 84 96 88T112 92Q126 92 133 78T141 18Q141 -34 120 -78T71 -154T18 -204T-14 -222Q-22 -222 -22 -221T-21 -214Q-21 -210 -14 -204T3 -190T25 -170T46 -145Q58 -125
63 -102T68 -57Q68 -42 66 -32T60 -12T54 8T51 33Z" />
<glyph unicode="-" glyph-name="hyphen" horiz-adv-x="303" d="M66 183Q59 183 52 182T38 181T27 184T22 193Q22 208 29 216T46 227T70 232T96 233H197Q210 233 225 233T253 235T275 236T288 237Q301 237 304 234T308 226Q308 220 300 214T280 204T254 195T228
189Q215 187 188 186T134 184Q102 183 66 183Z" />
<glyph unicode="." glyph-name="period" horiz-adv-x="245" d="M169 46Q167 22 153 3T107 -17Q86 -17 78 -9T71 25Q73 57 86 75T136 93Q158 93 164 81T169 46Z" />
<glyph unicode="/" glyph-name="slash" horiz-adv-x="355" d="M77 -62Q70 -78 56 -90T34 -104Q29 -104 27 -103T25 -93Q25 -87 40 -49T81 49T140 183T208 335T277 488T340 623T387 722T412 769Q418 772 426 774T441 777Q447 777 448 775T448 768L77 -62Z" />
<glyph unicode="0" glyph-name="zero" horiz-adv-x="511" d="M518 549Q518 522 511 481T489 393T453 294T404 196Q339 84 269 33T132 -18Q97 -18 75 -5T38 30T19 81T13 144Q13 197 27 257T68 378T134 497T225 606Q270 651 301 668T358 688Q366 690 375 693Q382
695 389 697T402 701Q411 703 416 703T431 704Q454 704 470 693T497 660T513 611T518 549ZM437 522Q437 579 423 610T373 642Q308 642 257 594T155 446Q141 418 130 377T111 294T99 216T95 163Q95 101 116 69T184 37Q200 37 221 45T265 69T309 108T348 163Q367
197 383 239T412 327T430 422T437 522Z" />
<glyph unicode="1" glyph-name="one" horiz-adv-x="511" d="M307 265Q289 202 271 124Q270 121 269 111T265 89T261 65T258 47Q256 41 253 33T244 18Q240 12 233 5T217 -10T199 -21T181 -26Q160 -26 159 -12Q159 -1 166 25T186 100Q197 148 215 217T257 364Q266
397 277 433T299 505T320 573T338 630Q339 634 326 628T295 614T260 599T238 591Q230 591 229 594T227 601Q227 606 235 612T255 626T282 642T309 658Q314 661 323 667T344 679T366 691T386 700Q391 702 402 703T434 705Q441 705 441 696Q441 695 437 682T425 650T410
609T396 568Q384 531 370 485T344 396T322 317T307 265Z" />
<glyph unicode="2" glyph-name="two" horiz-adv-x="511" d="M308 306Q258 260 213 217T134 138T80 80T60 52Q83 57 115 62T182 73T254 81T322 85Q354 85 378 84T411 81Q428 78 431 70T434 51Q434 40 422 27T393 1Q384 5 368 8T333 14T293 18T253 20Q229 20 197
17T136 8Q102 3 67 -4Q54 -6 40 -8T11 -10Q-2 -10 -6 -5T-11 9Q-11 20 12 48T68 110T137 179T200 241Q222 263 255 297T320 373T375 464T398 562Q398 596 389 617T366 651T334 669T296 674Q270 674 243 666T193 642T156 604T142 556Q142 539 134 539T118 538Q106
538 102 544T98 566Q98 587 117 611T168 656T242 690T332 704Q345 704 369 702T418 687T460 650T478 578Q478 544 465 510T428 441T374 372T308 306Z" />
<glyph unicode="3" glyph-name="three" horiz-adv-x="511" d="M445 614Q439 613 426 612T395 610T358 608T319 607Q273 605 219 605Q212 605 204 604T188 602T175 604T169 612Q169 627 181 638T210 657T246 669T277 673H378Q391 673 410 673T448 675T480 676T497
677Q510 677 517 674T525 658Q525 656 514 643T486 611T446 569T403 524T362 482T331 452Q388 439 414 403T441 298Q441 258 423 220T379 150T324 93T274 57Q237 36 207 24T151 6T103 -2T59 -4Q45 -4 31 -2T6 4T-12 13T-19 26Q-19 36 -14 44T-2 60T13 70T27 74Q31
69 35 62T48 48T72 37T111 32Q163 32 208 50T287 103T340 187T359 296Q359 320 356 335T345 361T328 377T304 391Q298 394 289 396T272 399T258 403T252 408Q252 412 258 418T272 432T288 447T302 460Q320 479 341 501T383 545T420 584T445 614Z" />
<glyph unicode="4" glyph-name="four" horiz-adv-x="511" d="M307 310Q321 356 335 405T363 496T385 565T399 597Q403 601 405 604T409 609T416 613T429 619Q434 621 440 623T467 626Q474 626 474 617Q474 615 463 590T439 527Q420 470 402 414T371 313Q388 313
397 311T407 295Q407 276 400 269T384 261Q380 261 375 261T365 262Q359 262 353 263Q347 239 335 206T315 140Q310 120 305 96T298 58Q297 52 296 39T289 18Q284 11 276 5T259 -6Q251 -10 246 -13T233 -16Q212 -16 211 -2Q211 9 220 38T240 108Q246 129 250 143T259
172T270 207T287 261Q267 260 240 257T180 250Q159 247 139 244T99 237T65 232T39 229Q31 229 25 231T19 244Q19 252 30 266T50 289Q79 321 113 366T191 473Q212 503 230 535T263 598T285 654T297 697Q301 701 308 706T323 714T339 718T355 715Q350 695 339 671T314
622T285 572T259 529Q237 494 208 452T153 372Q122 329 89 285Q94 286 105 288T132 292T165 296T200 301Q216 303 234 304T269 307Q287 309 307 310Z" />
<glyph unicode="5" glyph-name="five" horiz-adv-x="511" d="M431 294Q431 231 403 181T332 93T237 31T137 -6Q99 -14 45 -16Q30 -16 17 -15T-9 -8Q-33 1 -33 14Q-33 23 -28 30T-17 42T-4 51T7 56Q18 41 28 33T50 21T74 17T102 16Q148 16 192 37T271 94T327 173T349
262Q349 286 341 308T318 348T280 376T230 386Q217 386 209 385T191 381Q183 372 173 368T156 363Q136 363 136 374Q136 382 138 388T143 402Q145 408 149 421T158 453T170 493T182 537Q196 587 213 648Q211 658 215 665T228 676Q235 679 241 680T259 683Q334 688
404 689T525 690Q531 690 538 688T545 679Q545 673 536 661T516 637Q495 618 482 618Q474 618 469 623T450 628Q441 628 417 630T368 633Q351 633 331 632T293 630Q272 628 250 627L200 434Q213 436 224 438T256 441Q285 441 316 435T372 413T414 368T431 294Z"
/>
<glyph unicode="6" glyph-name="six" horiz-adv-x="547" d="M102 208Q102 176 107 146T126 91T162 51T216 36Q248 36 279 50T336 92T377 161T393 258Q393 296 382 321T354 360T318 380T284 386Q274 386 259 385T225 378T186 362T148 333L144 350Q165 374 190 390T241
417T290 431T332 436Q359 436 384 428T427 403T457 358T468 294Q468 233 437 177T359 77T260 8T166 -18Q91 -18 58 29T24 153Q24 202 36 264T89 400Q128 472 183 525T301 615T429 674T555 706Q559 707 563 706Q571 704 571 692Q571 686 565 682Q562 680 559 680Q553
680 522 675T449 655T357 614T264 543Q222 501 192 462T141 383T112 301T102 208Z" />
<glyph unicode="7" glyph-name="seven" horiz-adv-x="511" d="M428 616Q417 614 384 612T293 608Q274 607 247 607T183 605Q172 604 165 604T150 603Q133 603 133 612Q133 622 142 634T171 655Q208 673 241 673H277Q292 673 309 673T342 673Q384 674 412 674T461
677Q467 678 472 678T481 678Q493 678 494 668Q494 622 460 564Q434 521 389 471T295 359Q268 324 246 294T204 236Q169 183 155 145Q144 111 142 68Q142 53 150 48Q158 43 158 36Q158 25 136 7Q114 -10 102 -10Q91 -10 83 -4T74 20Q74 72 130 166Q166 226 208
286Q222 306 240 329T279 380Q305 415 330 450T377 518T411 575T428 616Z" />
<glyph unicode="8" glyph-name="eight" horiz-adv-x="547" d="M532 594Q532 562 521 534T491 484T451 444T408 413T371 391T346 379Q358 369 377 354T414 317T445 271T458 216Q458 156 433 110T369 34T281 -12T187 -28Q152 -28 120 -19T64 9T25 56T10 124Q10 169
30 206T84 273T158 327T240 370Q229 376 213 390T181 423T155 465T144 516Q144 564 165 597T218 652T290 684T368 696Q441 700 486 675T532 594ZM463 574Q463 591 458 607T440 636T409 656T362 664Q335 664 309 657T262 637T229 605T216 560Q216 525 226 500T252
456T286 424T318 398Q386 431 424 472T463 574ZM267 347Q217 326 178 297Q145 272 118 235T90 148Q90 102 106 75T146 35T194 18T233 14Q267 14 296 25T347 58T381 108T394 174Q394 204 378 233T340 285T297 325T267 347Z" />
<glyph unicode="9" glyph-name="nine" horiz-adv-x="547" d="M458 387Q430 355 400 334T341 301T288 284T247 279Q220 279 195 287T152 312T122 356T111 421Q111 487 144 538T224 625T322 680T411 699Q448 699 475 686T519 652T544 603T552 547Q552 533 551 511T545
459T529 395T498 324Q455 246 398 188T276 88T145 23T19 -11Q15 -12 11 -11Q3 -9 3 3Q3 9 9 13Q12 15 15 15Q21 15 53 22T130 46T224 92T317 165Q374 224 407 277T458 387ZM466 421Q474 464 474 507Q474 538 468 566T449 616T414 650T363 663Q343 663 313 652T255
615T207 551T186 457Q186 419 197 394T225 355T261 335T295 329Q313 329 331 332T370 346T414 374T466 421Z" />
<glyph unicode=":" glyph-name="colon" horiz-adv-x="233" d="M149 46Q147 22 133 3T87 -17Q66 -17 58 -9T51 25Q53 57 66 75T116 93Q138 93 144 81T149 46ZM203 392Q201 368 187 349T141 329Q120 329 112 337T105 371Q107 403 120 421T170 439Q192 439 198 427T203 392Z" />
<glyph unicode=";" glyph-name="semicolon" horiz-adv-x="233" d="M51 33Q51 46 58 55T74 71Q89 84 96 88T112 92Q126 92 133 78T141 18Q141 -34 120 -78T71 -154T18 -204T-14 -222Q-22 -222 -22 -221T-21 -214Q-21 -210 -14 -204T3 -190T25 -170T46 -145Q58 -125
63 -102T68 -57Q68 -42 66 -32T60 -12T54 8T51 33ZM203 392Q201 368 187 349T141 329Q120 329 112 337T105 371Q107 403 120 421T170 439Q192 439 198 427T203 392Z" />
<glyph unicode="&lt;" glyph-name="less" horiz-adv-x="513" d="M394 122Q386 108 380 93T358 78Q354 78 339 88T302 114T252 150T196 193Q130 243 49 308L434 587Q439 590 442 592T453 594Q463 594 463 579Q463 570 452 563T429 547L120 320Q170 282 218 245Q259
213 306 179T394 122Z" />
<glyph unicode="=" glyph-name="equal" horiz-adv-x="450" d="M93 305Q84 305 78 305T67 304Q49 304 49 315Q49 338 69 347Q91 355 123 355H278Q302 355 323 357T369 359Q375 359 381 357T389 348Q389 321 337 312Q326 310 302 309T240 307Q203 306 167 306T93
305ZM115 165Q106 165 100 165T89 164Q71 164 71 175Q71 198 91 207Q113 215 145 215H266Q300 215 320 217T357 219Q363 219 369 217T377 208Q377 199 358 189Q349 184 336 180T297 171Q288 169 270 168T222 167Q193 167 169 167T115 165Z" />
<glyph unicode="&gt;" glyph-name="greater" horiz-adv-x="491" d="M118 550Q122 557 125 565T132 579T141 590T154 594Q157 594 172 584T210 558T260 521T316 479Q382 428 463 364L78 85Q73 82 70 80T59 78Q49 78 49 93Q49 102 60 109T83 125L392 352Q342 390
294 427Q273 443 251 459T205 492T160 523T118 550Z" />
<glyph unicode="?" glyph-name="question" horiz-adv-x="473" d="M276 332Q225 279 206 248T186 197Q186 191 180 184T166 171T148 161T132 157Q127 157 126 160T125 168Q126 179 130 190T145 217T176 258T230 322Q251 346 273 371T314 423T345 483T358 554Q358
617 339 644T285 671Q255 671 228 663T179 637T146 592T133 526Q133 509 125 509T109 508Q97 508 93 514T89 536Q89 556 104 584T149 638T219 682T311 701Q332 701 355 698T398 684T429 650T442 588Q442 555 427 523T389 458T336 394T276 332ZM165 46Q163 22 149
3T103 -17Q82 -17 74 -9T67 25Q69 57 82 75T132 93Q154 93 160 81T165 46Z" />
<glyph unicode="@" glyph-name="at" horiz-adv-x="888" d="M597 86Q633 86 674 116T751 196T810 309T834 439Q834 505 813 556T755 642T670 696T567 714Q477 714 393 675T244 563T140 385T100 149Q100 75 124 14T189 -91T285 -160T401 -185Q457 -185 512 -167T617
-119T708 -51T776 28Q785 39 794 41Q804 41 805 27Q805 18 796 8Q753 -42 710 -82T617 -151T509 -194T376 -209Q308 -209 248 -184T141 -109T68 12T41 177Q41 298 82 399T195 575T360 690T558 732Q630 732 689 713T790 657T856 569T880 455Q880 393 862 335T810
227T733 136T636 68Q613 56 592 50T550 44Q524 44 515 66T505 113Q505 119 507 144T519 209Q465 128 418 88T338 48Q309 48 295 68T280 126Q280 147 286 173T303 227T333 283T375 337Q462 429 551 442Q554 442 561 443T578 445T596 448T613 450Q621 450 629 448T637
440Q637 432 628 423Q620 417 607 417Q605 417 598 417T582 418T567 419T556 421Q536 421 517 412Q503 406 486 393T450 362T415 319T386 264Q359 201 359 148Q359 99 381 99Q392 99 416 118T479 189Q514 235 535 281Q540 294 545 311T559 349Q571 379 583 390T607
404Q612 405 617 405T630 406Q638 406 638 399Q638 396 635 385T626 357T614 320T602 278Q598 262 593 239T584 193T576 150T573 117Q573 106 578 96T597 86Z" />
<glyph unicode="A" glyph-name="A" horiz-adv-x="553" d="M548 653Q548 645 537 605T504 485Q489 432 481 400T468 353L491 354Q500 354 500 350Q500 342 490 332Q482 324 460 322Q439 233 427 166Q422 133 420 109T416 70Q416 54 412 46Q409 41 402 32T386 14T364
-1T340 -8Q332 -8 328 -3T323 11Q323 25 327 45T339 100Q346 131 359 188T387 318Q330 318 270 310T163 291Q151 268 141 247T123 206Q116 189 108 166T94 118T83 70T78 27Q70 10 52 -3T22 -16Q12 -16 5 -11T-3 15Q-4 48 35 140Q52 178 69 213T104 280Q93 276 83
272T63 268Q54 268 54 282Q54 294 64 300Q69 304 79 307T106 315L130 322Q161 368 192 411T260 497Q296 538 327 569T385 624Q410 644 437 662T476 685Q491 690 500 692T530 694Q549 694 549 678Q549 668 549 663T548 653ZM459 609Q459 617 457 619T443 621Q436
621 421 611T384 581T338 534T285 473Q228 404 185 330Q215 335 251 339T320 347Q358 351 396 352Q404 379 414 417T437 506Q448 550 453 575T459 609Z" />
<glyph unicode="B" glyph-name="B" horiz-adv-x="512" d="M259 392Q272 392 292 397Q316 404 341 418T388 453T422 502T436 566Q436 615 409 642T328 670Q311 670 298 669T271 665Q266 651 254 607T218 476L126 132Q119 107 112 80T102 34Q121 32 148 32T194 37Q213
41 234 50T277 72T316 102T348 138Q384 192 384 262Q384 312 350 338T260 366Q251 366 245 366T234 365Q216 365 215 378Q215 386 222 389Q229 392 244 392H259V392ZM362 400Q410 389 436 357T464 276Q465 198 406 128Q363 78 303 49T188 7Q162 2 138 0T88 -4Q82
-4 74 -4T57 -6T41 -7T30 -8Q25 -8 20 -7T15 2Q15 11 16 20T26 56L93 301Q96 313 112 370T160 534Q180 603 190 649Q186 649 183 649T174 650Q167 651 166 661Q166 672 186 679Q198 683 216 687T255 694T300 699T347 701Q425 701 467 674T510 588Q510 525 472 481T362
400Z" />
<glyph unicode="C" glyph-name="C" horiz-adv-x="502" d="M487 648Q487 626 484 607T472 575Q467 568 459 562T432 549Q420 545 405 545Q399 545 398 552Q403 566 407 582T412 618Q412 646 371 646Q326 646 279 611T195 517T133 379T109 213Q109 129 146 82T253
34Q279 34 312 46T377 76Q392 85 398 85Q405 85 404 70Q404 62 364 36Q326 11 286 -4T189 -20Q118 -20 76 26T33 154Q33 170 35 192T41 241T53 296T70 351Q109 459 166 536T298 660Q364 702 420 702Q436 702 451 700T476 690Q481 685 484 673T487 648Z" />
<glyph unicode="D" glyph-name="D" horiz-adv-x="621" d="M606 511Q606 443 589 374T537 242T451 124T333 32Q241 -21 155 -21Q128 -21 108 -19T79 -14Q76 -16 70 -18T54 -20Q32 -20 32 -6Q32 7 39 37T56 107T80 189T104 273Q118 322 132 370T158 462T181 541T198
600Q201 612 203 623T205 641Q187 653 187 666Q187 684 260 699Q306 708 358 708Q480 708 543 662T606 511ZM302 663Q296 647 293 640T288 624T281 603T269 564Q247 491 225 414T180 251Q157 166 145 112T128 35Q139 32 147 31T165 28T186 26T216 25Q274 25 339
71Q432 136 477 239T522 468Q522 522 511 560T478 623T428 658T362 670Q319 670 302 663Z" />
<glyph unicode="E" glyph-name="E" horiz-adv-x="460" d="M54 -25Q48 -27 44 -27Q27 -27 27 -12Q27 4 36 33T54 100Q57 113 66 149T87 226T109 303T122 353H110Q89 353 89 364Q89 382 101 390Q112 395 134 397Q144 430 152 453T166 497T179 539T194 588Q196 597
200 612T206 639Q200 639 194 639T180 640Q167 641 166 651Q166 660 186 669Q196 674 207 677T233 683Q261 688 283 689Q294 690 310 690T347 691Q374 692 395 692T431 692Q454 693 469 695T498 697Q504 697 511 695T518 686Q518 677 499 667Q486 660 460 653T400
646H363Q354 646 342 645T318 643Q305 642 291 641L267 558L217 398H262L353 402Q371 403 373 391Q373 382 350 373Q339 368 328 366T298 360Q283 358 260 357T205 355Q192 312 181 271Q171 236 161 196T143 124Q139 107 138 88T130 47Q129 44 128 41T126 34L123
28H252L343 32Q363 34 363 21Q363 14 343 3T283 -16Q274 -18 255 -18T205 -20Q176 -20 148 -20T91 -22Q83 -22 76 -22T60 -23L54 -25Z" />
<glyph unicode="F" glyph-name="F" horiz-adv-x="385" d="M267 563Q259 538 251 510T234 456Q225 427 217 398H262L353 402Q371 403 373 391Q373 382 354 372Q336 363 293 354Q279 352 257 351T203 349L179 265Q170 233 161 199T143 124Q139 107 137 86T131 51Q129
42 126 34T116 18Q111 12 103 5T86 -9T67 -21T49 -26Q27 -26 27 -12Q27 -3 30 13T38 45T47 77T54 100Q59 117 64 137T78 185T96 253T120 347H108Q87 347 87 358Q87 377 100 387Q113 395 134 397L194 593Q196 598 200 613T206 639Q200 639 194 639T180 640Q167 641
166 651Q166 660 186 669Q205 678 231 682T283 689Q294 690 310 690T347 691Q374 692 395 692T431 692Q454 693 470 695T498 697Q504 697 511 695T518 686Q518 677 499 667Q486 660 460 653T400 646H363Q355 646 343 645T319 643Q305 642 291 641Q286 628 282 614Q278
602 274 588T267 563Z" />
<glyph unicode="G" glyph-name="G" horiz-adv-x="533" d="M442 702Q451 702 458 702T474 700Q487 700 498 690Q509 681 509 648Q509 627 504 609T492 582Q489 575 477 567Q457 553 446 549T427 545Q421 545 420 552Q425 566 429 584T434 618Q434 633 421 639T393
646Q356 646 321 628T254 579T196 505T150 415T120 315T109 213Q109 130 142 82T253 34Q297 34 331 48T376 76L417 255Q398 253 376 252T321 249Q283 247 266 244T241 244Q241 256 265 273Q287 287 321 293H406H494L439 95Q436 86 415 67T361 28T283 -5T189 -20Q118
-20 76 26T33 154Q33 216 49 280T95 405T164 519T248 613T343 677T442 702Z" />
<glyph unicode="H" glyph-name="H" horiz-adv-x="588" d="M602 687Q602 683 597 670T584 639T568 601T554 564Q545 538 536 509T518 454Q508 424 500 396H510Q515 396 519 396T528 397Q532 397 536 396T540 389Q540 370 522 362Q511 357 501 356Q495 355 489 355Q480
322 473 291T459 227Q457 216 452 184T441 109Q440 97 440 90T438 79T436 70T433 59Q430 49 426 43T413 27Q399 13 390 6T370 -1Q368 -1 365 -1T360 4T356 19T354 47Q354 54 356 72T363 116T373 172T386 235Q389 250 394 270T404 309L415 353Q392 351 362 350T301
346T243 342T197 337Q192 322 185 299T171 248T155 188T140 125Q137 114 135 101T130 75Q127 61 126 47Q125 37 117 27Q110 18 102 9T79 -11Q70 -19 61 -23T46 -27Q37 -27 32 -24T27 -12Q27 5 52 106Q57 126 65 158T86 236Q90 251 95 271T109 319L44 306Q35 306
34 318Q34 328 39 336T62 351Q73 356 92 360T125 366L194 598Q197 609 201 621T209 644Q220 675 234 686T269 702Q278 704 285 704T302 705Q309 705 309 696Q309 691 299 660T267 565Q259 542 250 514T233 460T219 412T210 380Q221 381 247 382T304 385T368 388T424
392Q436 433 448 472Q459 505 470 541T490 603Q503 641 514 659T533 681Q557 694 576 696Q586 697 595 696Q598 696 600 695T602 687Z" />
<glyph unicode="I" glyph-name="I" horiz-adv-x="328" d="M264 568Q256 545 246 512T225 438T200 353T175 265Q166 233 157 196T139 124Q134 102 133 87T129 60Q126 41 120 31Q117 26 109 17T89 -2T67 -19T49 -26Q42 -26 35 -25T27 -12Q27 -8 30 7T38 40T47 75T54
100Q68 156 85 221T125 364Q137 407 151 454T177 541T198 610T209 644Q216 662 223 672T237 689T252 697T269 702Q278 704 285 704T302 705Q309 705 309 696Q309 691 297 662T264 568Z" />
<glyph unicode="J" glyph-name="J" horiz-adv-x="328" d="M269 702Q278 704 288 704T306 705Q313 705 313 696Q313 691 301 661T268 568Q260 545 256 531T248 507T242 486T234 460Q229 446 220 410T193 316Q171 244 155 197T125 118T99 66T72 29Q61 16 44 0T9
-30T-25 -53T-50 -63Q-60 -63 -60 -57Q-60 -48 -51 -42T-28 -23T5 16T43 93Q54 123 73 189T125 364L194 598Q203 628 211 646T227 676T246 693T269 702Z" />
<glyph unicode="K" glyph-name="K" horiz-adv-x="532" d="M575 647Q575 641 574 633T568 613Q565 605 560 597T543 583Q528 574 513 572Q515 578 516 584T517 599Q517 613 512 617T494 621Q480 621 448 601T376 540Q348 512 321 483T274 428Q290 380 305 337T340
246Q354 210 365 184T386 136T406 92T430 46Q439 30 448 20T466 2Q461 -8 448 -12T419 -17Q392 -17 374 -2T336 52Q329 65 324 77T314 103T302 134T286 174Q278 192 268 219T246 276T223 333T202 379Q186 328 170 278Q156 235 141 186T112 95Q100 55 88 34T64 7Q50
1 41 -2T21 -5Q6 -5 6 9Q6 12 7 19T14 41Q31 92 46 136T75 224T105 317T141 427Q159 483 173 534T198 622Q202 636 204 649T208 668Q212 680 223 688T248 701T275 708T298 710Q307 710 307 701Q307 695 280 617L204 391Q249 445 317 518T480 670Q497 684 514 690T545
697Q575 697 575 647Z" />
<glyph unicode="L" glyph-name="L" horiz-adv-x="386" d="M179 265Q165 213 156 176T141 111T131 64T121 28H252Q272 28 285 28T308 30T326 31T343 32Q350 32 356 31T363 21Q363 10 345 2T283 -16Q274 -18 255 -18T205 -20Q176 -20 147 -20T91 -22Q83 -22 76 -22T60
-23Q57 -24 53 -25Q45 -27 41 -27Q27 -27 27 -12Q27 -4 29 9T36 37T44 68T54 100L194 584Q202 612 210 631T229 663Q237 673 248 682T270 696Q288 705 306 705Q313 705 313 696Q313 693 308 680T296 648T282 608T268 568Q256 530 242 484T216 393T193 314T179 265Z"
/>
<glyph unicode="M" glyph-name="M" horiz-adv-x="846" d="M856 697Q856 693 854 688T848 673T837 645T821 598Q810 563 801 529T782 459Q772 424 762 380T742 293T725 217T716 168Q712 144 710 126T708 96Q708 90 709 84T711 72Q711 59 703 47Q695 36 685 25T663
6T642 -8T625 -13Q607 -13 607 6Q607 20 608 32T612 62T619 105T632 169Q637 194 647 239T669 337T695 440T718 530L713 534Q695 508 670 470T612 386T543 285T463 170Q442 140 424 112T389 60T360 19T338 -7Q327 -18 320 -21T298 -24Q293 -24 289 -18T284 0Q284
13 285 33T290 75Q291 84 298 119T315 205T337 315T362 432T385 538T403 616Q387 601 363 573T312 510T258 434T208 356Q182 312 162 266T126 170Q112 127 106 93T98 32Q94 27 86 17T67 -2T45 -19T26 -26Q20 -26 16 -17T12 10Q12 34 21 68T50 147Q73 201 104 258T186
390Q206 420 234 457T294 533T354 607T406 667Q423 681 436 687T467 701Q472 703 475 703T488 703Q497 703 497 693Q497 688 494 677T486 646T474 595T456 520Q444 465 431 403T408 283T389 181T378 114Q387 124 401 144T430 186T460 228T483 261Q530 329 562 377T619
461T662 526T700 585Q722 621 735 640T755 670T768 684T780 693Q793 701 811 704T842 707Q851 707 853 705T856 697Z" />
<glyph unicode="N" glyph-name="N" horiz-adv-x="571" d="M197 578Q194 569 187 542T168 474T144 380T118 265Q107 212 100 172T87 103Q81 70 77 47Q75 40 74 35T70 24T64 14T53 3Q48 0 37 -5T13 -11Q6 -11 8 4T15 36Q36 129 52 199T85 332T117 458T151 598Q154
609 157 622T164 646T170 666T175 677Q183 687 196 696T226 705Q237 705 245 703T258 686Q263 670 264 659T269 631Q272 616 279 584T297 500Q315 416 326 361T345 269T357 211T365 175T371 149T379 120Q400 212 420 300Q429 337 438 377T455 457T472 533T487 600Q489
610 491 622T496 645T501 665T506 677Q512 688 526 696T566 705Q572 705 572 696L534 568Q528 549 520 517T501 444T480 357T458 265Q453 244 448 220T438 174Q433 149 428 124Q424 100 420 81Q417 64 414 49T408 30Q406 27 399 18T383 -1T365 -18T348 -26Q336
-26 329 -15T314 19Q309 32 302 62T286 132T268 214T250 299Q236 369 223 439T197 578Z" />
<glyph unicode="O" glyph-name="O" horiz-adv-x="663" d="M639 545Q640 385 518 197Q486 148 449 109T372 41T288 -2T203 -18Q128 -18 87 18T44 131Q44 173 55 219T88 312T137 406T198 496Q216 520 238 544T283 589T331 629T378 661Q399 673 417 678T449 684Q472
695 488 698T527 702Q552 702 572 691T608 658T631 608T639 545ZM547 507Q547 569 525 603T464 638Q312 642 203 418Q173 355 155 288T136 163Q136 107 163 72T255 37Q278 37 303 46T354 71T404 111T449 163Q472 196 490 236T521 320T540 412T547 507Z" />
<glyph unicode="P" glyph-name="P" horiz-adv-x="524" d="M112 53Q112 46 103 33Q98 25 88 16T68 -1T47 -14T31 -20Q10 -20 9 -6Q9 -1 10 5T14 23Q23 56 34 99T60 190Q74 240 84 276T105 349T129 428T160 534Q170 566 177 595T190 649Q186 649 183 649T174 650Q167
651 166 661Q166 672 186 679Q197 683 220 687T267 694T314 699T347 701Q432 701 472 669T512 558Q512 523 496 485T451 415Q409 370 355 346T247 321Q236 321 229 321T214 323Q205 326 205 340Q205 353 227 353Q232 353 238 353T253 352Q284 352 317 362T377 395T421
453T438 536Q438 602 411 636T328 670Q293 670 271 665Q269 658 269 657T264 641T250 590T218 476Q198 405 183 349T157 251Q146 209 139 180T126 132Q119 104 118 88T112 53Z" />
<glyph unicode="Q" glyph-name="Q" horiz-adv-x="619" d="M244 35Q237 46 232 51T220 62Q226 76 271 76Q279 76 289 71T308 57Q368 84 411 150T484 313Q500 364 508 412T516 507Q517 578 497 609T433 640Q392 640 358 624T290 578Q258 550 226 504T169 402T129
285T113 163Q113 101 142 67T221 34L244 35V35ZM329 29Q346 8 360 -12T391 -53Q410 -76 426 -92T456 -120Q451 -129 441 -134T408 -140Q392 -140 373 -128T331 -88Q317 -70 302 -47T270 -1Q224 -18 180 -18Q29 -20 29 134Q29 185 45 245T92 367T164 488T260 596Q279
614 300 629T342 656T383 674T420 681Q437 688 455 693T504 699Q549 699 574 658T599 546Q599 504 593 461T572 373Q555 321 530 271T474 175T405 92T329 29Z" />
<glyph unicode="R" glyph-name="R" horiz-adv-x="524" d="M516 572Q516 537 503 503T466 440Q428 396 386 375T292 342Q298 322 309 289T336 219Q360 164 379 126T413 60T440 16T461 -15Q461 -19 455 -23T440 -28Q427 -28 415 -25T390 -14T364 10T334 50Q326 61
314 85T287 141T256 210T227 284Q205 343 205 356Q205 364 210 366T227 369Q236 369 240 369T253 368Q261 368 279 370T318 379T363 400T405 438Q438 481 438 536Q438 670 328 670Q315 670 300 669T271 665Q269 658 269 657T264 641T250 590T218 476Q199 406 184
352T158 256T139 184T126 132Q125 127 124 118T120 97T116 75T113 57Q111 44 103 33Q98 25 89 16T70 -1T50 -14T31 -20Q9 -20 9 -6Q9 11 16 36T31 90Q37 111 41 125T50 156T62 199T81 266T113 372T160 534Q180 603 190 649Q186 649 183 649T174 650Q167 651 166
661Q166 672 186 679Q198 683 216 687T255 694T300 699T347 701Q436 701 476 670T516 572Z" />
<glyph unicode="S" glyph-name="S" horiz-adv-x="497" d="M493 666Q496 649 496 638T486 613Q481 605 471 597T443 580Q442 595 437 611T420 642T388 665T337 674Q310 674 285 666T239 642T207 601T194 544Q194 506 213 477T259 421T319 370T379 318Q405 292 420
262T435 206Q435 155 411 113T347 41T253 -7T143 -24Q121 -24 94 -19T44 -2T4 27T-13 69Q-14 100 6 122T62 145Q62 119 67 97T87 58T126 32T189 22Q235 22 267 36T321 71T351 119T361 170Q361 196 346 223T301 275Q244 323 209 355T154 413T128 459T121 506Q121
546 140 583T191 650T267 696T361 714Q414 714 447 700T493 666Z" />
<glyph unicode="T" glyph-name="T" horiz-adv-x="366" d="M301 553Q295 536 287 507T265 433Q241 347 217 265Q208 233 199 199T181 124Q179 115 178 105T175 84Q171 58 167 44T154 18Q149 11 140 4T121 -10T102 -21T87 -26Q65 -26 65 -12Q65 -3 72 28T90 98T112
177T130 247Q134 263 142 292T161 357T182 430T202 500T218 554T227 583Q230 592 231 599T236 615Q238 621 242 629T253 646L125 644Q120 644 110 644T87 643T65 643T51 642Q33 642 33 653Q33 674 47 680Q54 683 68 685T107 687Q158 687 203 687T284 689T345 691T383
692L474 696Q492 697 494 685Q494 679 484 673T455 662Q448 660 443 659T431 656T415 652T393 649Q382 647 368 647T334 647L301 553Z" />
<glyph unicode="U" glyph-name="U" horiz-adv-x="643" d="M646 679Q646 667 633 640T600 556Q580 499 565 448T535 348Q520 292 507 233T481 109Q478 94 477 79T470 47Q464 30 437 10Q432 6 424 4T408 1Q398 1 396 7T393 21Q393 26 393 39T396 61Q398 75 402 94T412
133Q414 143 420 166T433 222T450 290T467 361T483 423T496 469Q478 445 462 424T423 372T364 299T273 186Q249 156 229 132T190 86T152 45T111 4Q103 -4 86 -13T51 -22Q23 -22 23 27Q23 38 30 65T52 140Q77 217 94 272T125 369T148 445T170 516Q179 545 187 578T200
630Q206 652 216 668T246 693Q255 697 267 698T290 700Q298 700 298 691Q298 678 294 653T278 593Q264 551 253 515T230 444T208 377T186 310Q175 276 165 243T147 181T135 134T130 107Q130 96 137 96Q146 96 174 125T250 209Q259 220 282 249T337 318T403 407T471
504Q487 528 498 546T517 579T531 606T545 632Q559 657 569 666T595 682Q605 686 618 687T638 688Q646 688 646 679Z" />
<glyph unicode="V" glyph-name="V" horiz-adv-x="545" d="M546 562Q539 547 526 519T495 459T458 394T421 334Q371 261 325 203T237 101T164 30T110 -12Q99 -20 89 -22T63 -25Q57 -25 54 -21T50 -12Q50 -2 51 8T55 31T62 62T73 106Q80 135 86 163T100 224T115
293T132 379Q145 446 152 486T162 550T165 587T166 614Q166 633 151 633Q140 633 131 629T117 625Q109 625 109 635Q109 640 127 656T185 698Q194 703 207 707T231 712Q246 712 249 702T253 674Q253 652 247 605T225 472Q213 406 200 340T173 216T150 116T135 54Q168
75 216 123Q248 155 277 190T334 266Q361 304 385 346T429 431T464 514T489 590Q495 613 496 634T495 670Q497 675 506 682T528 697T554 710T579 716Q593 716 593 705Q593 695 591 683T584 655T569 616T546 562Z" />
<glyph unicode="W" glyph-name="W" horiz-adv-x="864" d="M888 566Q864 502 831 439T759 317T680 205T600 110T524 36T459 -12Q444 -20 434 -22T409 -25Q403 -25 400 -21T396 -12Q396 -5 398 10T405 45T413 84T422 121Q437 183 452 252T481 381Q496 451 510 518L504
520Q487 483 462 435T405 335T337 230T264 130T191 46T120 -12Q106 -18 99 -20T80 -22Q66 -22 66 4Q66 9 68 28T76 82Q81 116 88 153T103 236Q111 284 117 328T131 423Q143 523 143 576Q143 595 140 601T126 608Q118 608 115 606T97 601Q90 601 89 611Q89 615 98
624T121 644T151 666T183 687Q190 691 198 691T216 692Q231 693 234 682T238 654Q238 632 232 592L187 287Q182 256 176 217T164 142Q157 101 150 59Q168 73 183 87T213 117T243 155T279 204Q339 290 383 368T464 526Q480 560 494 594T532 669Q543 682 563 692T601
703Q606 703 611 702T616 692Q616 683 615 670T612 637T604 588T590 516Q587 504 582 480T570 424T555 357T540 289Q532 254 525 220T512 156T500 99T490 54Q516 72 539 92T584 136T628 189T676 254Q710 302 736 357T784 477Q804 536 814 582T826 656Q846 674 864
689T900 705Q916 705 916 688Q916 664 911 638T888 566Z" />
<glyph unicode="X" glyph-name="X" horiz-adv-x="509" d="M544 717Q544 712 536 696T513 658T482 609T447 557T415 509T390 472Q374 449 354 421T311 361Q330 304 348 251T392 134Q398 120 405 105T421 78T437 58T450 47Q436 12 420 -3T382 -18Q374 -18 367 -11T353
6T341 30T331 54Q320 84 310 117T290 182T273 242T258 294Q243 270 222 237T178 170T133 103T96 49Q76 20 62 5T35 -10Q21 -10 14 3T6 31Q24 41 41 60Q44 63 59 78T99 125T161 207T245 329Q202 473 182 547T162 636Q162 647 164 653T169 665Q177 680 192 697T224
714Q227 714 230 701T236 670T242 634T248 604Q255 572 260 547T272 499T284 451T299 395Q329 440 353 477T398 546Q434 604 457 647T498 705Q504 710 519 715T544 717Z" />
<glyph unicode="Y" glyph-name="Y" horiz-adv-x="477" d="M538 683Q538 668 532 649T516 609T496 570T478 538Q468 501 458 460T434 380Q405 293 378 225T311 104Q263 44 199 12T55 -21Q19 -21 -4 -13T-28 8Q-28 15 -20 15Q-12 15 2 8T40 0Q99 0 143 22T229 90Q246
108 264 137T303 210T344 313T389 451L386 452Q374 439 354 419T309 375T255 328T194 282Q181 274 157 262T107 249Q93 249 85 258T77 283Q77 291 79 304T87 333Q101 375 111 408T131 468Q148 521 158 554T173 608T179 639T180 655Q180 665 177 665T170 666Q167
666 162 664T151 658T140 653T133 650Q128 650 128 656Q128 663 135 668T152 678Q159 682 174 688T206 701T240 711T270 716Q279 716 279 704Q279 699 276 689T269 667Q252 613 238 572T211 487Q205 469 198 445T185 398T175 357T170 334Q170 326 173 325T183 323Q190
323 206 332T244 356T288 391T332 434Q381 486 408 537Q416 565 423 588T438 631Q446 649 452 659T465 676Q479 690 493 694T524 699Q538 699 538 683Z" />
<glyph unicode="Z" glyph-name="Z" horiz-adv-x="531" d="M595 667Q595 658 587 644T567 614T543 583T522 558Q497 527 477 502T436 453T393 403T342 345Q312 310 266 261T162 136Q140 107 124 84T96 42Q112 46 140 51T200 61T261 69T311 73Q355 73 386 74T447
71Q470 68 470 53Q470 45 463 27T429 -9Q420 -5 406 -2T372 4T332 8T289 10Q269 10 240 8T172 -2Q163 -4 146 -7T109 -13T74 -18T51 -20Q25 -20 25 -1Q25 14 76 82Q112 129 167 193T288 333Q318 367 347 401T402 464T446 515T475 551Q490 571 502 587T524 617Q510
619 495 620T462 621Q444 621 395 617T251 596Q213 589 193 587T169 584Q155 584 155 596Q158 600 168 609T191 628T220 647T249 662Q271 670 313 678Q333 681 358 682T410 684Q454 684 498 684T569 680Q595 677 595 667Z" />
<glyph unicode="[" glyph-name="bracketleft" horiz-adv-x="388" d="M65 -136Q72 -114 75 -100T81 -77Q88 -49 99 -1T124 103T149 213T170 307Q181 358 195 411T222 510Q236 563 251 613Q256 633 262 647T273 675Q293 720 335 720Q343 720 349 719T364 717Q379
717 396 718T429 719T455 720T469 721Q482 721 485 718T489 710Q489 704 481 698T461 688T435 679T409 673Q396 671 381 670T352 668Q346 652 339 630T321 579Q317 567 310 543T296 489T281 431T269 379Q264 354 256 320T239 247T219 166T200 85T181 10T166 -53Q157
-92 151 -119T136 -159H153Q166 -159 181 -159T209 -157T231 -156T244 -155Q257 -155 260 -158T264 -166Q264 -172 256 -178T236 -188T210 -197T184 -203Q158 -208 137 -208T92 -209Q85 -209 78 -210T64 -211T53 -208T48 -199Q48 -188 53 -173T65 -136Z" />
<glyph unicode="\" glyph-name="backslash" horiz-adv-x="369" d="M370 -70Q370 -88 348 -88Q340 -88 337 -87T325 -72L42 744Q49 755 58 762T80 768Q85 761 100 723T136 627T181 496T231 348T281 201T324 71T356 -25T370 -70Z" />
<glyph unicode="]" glyph-name="bracketright" horiz-adv-x="384" d="M381 646Q374 624 371 610T365 587Q358 559 347 511T322 407T297 297T276 203Q265 152 251 99T224 0Q209 -53 195 -103Q190 -123 184 -137T173 -165Q153 -210 111 -210Q103 -210 97 -209T82
-207Q67 -207 50 -208T17 -209T-9 -210T-23 -211Q-36 -211 -39 -208T-43 -200Q-43 -194 -35 -188T-15 -178T11 -169T37 -163Q50 -161 65 -160T94 -158Q100 -142 107 -120T125 -69Q129 -57 136 -33T150 21T165 79T177 131Q182 156 190 190T207 263T227 344T246 425T264
500T280 563Q289 602 295 629T310 669H293Q280 669 265 669T237 667T215 666T202 665Q189 665 186 668T182 676Q182 682 190 688T210 698T236 707T262 713Q288 718 309 718T354 719Q361 719 368 720T382 721T393 718T398 709Q398 698 393 683T381 646Z" />
<glyph unicode="^" glyph-name="asciicircum" horiz-adv-x="434" d="M402 540Q403 530 393 518T373 506Q368 506 366 506T360 511L225 636L108 517Q107 514 105 511Q102 506 95 506Q84 506 84 514T89 531L240 685L246 686Q278 658 307 632Q332 609 358 584T402 540Z" />
<glyph unicode="_" glyph-name="underscore" horiz-adv-x="563" d="M-7 -116V-76H574V-116H-7Z" />
<glyph unicode="`" glyph-name="grave" horiz-adv-x="273" d="M273 582Q273 574 263 563T238 549Q230 552 213 573T168 633Q164 638 158 647T146 665T136 682T132 694Q132 701 146 709T174 718Q179 718 192 697T224 648Q239 625 256 607T273 582Z" />
<glyph unicode="a" glyph-name="a" horiz-adv-x="471" d="M296 162Q227 79 180 35T94 -15Q61 -15 44 7T26 70Q26 135 55 198T133 313Q181 364 232 395T339 440Q359 445 381 447T412 449Q424 449 432 447T441 438Q441 427 431 418Q426 414 419 411T402 407Q394
407 377 409T345 412Q320 412 299 402Q277 392 255 375T213 335T174 285T143 226Q127 188 121 157T113 94Q113 68 119 59T136 50Q152 50 175 69T224 117T273 182T316 251Q328 273 335 294T348 327Q354 343 359 356T381 378Q396 387 410 391T432 395Q442 395 442
386Q433 363 424 337Q416 315 407 289T391 236Q380 194 373 152T366 88Q366 77 369 67T377 51L386 39Q385 34 377 23T357 -1T334 -22T312 -31Q299 -31 292 -21T284 19Q284 40 286 64T292 111Q296 137 300 162H296Z" />
<glyph unicode="b" glyph-name="b" horiz-adv-x="472" d="M359 332Q359 364 353 385T326 406Q319 406 307 403T278 389T236 356T180 293Q160 268 147 240T122 173Q114 144 111 118T106 77Q118 45 140 38T188 30Q215 30 242 51T299 126Q314 153 325 184T343 243T355
296T359 332ZM20 52Q20 71 28 103Q37 144 48 185Q56 220 66 260T86 335Q103 398 121 461T158 579T193 677T222 742Q227 750 231 755T243 766Q254 774 264 778T286 782Q295 782 295 772Q295 767 291 756T280 731T267 701T256 670Q224 565 200 476T156 312Q175 335
201 364T257 419T318 462T376 480Q391 480 403 476T425 460T440 426T446 368Q446 354 441 327T425 266T398 196T359 127Q312 58 260 22T151 -15Q103 -15 68 -2T20 52Z" />
<glyph unicode="c" glyph-name="c" horiz-adv-x="364" d="M281 325Q288 343 290 359T294 399Q294 420 271 420Q239 420 210 396T157 333T121 244T107 142Q107 88 129 57Q140 42 156 37T201 31Q221 31 238 38T273 56Q283 63 290 63Q295 63 299 60T304 46Q304 42
291 32T255 12T201 -7T134 -15Q85 -15 53 13T20 102Q19 242 127 363Q151 390 177 410T227 443T274 464T311 471Q320 471 330 470T348 464T362 453T367 433Q367 398 359 366Q357 356 351 343T333 320Q316 306 302 302T281 297Q274 297 273 303L281 325Z" />
<glyph unicode="d" glyph-name="d" horiz-adv-x="471" d="M528 686Q511 632 494 578Q480 532 464 479T434 381Q424 347 416 321T400 269T386 215T372 149Q370 140 369 129T365 109Q363 98 362 87Q362 76 370 65L379 53Q378 46 370 32T350 7Q336 -6 324 -11T305
-17Q288 -17 283 -7T278 15Q278 23 281 42T288 85T296 129T303 161L300 162Q277 132 253 105T197 46Q177 27 162 15T135 -4T112 -14T92 -19Q62 -19 43 -2T24 69Q24 135 50 195T129 315Q178 370 231 401T345 440L380 444Q395 490 407 530Q417 564 425 595T435 637Q435
641 433 644T425 648Q420 648 412 646Q408 645 404 645Q401 644 399 644T396 647Q396 650 396 652T400 658Q408 664 428 673T472 692Q496 701 519 701Q531 701 528 686ZM330 399Q276 399 227 361T146 243Q130 204 123 169T114 100Q114 57 136 48Q154 51 176 69T228
120Q238 131 252 148T280 185T307 228T326 270L366 399H330Z" />
<glyph unicode="e" glyph-name="e" horiz-adv-x="371" d="M126 246Q150 251 169 259T220 291Q263 322 275 349T287 396Q287 416 262 416Q245 416 225 403T182 361Q161 333 147 304T126 246ZM118 185Q116 179 116 173T115 163Q115 100 137 65T217 30Q232 30 248
34T277 45Q292 51 306 60Q312 54 312 41Q312 35 299 26T264 7T215 -8T162 -15Q98 -15 63 22T27 128Q27 187 46 240T110 346Q136 376 166 399T242 446Q266 459 286 464T321 471Q350 471 362 464T374 437Q374 428 371 414T356 381T323 339T265 287Q236 264 210 248T164
221Q141 209 122 201L118 185Z" />
<glyph unicode="f" glyph-name="f" horiz-adv-x="357" d="M309 660Q336 683 373 697T445 712Q503 712 503 690Q503 678 496 664T470 642Q457 655 439 665T399 676Q366 676 345 658T308 603T280 511T250 383H267Q275 383 282 383T298 383Q336 385 355 386T389 387Q401
387 404 386T407 380Q407 371 388 361Q379 356 343 346T256 335H236Q219 255 199 178Q190 145 180 110T159 41T136 -26T112 -86Q77 -161 43 -206T-35 -287Q-45 -295 -56 -301T-79 -311T-99 -318T-115 -321Q-119 -321 -123 -320T-127 -314Q-127 -306 -121 -304Q-111
-299 -91 -290T-51 -260Q2 -207 41 -107T118 149L164 335Q145 334 128 333Q114 332 100 332T80 332Q74 332 68 333T62 343Q62 365 80 376Q89 381 99 382T127 384Q135 384 143 384T160 383H177Q192 446 208 493T241 573Q267 623 309 660Z" />
<glyph unicode="g" glyph-name="g" horiz-adv-x="469" d="M364 138Q354 104 341 60T313 -28T285 -109T262 -168Q201 -296 119 -359T-77 -422Q-95 -422 -109 -420T-138 -414Q-159 -409 -159 -393Q-159 -391 -156 -390T-149 -389Q-145 -389 -141 -390T-130 -394T-115
-397T-90 -399Q-62 -399 -30 -391T37 -361T107 -299T176 -197Q192 -167 211 -119T248 -19T281 81T306 161H303Q286 138 255 105T186 36Q128 -19 82 -19Q52 -19 34 4T15 80Q15 220 130 334Q168 371 220 399T338 444Q358 449 378 451T411 453Q422 453 431 452T440
442Q440 434 438 431T430 422Q425 418 419 414T404 409Q385 409 370 411T344 414Q310 414 279 401T205 350Q184 332 165 304T132 242T108 172T99 102Q99 73 105 60T123 41Q141 43 178 71T264 162Q283 187 298 211T329 274Q340 300 348 326T362 365Q366 374 377
380Q388 386 401 391T430 397Q433 397 436 395T440 388Q440 380 437 374T428 349Q425 338 421 324T409 285T391 226T364 138Z" />
<glyph unicode="h" glyph-name="h" horiz-adv-x="469" d="M430 312Q421 274 413 245T396 184Q393 175 391 163T386 141T382 123T380 113Q380 102 382 96T383 78Q381 70 379 66T371 53Q365 45 355 37T335 21T314 9T296 4Q281 4 281 23Q281 32 284 45T292 73Q302
103 307 123T321 174Q331 208 337 232T352 292Q359 321 365 350T372 391Q372 398 362 398Q353 398 328 376T273 317T211 232T156 130Q145 104 141 84T129 37Q124 15 111 0Q105 -7 88 -14T61 -22Q47 -22 43 -19T38 -8Q38 -5 41 7T50 37T60 73T71 109Q86 162 98 205T122
290T146 375T173 472Q192 537 209 595T236 690Q241 709 262 724Q272 732 282 735T300 741Q310 743 318 744Q327 744 327 734Q321 716 315 698Q310 682 305 665T294 630Q279 579 267 534T242 445T217 355T188 258L191 257Q212 286 235 316Q255 341 279 370T326 424Q337
436 353 447T376 463Q400 478 435 478Q446 478 451 470T457 440Q457 432 455 419T448 388T439 351T430 312Z" />
<glyph unicode="i" glyph-name="i" horiz-adv-x="268" d="M232 444Q226 421 220 398Q215 378 209 356T197 315Q191 296 187 282T178 253T170 223T161 189Q156 172 151 154T142 119T135 90T132 72Q132 64 133 58T135 47Q135 42 132 31T104 0Q102 -2 96 -5T81 -12T65
-18T51 -21Q43 -21 37 -19T31 -8Q31 3 38 25Q49 59 58 85T78 148Q86 176 91 195T103 243Q108 263 113 283T123 323T131 357T134 383Q134 393 131 395T123 398Q119 398 115 397T106 394Q101 392 95 391Q92 393 90 406Q98 413 125 425T185 448Q205 455 223 455Q232
455 232 444ZM273 592Q271 568 257 549T211 529Q190 529 182 537T175 571Q177 603 190 621T240 639Q262 639 268 627T273 592Z" />
<glyph unicode="j" glyph-name="j" horiz-adv-x="287" d="M153 396Q149 396 145 395T136 392Q131 390 125 389Q122 391 120 404Q128 411 156 423T215 446Q233 453 253 453Q262 453 262 442Q256 419 249 396Q243 376 236 355T224 315Q213 280 201 239T178 161Q166
119 153 76Q140 32 127 -6T100 -77Q83 -118 62 -155T16 -223T-36 -277T-91 -314Q-112 -323 -125 -323Q-135 -323 -135 -317Q-135 -311 -124 -307T-105 -296Q-77 -275 -55 -250T-14 -188T23 -104T62 11Q74 50 83 81T101 142T118 205T138 277Q146 307 152 336T159
380Q159 385 159 390T153 396ZM303 592Q301 568 287 549T241 529Q220 529 212 537T205 571Q207 603 220 621T270 639Q292 639 298 627T303 592Z" />
<glyph unicode="k" glyph-name="k" horiz-adv-x="442" d="M445 406Q443 394 439 380T422 355Q412 349 404 346T387 341Q378 339 370 339Q372 350 375 361Q377 370 378 381T380 400Q380 421 377 427Q351 403 326 378Q305 357 282 332T241 283Q247 257 261 222T301
133Q314 107 330 81T371 38Q380 32 388 30T401 26T409 24T412 20Q412 15 406 7T377 -14Q363 -21 345 -21Q320 -21 304 -10T270 30Q249 62 231 99T198 168Q182 205 169 241Q166 229 162 218Q159 208 156 197T150 177Q146 163 142 147T135 116Q131 99 127 82Q124
68 122 61T112 40Q102 29 85 17T46 4Q39 4 32 5T25 18Q25 23 28 35T35 59Q40 79 47 103T61 149Q68 174 76 198L134 409Q143 443 152 477Q160 506 168 539T183 602Q186 615 189 630T196 659T202 683T204 696Q204 701 203 704T202 712Q202 715 203 719T210 729T227
740T257 753Q271 758 278 759T296 760Q305 760 305 751Q305 748 300 727T288 676T271 611T254 546Q243 502 229 452T203 358Q189 307 174 256Q202 287 230 318Q254 344 282 374T335 428Q397 490 434 490Q441 490 446 485T451 463Q451 445 449 432T445 406Z" />
<glyph unicode="l" glyph-name="l" horiz-adv-x="287" d="M221 630Q221 640 217 642T208 645Q204 645 199 644T188 640Q182 637 175 635Q172 637 170 650Q184 658 210 671T270 695Q290 702 308 702Q313 702 315 698T317 691Q317 686 314 676T308 654Q304 641 300
626Q290 588 279 550Q270 518 259 481T240 412Q233 386 227 366T216 327T206 286T193 236Q178 174 169 134T159 72Q159 61 160 58T162 47Q162 39 161 37T157 30Q155 27 145 19T122 1T95 -15T72 -22Q57 -22 56 -8Q56 13 93 148Q105 191 117 235Q128 273 139 316T162
395Q181 461 191 500T207 561T214 592T218 609Q220 615 220 621T221 630Z" />
<glyph unicode="m" glyph-name="m" horiz-adv-x="665" d="M608 202Q603 186 599 169T591 137T585 110T583 92Q583 75 585 67T587 50Q587 39 573 25Q552 5 532 -9T496 -24Q480 -24 480 4Q480 13 482 23T492 61Q497 79 502 97Q507 113 511 131T521 164Q530 192 535
210T548 255Q552 270 556 286T564 316T570 342T572 358Q572 379 561 380Q550 380 520 349Q504 333 486 312T451 267T419 221T394 179Q389 169 386 163T377 140L354 70Q351 56 345 47Q341 42 327 27T299 2Q286 -6 277 -6Q268 -6 266 -1T263 13Q263 19 267 34T280
77L315 192Q321 212 327 233Q332 250 338 271T349 309Q354 327 359 348T365 375Q365 387 359 389Q351 389 337 378T300 344Q283 327 267 308T235 270T206 231T182 193Q171 174 160 150T137 90Q134 81 132 74T128 57Q125 46 123 41T116 28Q113 23 107 17T92 6T75
-3T57 -7Q44 -7 40 -4T34 7Q34 15 39 38T51 81Q56 100 62 122T75 163Q81 185 88 206L134 373L140 403Q140 413 134 413Q126 413 117 410T99 401Q89 396 80 389Q75 389 73 392T71 398Q71 405 81 412T104 426Q137 445 152 452T183 465Q193 469 204 471T224 473Q227
473 230 471T233 464Q233 459 229 438T214 375L184 257Q203 280 216 296T241 326T265 353T295 384Q330 419 353 439Q358 444 367 449T389 460Q401 465 412 467T435 471Q453 471 453 444Q453 426 449 403T437 356T423 310T412 271H415Q436 300 458 326T501 373T538
410T565 434Q574 442 584 446T605 454Q624 459 640 461Q649 461 655 449Q656 445 657 440Q658 435 658 430T659 417Q659 407 659 401T656 384Q655 377 651 359T640 316T625 262T608 202Z" />
<glyph unicode="n" glyph-name="n" horiz-adv-x="469" d="M404 221Q400 205 396 188T389 156T383 128T381 109V70Q381 62 378 58T369 45Q366 41 356 33T334 17T311 2T294 -4Q286 -4 282 0T278 16Q278 21 280 32T290 71Q294 88 297 101T304 128T311 154T319 184Q330
222 339 252T357 312Q363 332 367 353T373 382Q373 403 365 404Q354 404 330 385T271 320Q240 281 215 240T170 158Q161 139 151 113T130 57Q124 39 120 28T105 3Q102 0 96 -4T81 -12T63 -18T45 -21Q36 -21 32 -16T27 -4Q27 7 30 16T39 42Q48 63 57 89Q65 111 74
139T93 199Q102 228 111 261T128 323T141 373T148 399Q149 403 149 406T150 412Q150 417 147 417T141 418Q136 418 128 415T111 406Q101 401 92 395Q89 392 86 390Q80 386 78 386Q74 386 73 390T71 397Q71 400 80 408T102 425T133 444T165 459Q183 466 195 469T231
473Q240 473 240 464Q240 459 237 440T221 375L188 259L191 257Q208 280 226 304Q241 324 258 346T293 388Q302 398 313 409T334 429T351 445T361 453Q377 463 393 468Q417 477 442 477Q461 477 462 451Q462 442 459 424T447 376Q439 348 431 321Q424 298 417 271T404
221Z" />
<glyph unicode="o" glyph-name="o" horiz-adv-x="442" d="M135 -15Q87 -15 57 10T26 87Q25 127 36 171T74 261Q97 300 126 334T192 400Q224 429 249 444T289 459Q292 459 295 459T302 458H309Q312 461 325 466T351 471Q394 471 411 441T429 363Q430 257 348 129Q255
-15 135 -15ZM352 342Q352 380 340 401T309 422Q305 422 303 421T299 419L295 417L279 420Q214 420 157 278Q134 221 123 180T112 111Q112 70 128 49T170 28Q199 28 230 48T288 115Q303 140 314 173T334 238T347 299T352 342Z" />
<glyph unicode="p" glyph-name="p" horiz-adv-x="486" d="M383 332Q383 370 378 395T354 420Q332 420 297 390T210 291Q195 271 182 245T157 189T137 132T125 79Q131 56 150 41T206 25Q238 25 268 48Q292 66 313 98T349 169T374 250T383 332ZM469 371Q469 321
454 270T412 171T352 84T280 19Q231 -13 175 -15Q130 -15 102 3Q87 -50 74 -98T50 -188T32 -259T21 -306Q20 -311 20 -320T20 -337Q20 -345 18 -350T11 -364Q1 -379 -19 -392T-54 -405Q-62 -405 -68 -398T-75 -379Q-75 -365 -73 -349T-59 -296L-8 -130L64 110L45
101Q37 103 40 122Q46 130 53 140Q59 148 66 158T81 179Q88 203 97 232Q105 257 113 290T132 364Q134 375 134 382T136 395Q136 410 131 410Q124 410 113 404T94 397Q85 397 85 407Q85 414 92 418Q104 425 132 441T192 470Q200 473 206 473T219 474Q229 474 229
464Q229 456 225 438T214 397T200 352T185 313L190 312Q238 382 297 431Q358 480 400 480Q433 481 451 456T469 371Z" />
<glyph unicode="q" glyph-name="q" horiz-adv-x="433" d="M227 -316Q227 -323 228 -328T230 -340Q230 -350 228 -354T221 -365Q215 -371 206 -379T186 -393T165 -404T146 -409Q134 -409 130 -406T123 -395Q123 -372 174 -214L223 -61L289 162Q259 124 232 91T181
34T134 -5T92 -19Q54 -19 39 4T24 66Q24 130 47 192T122 317Q170 374 227 411T341 454Q346 454 350 455Q354 455 357 455T365 456Q388 456 394 453T401 445Q401 431 384 430H372Q367 430 361 430T350 428Q339 426 322 421T286 406T249 384T217 358Q196 337 177
306T144 240T120 167T111 93Q111 78 117 61T134 44Q143 44 158 56T191 87T229 130T265 178T295 225T314 264L356 384Q361 396 373 407T409 427Q412 428 416 429T424 430H432Q441 431 441 421Q437 407 433 394Q429 383 425 370T418 346Q407 314 399 291T382 236Q370
194 354 140T322 34Q304 -25 287 -86Q281 -105 277 -120T268 -148T260 -176T250 -210Q241 -241 234 -271T227 -316Z" />
<glyph unicode="r" glyph-name="r" horiz-adv-x="350" d="M127 121Q122 107 117 91T107 61Q102 44 96 28Q93 19 87 8T73 -12T55 -24T37 -21Q32 -25 27 -21T20 -8Q20 -1 23 16T33 55T46 102T61 150Q71 184 80 211T95 260T107 303T118 344Q123 369 123 383Q123 388
120 392T112 396Q106 396 101 392T90 388Q81 388 80 400Q80 402 88 408T110 421T141 436T178 448Q189 451 197 452T217 454Q226 454 226 439Q226 431 222 416T210 379T194 333T176 280H180Q198 306 213 327T243 366Q265 391 283 407T319 434T352 448T386 454Q406
455 411 449T416 434Q416 427 412 416T402 394T389 373T376 360Q371 367 363 376T334 385Q312 385 289 369Q265 352 241 322T194 257T155 186T127 121Z" />
<glyph unicode="s" glyph-name="s" horiz-adv-x="378" d="M393 447Q388 422 370 410T329 397Q305 397 284 400T240 403Q200 403 170 385Q143 369 141 331Q141 322 145 313T157 297Q171 286 189 275T226 253T260 232T288 211Q317 185 317 153Q317 131 307 107T278
61T233 20T174 -8Q154 -14 135 -17T84 -20Q66 -20 48 -16T15 -3T-11 16T-25 40Q-24 51 -17 59T4 80Q9 85 22 91T43 98Q47 83 54 70T72 47T98 30T136 24Q161 24 181 31T217 50T240 79T249 113Q249 130 239 145T212 170Q180 189 154 203T98 240Q79 254 76 269T73
305Q73 314 79 331T102 368T147 406T220 435Q241 440 264 444T305 448Q319 448 335 448T364 447H393V447Z" />
<glyph unicode="t" glyph-name="t" horiz-adv-x="353" d="M306 427Q336 427 354 429T397 431Q409 431 412 430T415 424Q415 415 396 405Q387 400 372 395T335 387Q321 385 311 384T286 382Q281 381 274 381T262 382H249Q246 370 238 343T221 281T201 207T184 133Q179
112 178 96T176 72Q176 64 177 59T179 47Q179 42 178 38T173 28Q170 24 162 16T142 0T120 -15T100 -22Q78 -22 77 -8Q77 -4 79 8T85 35T93 67T101 100Q109 133 118 168T135 234T151 293T164 338Q166 346 169 357T177 383Q158 382 141 381Q127 380 113 380T93 380Q75
380 75 391Q75 402 79 408T92 420Q103 428 112 428T138 427H189L219 526Q227 550 240 569T275 597Q288 602 305 602Q314 602 314 593Q310 583 307 576T301 562T296 547T289 527L258 427H306Z" />
<glyph unicode="u" glyph-name="u" horiz-adv-x="479" d="M170 211Q166 199 162 184T153 155T145 131T142 117Q142 113 143 109T148 105Q153 105 166 117T201 155Q227 186 246 210T282 258T315 306T353 361Q367 382 375 399T402 434Q414 445 426 451T450 464Q460
468 468 468H478Q484 469 486 459Q486 456 481 441T467 404T451 358T435 311Q429 292 425 277T416 246T408 216T399 181Q394 162 390 140T383 97Q379 74 376 51Q375 46 375 38T370 22Q369 19 362 12Q360 10 353 4T337 -8T320 -19T307 -24Q302 -24 297 -22T291 -14V-4Q291
2 294 22T301 69T312 126T324 184Q328 202 334 223T345 262Q351 283 357 305Q338 280 317 253Q299 230 277 201T232 142Q217 122 202 105T176 75Q165 63 157 53T140 35T121 19T98 2Q87 -6 79 -6T66 -7Q39 -7 39 33Q39 41 45 66T64 131L108 268Q121 308 128 333T139
372T144 393T145 402Q145 407 144 410T138 414Q133 414 124 408T110 402Q103 402 102 414Q102 419 130 437Q167 460 192 468T232 477Q240 477 240 466Q240 458 237 439T228 402L170 211V211Z" />
<glyph unicode="v" glyph-name="v" horiz-adv-x="414" d="M120 375Q120 393 112 393Q101 393 95 388T84 383Q75 383 75 393Q75 398 81 403T108 424Q122 435 134 441T158 452Q169 456 184 456Q196 456 199 448Q202 440 202 428Q202 418 201 408T198 385Q190 335
181 289T161 192Q157 173 152 152T142 111T133 73T126 46Q148 56 177 84T234 149T287 226T326 302Q331 315 335 333T343 368T348 400T350 424Q353 427 353 428T356 431T364 436T382 447Q404 459 428 461Q441 461 441 439Q441 432 436 414T418 369T386 308T340 234Q323
209 310 191T282 153T244 111T186 52Q166 33 144 15T108 -9Q95 -15 83 -17T60 -20Q50 -20 49 -8Q49 6 50 10Q50 12 51 21T56 42T62 67T68 93Q85 157 94 202T109 282Q114 312 116 335T120 375Z" />
<glyph unicode="w" glyph-name="w" horiz-adv-x="655" d="M372 416Q380 427 389 430T409 437Q414 439 420 439T431 439Q441 439 441 418Q441 408 439 396T434 373Q432 364 429 345T420 301T409 245T397 184Q392 163 388 139T379 93Q375 68 370 44Q392 59 413 78T454
121Q499 173 532 239T583 375Q588 394 589 406T590 424Q591 427 599 433T618 445T642 456T668 461Q674 461 677 457T681 439Q681 413 656 364T580 234Q545 178 493 120T383 15Q365 1 351 -6T322 -17Q316 -19 312 -19T300 -20Q290 -20 289 -8Q289 5 290 10Q291 13
295 33T311 93Q316 112 322 138T333 193T344 250T353 301L349 302Q335 277 315 242T270 169T219 93T162 27Q136 1 115 -11Q103 -16 92 -18T70 -20Q59 -20 59 -8Q59 3 63 22T72 72Q76 95 81 122T92 176T102 231T111 281Q120 341 120 375Q120 393 112 393Q106 393
97 388T84 383Q75 383 75 393Q75 396 83 404Q89 410 102 419T130 436T160 450T184 456Q194 456 198 451T202 428Q202 418 201 408T198 385L168 192L144 56Q170 79 196 114T246 186T288 259T320 320Q326 333 334 348T350 378T364 402T372 416Z" />
<glyph unicode="x" glyph-name="x" horiz-adv-x="443" d="M431 489Q435 475 422 444T389 383Q382 372 368 349T334 299T292 242T248 189Q263 147 275 122T297 82Q323 43 344 40Q337 14 317 -4T280 -22Q272 -22 263 -17T243 5T217 49T185 122Q143 77 103 40Q49
-8 26 -10Q12 -10 7 -2Q5 1 3 9T2 28Q40 45 81 72T171 154Q156 200 144 241T125 314T113 368T109 398Q109 414 130 435Q141 446 155 454T180 464Q187 417 201 351T235 222Q260 253 279 282T313 337T337 381T352 411Q362 433 368 450T388 481Q394 487 402 489T418
492Q421 492 427 490Q429 489 431 489Z" />
<glyph unicode="y" glyph-name="y" horiz-adv-x="477" d="M488 441Q488 432 485 420T476 390Q468 365 455 341T429 296Q418 260 412 238T404 208Q370 87 338 -3Q308 -90 273 -164T191 -294Q170 -319 143 -342T82 -382T11 -411T-70 -422Q-153 -424 -153 -393Q-153
-387 -139 -387Q-129 -387 -124 -387T-114 -389T-103 -390T-86 -391Q-22 -391 30 -367T128 -287Q148 -263 178 -206T244 -60Q275 18 298 85T338 204L335 205Q322 188 300 163T250 109T195 53T142 6Q133 1 126 -4T111 -13T92 -19T66 -22Q56 -22 49 -14T42 17Q42
27 47 46T60 90T79 143T99 201Q106 223 111 239T122 272T133 307T146 351Q150 363 154 380T158 409Q158 413 157 417T151 422Q146 422 140 420T127 415L113 408Q111 408 110 413T107 422Q107 423 112 427T125 437T143 447T162 455Q184 463 199 467T225 472T242
474T252 473Q262 473 261 464L249 425Q235 387 222 347Q211 313 199 274T175 202Q161 158 151 127T140 81Q140 72 150 71Q161 71 175 82T206 108Q224 124 245 147T288 195T327 247T358 295L381 369Q389 392 396 407T415 434Q428 446 442 451T474 457Q487 457 488
441Z" />
<glyph unicode="z" glyph-name="z" horiz-adv-x="379" d="M270 392Q219 392 184 388T123 380T83 372T59 368Q55 368 51 370T47 380Q50 387 58 394T77 412Q104 436 118 441Q142 451 189 454T288 457Q327 457 351 454Q359 453 367 451T376 441Q376 433 369 419Q359
399 334 364T260 274Q244 256 215 227T157 165T104 105T75 60Q87 63 104 65T141 70T181 74T220 75Q262 75 287 74T324 71Q339 68 343 62T348 47Q348 35 336 16T311 -13Q303 -5 283 1T218 7Q192 7 153 5T51 -8Q42 -10 37 -10T18 -11Q-3 -11 -4 4Q-4 27 37 81T168
224Q224 279 255 318T308 392H270Z" />
<glyph unicode="{" glyph-name="braceleft" horiz-adv-x="334" d="M365 743Q365 738 360 737T351 734Q334 729 318 716T294 686Q290 680 286 664T277 626T268 580T259 533Q254 504 249 476T238 424T224 380T209 349Q196 326 176 313T119 292L118 288Q157 279 174
256T198 209T202 162T199 132L173 -35Q169 -60 169 -82T174 -122T189 -149T217 -159Q220 -159 224 -159T228 -166Q228 -173 224 -173T216 -173Q171 -173 139 -147T107 -69Q107 -52 113 -20T126 50T139 128T145 199Q145 212 141 225T128 248T105 265T69 272Q63 272
62 274T60 279Q60 297 73 299Q94 301 115 307T155 339Q164 351 171 381T185 447T195 516T204 568Q208 589 212 608T222 644T240 676T269 707Q277 714 290 721T317 734T341 744T355 748Q357 748 361 748T365 743Z" />
<glyph unicode="|" glyph-name="bar" horiz-adv-x="145" d="M43 -217H0L245 802H289L43 -217Z" />
<glyph unicode="}" glyph-name="braceright" horiz-adv-x="334" d="M0 -169Q0 -164 5 -163T14 -160Q31 -155 47 -142T71 -112Q75 -106 79 -90T88 -52T97 -6T106 41Q110 69 115 97T127 150T141 194T156 225Q169 248 189 261T246 282L247 286Q208 295 191 318T167
365T163 412T166 442L192 609Q196 634 196 656T191 696T176 723T148 733Q145 733 141 733T137 740Q137 747 141 747T149 747Q194 747 226 721T258 643Q258 626 252 594T239 524T226 446T220 375Q220 362 224 349T237 326T260 309T296 302Q302 302 303 300T305 295Q305
277 292 275Q271 273 250 267T210 235Q201 223 194 193T180 127T170 58T161 6Q156 -15 153 -34T143 -70T125 -102T96 -133Q88 -140 75 -147T48 -160T24 -170T10 -174Q8 -174 4 -174T0 -169Z" />
<glyph unicode="~" glyph-name="asciitilde" horiz-adv-x="541" d="M527 314Q451 211 379 211Q356 211 331 222T279 248T229 273T183 285Q155 285 124 270T62 217L52 230Q66 246 82 264T117 298T161 323T217 333Q236 333 264 322T321 298T374 273T409 262Q420
262 431 264T455 273T482 292T514 325L527 314V314Z" />
</font>
</defs>
</svg>
