<?xml version="1.0" standalone="no"?> <!DOCTYPE svg PUBLIC "-//W3C//DTD SVG 1.0//EN" "http://www.w3.org/TR/2001/REC-SVG-20010904/DTD/svg10.dtd" > <svg xmlns="http://www.w3.org/2000/svg" width="100%" height="100%">
<defs >
<font horiz-adv-x="429" ><font-face
    font-family="HelveticaNeueCyr"
    units-per-em="1000"
    panose-1="2 0 5 3 4 0 0 2 0 4"
    ascent="714"
    descent="-191"
    alphabetic="0" />
<missing-glyph horiz-adv-x="1000" />
<glyph unicode=" " glyph-name="space" horiz-adv-x="278" />
<glyph unicode="!" glyph-name="exclam" horiz-adv-x="241" d="M154 712V503L139 179H102L87 503V712H154ZM158 99V0H83V99H158Z" />
<glyph unicode="&quot;" glyph-name="quotedbl" horiz-adv-x="370" d="M131 411H91L84 691H138L131 411ZM279 411H240L233 691H286L279 411Z" />
<glyph unicode="#" glyph-name="numbersign" horiz-adv-x="556" d="M146 0H92L131 211H18L17 259H140L172 433H59V481H181L220 691H274L235 481H372L411 691H465L426 481H540V433H417L385 259H498L499 211H376L337 0H283L322 211H185L146 0ZM331 259L363 433H226L194
259H331Z" />
<glyph unicode="$" glyph-name="dollar" horiz-adv-x="556" d="M292 782V710Q391 709 447 660T504 525V515H443Q443 587 405 620T292 658V385Q525 351 525 184Q525 94 461 40T292 -15V-102H255V-15Q142 -13 83 43T23 206V211H85V199Q85 47 255 36V334Q152 356
98 396T44 520Q44 602 100 653T255 710V782H292ZM255 393V657Q185 652 145 617T105 525Q105 415 255 393ZM292 326V35Q371 36 417 76T463 183Q463 219 450 244T409 285T357 309T292 326Z" />
<glyph unicode="%" glyph-name="percent" horiz-adv-x="889" d="M678 728L254 -32H202L627 728H678ZM153 708T229 708T345 661T385 525Q385 433 344 382T226 331Q149 331 109 380T68 521Q68 609 110 658ZM331 665T227 665T123 517Q123 448 149 411T226 374T303
413T331 523Q331 665 227 665ZM593 364T669 364T785 317T825 181Q825 89 784 38T666 -13Q589 -13 549 36T508 177Q508 265 550 314ZM771 321T667 321T563 173Q563 104 589 67T666 30T743 69T771 179Q771 321 667 321Z" />
<glyph unicode="&amp;" glyph-name="ampersand" horiz-adv-x="611" d="M535 315Q533 275 521 229T492 151L620 0H540L459 99Q384 -14 251 -14Q157 -14 98 39T38 179Q38 308 214 396Q188 429 173 449T143 504T127 568Q127 631 171 671T287 711Q355 711 398 671T442
570Q442 510 404 467T302 383L452 198Q473 253 476 315H535ZM268 424Q382 489 382 566Q382 606 354 633T285 660Q242 660 214 634T186 569Q186 542 198 518T235 465T268 424ZM248 356Q171 307 147 283Q101 237 101 180Q101 121 146 80T256 38Q359 38 423 141L248
356Z" />
<glyph unicode="&apos;" glyph-name="quotesingle" horiz-adv-x="278" d="M159 411H119L112 691H166L159 411Z" />
<glyph unicode="(" glyph-name="parenleft" horiz-adv-x="241" d="M242 -191H192Q120 -64 86 37T51 262Q51 377 89 504T192 718H242Q114 514 114 261Q114 18 242 -191Z" />
<glyph unicode=")" glyph-name="parenright" horiz-adv-x="241" d="M192 262Q192 139 158 38T51 -191H1Q129 18 129 261Q129 514 1 718H51Q116 631 154 504T192 262Z" />
<glyph unicode="*" glyph-name="asterisk" horiz-adv-x="352" d="M325 606L208 567L280 469L249 445L175 546L102 446L69 470L141 567L27 606L40 644L155 603V725H196V603L311 644L325 606Z" />
<glyph unicode="+" glyph-name="plus" horiz-adv-x="600" d="M272 0V217H51V266H272V483H326V266H548V217H326V0H272Z" />
<glyph unicode="," glyph-name="comma" horiz-adv-x="278" d="M181 103V29Q181 -37 164 -78T93 -138V-96Q137 -78 138 0H99V103H181Z" />
<glyph unicode="-" glyph-name="hyphen" horiz-adv-x="370" d="M311 305V244H60V305H311Z" />
<glyph unicode="." glyph-name="period" horiz-adv-x="278" d="M181 103V0H99V103H181Z" />
<glyph unicode="/" glyph-name="slash" horiz-adv-x="333" d="M350 729L38 -17H-15L298 729H350Z" />
<glyph unicode="0" glyph-name="zero" horiz-adv-x="556" d="M277 703Q522 703 522 340Q522 -16 278 -16T34 335Q34 703 277 703ZM278 647Q231 647 197 626T144 573T115 496T102 414T99 333Q99 38 278 38Q456 38 456 342Q456 647 278 647Z" />
<glyph unicode="1" glyph-name="one" horiz-adv-x="556" d="M345 698V0H279V520H98V568Q136 569 153 570T195 576T231 588T257 610T279 645T294 698H345Z" />
<glyph unicode="2" glyph-name="two" horiz-adv-x="556" d="M497 56V0H36Q38 28 42 52T58 99T78 137T107 173T138 203T175 232T213 258T256 287Q292 311 306 320T350 354T393 398T418 445T430 505Q430 570 388 609T275 649Q190 649 153 596T115 457H53V466Q53
577 113 640T278 704Q376 704 435 650T494 506Q494 477 486 450T468 402T436 358T401 321T356 286T313 256T267 226Q228 201 214 191T170 157T126 108T107 55Q111 55 116 55T124 56H497Z" />
<glyph unicode="3" glyph-name="three" horiz-adv-x="556" d="M50 475Q51 583 111 643T277 703Q371 703 429 654T487 524Q487 467 456 426T369 372Q438 358 475 314T512 201Q512 104 446 44T271 -16Q162 -16 98 44T33 207V223H94V220Q94 135 141 87T273 39Q350
39 399 82T448 194Q448 273 397 307T264 341Q245 341 230 340V393H256Q308 393 340 404Q423 435 423 521Q423 580 383 615T274 650Q198 650 155 605T109 475H50Z" />
<glyph unicode="4" glyph-name="four" horiz-adv-x="556" d="M517 226V174H411V0H353V174H30V233L358 700H411V226H517ZM353 226V502Q353 569 354 617Q244 446 81 226H353Z" />
<glyph unicode="5" glyph-name="five" horiz-adv-x="556" d="M474 691V635H171L121 393Q176 463 280 463Q380 463 444 397T509 228Q509 124 441 55T268 -15Q164 -15 101 43T36 200H98Q102 126 147 82T268 38Q344 38 394 91T445 224Q445 306 395 357T267 409Q166
409 112 328L56 330L125 691H474Z" />
<glyph unicode="6" glyph-name="six" horiz-adv-x="556" d="M503 522H440Q431 582 393 616T293 651Q245 651 209 629T154 576T123 498T107 415T101 332Q129 391 179 422T296 454Q394 454 457 389T520 224Q520 120 454 52T286 -16Q223 -16 172 12T89 91Q41 169
41 328Q41 510 106 607T295 705Q383 705 437 658T503 522ZM284 401Q211 401 163 351T115 223Q115 143 163 91T286 39T407 90T455 220Q455 300 408 350T284 401Z" />
<glyph unicode="7" glyph-name="seven" horiz-adv-x="556" d="M502 691V634Q379 504 305 342T218 0H150Q159 170 238 339T441 632H51V691H502Z" />
<glyph unicode="8" glyph-name="eight" horiz-adv-x="556" d="M180 378Q126 393 96 432T66 528Q66 609 124 658T278 707T431 659T489 532Q489 414 376 378Q442 364 480 318T518 203Q518 103 454 45T277 -13Q168 -13 103 44T38 197Q38 267 75 314T180 378ZM278
651Q209 651 169 617T128 525Q128 468 169 435T278 401Q347 401 387 434T427 526Q427 585 388 618T278 651ZM276 351Q197 351 150 309T102 199Q102 127 150 84T278 40T405 83T453 199Q453 268 405 309T276 351Z" />
<glyph unicode="9" glyph-name="nine" horiz-adv-x="556" d="M52 167H113Q122 108 163 74T265 39Q430 39 448 294Q450 317 450 346V365Q397 236 258 236Q160 236 97 301T34 467Q34 571 100 638T267 706Q394 706 460 606Q512 526 512 363Q512 255 492 180Q467 86
408 36T264 -15Q175 -15 117 34T52 167ZM265 651Q193 651 146 600T98 470Q98 391 145 342T266 292Q341 292 388 341T436 469Q436 548 388 599T265 651Z" />
<glyph unicode=":" glyph-name="colon" horiz-adv-x="278" d="M181 103V0H99V103H181ZM181 501V398H99V501H181Z" />
<glyph unicode=";" glyph-name="semicolon" horiz-adv-x="278" d="M181 501V398H99V501H181ZM181 103V29Q181 -37 164 -78T93 -138V-96Q137 -78 138 0H99V103H181Z" />
<glyph unicode="&lt;" glyph-name="less" horiz-adv-x="600" d="M48 233V287L545 487V433L110 260L545 88V35L48 233Z" />
<glyph unicode="=" glyph-name="equal" horiz-adv-x="600" d="M51 320V368H548V320H51ZM51 137V185H548V137H51Z" />
<glyph unicode="&gt;" glyph-name="greater" horiz-adv-x="600" d="M552 233L55 35V88L490 260L55 433V487L552 287V233Z" />
<glyph unicode="?" glyph-name="question" horiz-adv-x="537" d="M49 490Q49 593 105 659T270 726Q363 726 420 675T478 542Q478 508 470 481T440 425T406 385T358 339Q316 299 306 270T295 176H235Q235 260 253 296T336 396Q344 404 349 409Q412 472 412 538Q412
597 373 634T269 671Q188 671 149 619T110 490H49ZM302 100V0H227V100H302Z" />
<glyph unicode="@" glyph-name="at" horiz-adv-x="800" d="M704 118L724 92Q579 -13 419 -13Q256 -13 143 85T30 344Q30 506 146 615T436 724Q584 724 677 642T770 430Q770 325 710 248T567 170Q533 170 512 189T491 239Q491 249 498 276Q444 170 351 170Q292
170 255 211T218 317Q218 413 277 485T415 557Q465 557 497 532T538 462L562 543H612L555 353Q532 278 532 249Q532 229 545 217T580 205Q639 205 687 274T735 430Q735 545 652 617T435 689Q278 689 172 590T66 343Q66 198 169 110T420 22Q571 22 704 118ZM513
426Q513 469 489 495T426 522Q369 522 323 459T277 318Q277 266 301 236T365 205Q409 205 444 245T496 334T513 426Z" />
<glyph unicode="A" glyph-name="A" horiz-adv-x="630" d="M354 714L638 0H563L477 224H151L64 0H-9L279 714H354ZM456 279L316 650L172 279H456Z" />
<glyph unicode="B" glyph-name="B" horiz-adv-x="667" d="M72 712H377Q473 712 536 668T600 534Q600 477 565 433T477 377Q543 364 585 322T628 204Q628 105 560 53T387 0H72V712ZM138 654V397H364Q435 397 484 427T533 525Q533 565 518 592T473 632T415 649T346
654H138ZM138 342V58H351Q394 58 426 63T491 82T542 127T560 203Q560 246 542 275T489 318T422 337T347 342H138Z" />
<glyph unicode="C" glyph-name="C" horiz-adv-x="704" d="M671 273Q660 141 577 63T365 -16Q217 -16 128 85T39 355Q39 513 127 621T371 729Q479 729 564 666T662 498H594Q578 577 517 623T369 670Q251 670 179 584T106 355T177 128T367 42Q470 42 531 105T604 273H671Z" />
<glyph unicode="D" glyph-name="D" horiz-adv-x="685" d="M71 712H329Q489 712 568 620T647 369Q647 207 570 104T335 0H71V712ZM139 654V58H318Q579 58 579 365Q579 501 515 577T329 654H139Z" />
<glyph unicode="E" glyph-name="E" horiz-adv-x="593" d="M566 712V654H140V397H539V340H140V58H570V0H72V712H566Z" />
<glyph unicode="F" glyph-name="F" horiz-adv-x="537" d="M525 712V654H138V398H482V340H138V0H71V712H525Z" />
<glyph unicode="G" glyph-name="G" horiz-adv-x="741" d="M683 362V0H638L626 101L624 133Q592 62 527 23T374 -17Q225 -17 132 84T39 349Q39 517 132 622T377 727Q492 727 574 665T673 492H608Q593 574 529 621T378 669Q254 669 180 582T106 350Q106 209 180
125T377 40Q472 40 538 95T619 243Q623 271 623 306H379V362H683Z" />
<glyph unicode="H" glyph-name="H" horiz-adv-x="704" d="M632 712V0H565V344H139V0H71V712H139V402H565V712H632Z" />
<glyph unicode="I" glyph-name="I" horiz-adv-x="222" d="M145 712V0H77V712H145Z" />
<glyph unicode="J" glyph-name="J" horiz-adv-x="500" d="M430 712V193Q430 -16 229 -16Q121 -16 73 39T24 202Q24 216 25 230H90V209Q90 124 118 82T229 40Q309 40 336 84T363 211V712H430Z" />
<glyph unicode="K" glyph-name="K" horiz-adv-x="648" d="M643 712L322 421L659 0H572L274 375L138 251V0H71V712H138V329L553 712H643Z" />
<glyph unicode="L" glyph-name="L" horiz-adv-x="537" d="M541 58V0H73V712H141V58H541Z" />
<glyph unicode="M" glyph-name="M" horiz-adv-x="833" d="M763 712V0H698V430Q698 534 706 654Q685 588 659 525L449 0H388L175 519Q153 572 128 650Q136 533 136 432V0H71V712H163L370 204Q380 179 419 70Q424 83 440 130T466 202L670 712H763Z" />
<glyph unicode="N" glyph-name="N" horiz-adv-x="704" d="M632 712V0H557L226 478Q160 574 132 630Q137 559 137 460V0H71V712H146L479 229Q535 148 572 80Q567 237 567 268V712H632Z" />
<glyph unicode="O" glyph-name="O" horiz-adv-x="741" d="M370 729Q519 729 612 625T706 354Q706 188 613 86T369 -17Q219 -17 127 86T35 356T127 626T370 729ZM369 670Q250 670 177 584T103 358Q103 215 176 129T370 42T564 128T638 355T564 583T369 670Z" />
<glyph unicode="P" glyph-name="P" horiz-adv-x="630" d="M75 712H380Q483 712 543 661T604 512Q604 410 543 357T378 304H143V0H75V712ZM143 654V361H359Q438 361 487 396T536 507Q536 581 491 617T366 654H143Z" />
<glyph unicode="Q" glyph-name="Q" horiz-adv-x="741" d="M701 -5L667 -48L555 37Q485 -18 371 -18Q221 -18 128 84T35 352Q35 519 128 622T370 726T612 623T705 355Q705 177 600 72L701 -5ZM549 110Q638 209 638 356Q638 495 564 581T370 667Q251 667 177 581T103
354Q102 211 176 126T374 40Q448 40 503 78L409 149L444 192L549 110Z" />
<glyph unicode="R" glyph-name="R" horiz-adv-x="667" d="M72 712H394Q495 712 555 665T616 520Q616 451 580 406T477 344Q542 332 569 295T602 183Q602 181 603 156T605 113T610 70T620 27T636 0H559Q550 11 546 39T540 111T538 158Q531 255 491 286T349 318H140V0H72V712ZM140
654V372H341Q385 372 417 377T481 396T531 440T549 516Q549 654 372 654H140Z" />
<glyph unicode="S" glyph-name="S" horiz-adv-x="630" d="M569 507H503Q499 586 447 627T305 669Q221 669 174 634T127 535Q127 512 132 495T152 464T179 443T220 426T265 413T319 400Q359 391 384 385T441 369T492 349T533 324T565 291T583 249T591 194Q591 121
551 72T452 4T323 -15Q190 -15 115 50T39 229V235H104Q104 138 163 89T328 40Q420 40 473 79T526 187Q526 254 476 282T285 344Q240 354 219 360T161 381T108 413T76 461T62 531Q62 621 128 673T310 726Q426 726 495 671T569 507Z" />
<glyph unicode="T" glyph-name="T" horiz-adv-x="556" d="M562 712V654H312V0H244V654H-6V712H562Z" />
<glyph unicode="U" glyph-name="U" horiz-adv-x="685" d="M620 712V267Q620 129 552 57T346 -15Q206 -15 136 57T65 269V712H133V286Q133 163 179 103T347 42Q409 42 450 59T513 110T543 186T552 287V712H620Z" />
<glyph unicode="V" glyph-name="V" horiz-adv-x="593" d="M601 712L337 0H258L-9 712H67L253 200Q279 128 298 58Q304 76 319 124T344 199L529 712H601Z" />
<glyph unicode="W" glyph-name="W" horiz-adv-x="907" d="M904 712L707 0H634L489 501Q461 600 453 648Q445 622 433 573T414 503L272 0H198L1 712H72L205 218Q218 169 238 71Q249 133 274 218L415 712H492L636 211Q663 118 670 71Q674 87 684 135T702 210L836 712H904Z" />
<glyph unicode="X" glyph-name="X" horiz-adv-x="574" d="M569 712L326 366L583 0H501L323 255Q302 285 296 296T285 316Q280 311 273 300T256 275T244 256L64 0H-14L245 366L2 712H82L241 484Q250 471 264 447T285 413Q310 449 331 485L494 712H569Z" />
<glyph unicode="Y" glyph-name="Y" horiz-adv-x="611" d="M622 712L340 294V0H273V294L-10 712H71L270 414Q276 405 282 395T297 371T309 351Q326 383 345 411L545 712H622Z" />
<glyph unicode="Z" glyph-name="Z" horiz-adv-x="574" d="M552 712V653L82 58H562V0H5V61L475 654H38V712H552Z" />
<glyph unicode="[" glyph-name="bracketleft" horiz-adv-x="241" d="M238 722V673H135V-134H238V-184H76V722H238Z" />
<glyph unicode="\" glyph-name="backslash" horiz-adv-x="333" d="M350 -17H297L-15 729H37L350 -17Z" />
<glyph unicode="]" glyph-name="bracketright" horiz-adv-x="241" d="M165 722V-184H3V-134H106V672H3V722H165Z" />
<glyph unicode="^" glyph-name="asciicircum" horiz-adv-x="600" d="M106 297L274 712H327L494 297H437L299 649L164 297H106Z" />
<glyph unicode="_" glyph-name="underscore" horiz-adv-x="500" d="M0 -125V-75H500V-125H0Z" />
<glyph unicode="`" glyph-name="grave" horiz-adv-x="185" d="M47 734L151 593H101L-33 734H47Z" />
<glyph unicode="a" glyph-name="a" horiz-adv-x="519" d="M511 51V3Q488 -5 461 -5Q420 -5 407 20T394 89Q329 -14 200 -14Q121 -14 77 24T32 130Q32 269 223 289Q233 290 251 291T277 294T299 296T319 299T335 302T350 306T362 310T373 316Q391 328 391 365Q391
426 357 451T257 476Q192 476 158 447T117 355H57Q61 438 115 483T264 528Q352 528 402 490T453 380V100Q453 80 454 72T462 56T487 48Q500 48 511 51ZM391 280Q382 270 362 264T324 254T266 246Q256 245 251 244Q219 240 199 235T152 219T112 187T98 136Q98 91
130 65T216 38Q289 38 340 81T391 196V280Z" />
<glyph unicode="b" glyph-name="b" horiz-adv-x="574" d="M122 712V417Q145 471 193 500T305 530Q410 530 472 456T535 258Q535 132 472 59T302 -15Q236 -15 188 14T118 100V0H61V712H122ZM296 477Q215 477 168 418T120 257T168 96T297 36Q376 36 423 96T471 257T424
417T296 477Z" />
<glyph unicode="c" glyph-name="c" horiz-adv-x="519" d="M491 184Q478 94 422 40T274 -15Q166 -15 101 58T36 252Q36 378 101 453T276 529Q365 529 420 482T487 352H423Q398 477 277 477Q196 477 149 418T101 257T147 97T271 37Q336 37 377 75T428 184H491Z" />
<glyph unicode="d" glyph-name="d" horiz-adv-x="574" d="M512 712V0H455V101Q432 44 384 15T270 -15Q163 -15 101 58T38 257Q38 381 100 455T268 529Q402 529 451 418V712H512ZM275 477Q196 477 149 418T101 258Q101 156 148 96T276 36Q358 36 405 95T453 257Q453
349 408 413T275 477Z" />
<glyph unicode="e" glyph-name="e" horiz-adv-x="519" d="M488 169Q471 82 414 33T268 -17Q161 -17 97 56T32 251T97 450T267 528Q376 528 434 451T493 260V242H96Q96 153 139 94T270 34Q397 34 427 169H488ZM430 293Q425 379 381 427T265 476Q187 476 147 425T96
293H430Z" />
<glyph unicode="f" glyph-name="f" horiz-adv-x="259" d="M272 713V660Q251 663 230 663Q208 663 194 658T172 647T161 625T157 599T156 565V514H259V463H156V0H93V463H5V514H93V573Q93 646 122 681T224 717Q243 717 272 713Z" />
<glyph unicode="g" glyph-name="g" horiz-adv-x="556" d="M496 514V28Q496 -202 266 -202Q172 -202 117 -162T57 -47H120Q135 -153 269 -153Q360 -153 398 -106T437 33V119Q385 6 259 6Q157 6 97 75T36 261Q36 382 98 455T264 528Q386 528 439 417V514H496ZM344
474T267 474T145 418T99 266Q99 172 144 116T265 60Q344 60 390 117T436 273Q436 365 390 419Z" />
<glyph unicode="h" glyph-name="h" horiz-adv-x="537" d="M122 712Q122 456 121 417Q176 527 299 527Q388 527 433 479T479 340V0H416V332Q416 474 284 474Q201 474 162 418T122 271V0H60V712H122Z" />
<glyph unicode="i" glyph-name="i" horiz-adv-x="185" d="M124 715V612H61V715H124ZM124 514V0H61V514H124Z" />
<glyph unicode="j" glyph-name="j" horiz-adv-x="185" d="M127 514V-34Q127 -77 124 -102T109 -151T71 -186T3 -197Q-7 -197 -28 -194V-142Q-17 -143 -4 -143Q23 -143 35 -139T56 -111T65 -40V514H127ZM127 716V613H65V716H127Z" />
<glyph unicode="k" glyph-name="k" horiz-adv-x="500" d="M493 514L273 325L508 0H429L224 282L122 195V0H62V712H122V263L409 514H493Z" />
<glyph unicode="l" glyph-name="l" horiz-adv-x="185" d="M124 712V0H62V712H124Z" />
<glyph unicode="m" glyph-name="m" horiz-adv-x="833" d="M120 514V424Q153 476 193 502T291 528Q347 528 385 502T438 428Q491 528 609 528Q679 528 726 488T774 367V0H711V350Q711 472 592 472Q524 472 487 430T449 315V0H387V345Q387 472 274 472Q199 472 162
422T124 292V0H61V514H120Z" />
<glyph unicode="n" glyph-name="n" horiz-adv-x="537" d="M119 514V417Q151 474 193 501T301 528Q381 528 430 484T479 350V0H416V330Q416 473 285 473Q211 473 167 424T123 278V0H60V514H119Z" />
<glyph unicode="o" glyph-name="o" horiz-adv-x="556" d="M279 529Q390 529 455 455T521 255Q521 130 456 58T279 -15T101 58T34 257Q34 381 100 455T279 529ZM360 476T278 476T147 417T98 257Q98 155 146 96T280 37Q362 37 410 96T458 256T409 416Z" />
<glyph unicode="p" glyph-name="p" horiz-adv-x="574" d="M120 514V415Q176 529 304 529Q409 529 472 454T536 255Q536 133 473 59T306 -16Q176 -16 124 95V-192H63V514H120ZM377 477T296 477T169 418T122 256Q122 155 169 96T298 37Q377 37 424 96T472 255Q472
356 425 416Z" />
<glyph unicode="q" glyph-name="q" horiz-adv-x="574" d="M511 514V-191H449Q449 14 450 96Q398 -14 266 -14Q161 -14 100 58T38 255Q38 381 101 455T272 530Q400 530 453 416V514H511ZM276 478Q196 478 149 418T101 255Q101 155 148 97T275 38Q356 38 403 97T451
259T405 419T276 478Z" />
<glyph unicode="r" glyph-name="r" horiz-adv-x="315" d="M323 522V458Q319 458 314 458T306 459Q248 459 203 426T142 337Q130 290 130 210V0H68V514H127V391Q160 462 203 491T323 522Z" />
<glyph unicode="s" glyph-name="s" horiz-adv-x="481" d="M429 364H368Q359 476 229 476Q174 476 142 453T109 391Q109 372 116 358T132 336T163 319T202 307T256 294Q289 286 309 281T358 264T405 237T434 198T447 142Q447 71 391 28T243 -16Q144 -16 89 32T32
168H93Q93 104 133 70T245 36Q308 36 346 63T385 136Q385 160 373 178T339 206T298 223T254 235Q247 236 244 237Q237 239 212 244T177 252T145 262T113 275T88 292T65 315T52 345T46 383Q46 450 96 489T235 528T376 486T429 364Z" />
<glyph unicode="t" glyph-name="t" horiz-adv-x="296" d="M265 514V463H159V137Q159 111 160 101T166 76T186 56T224 51Q238 51 265 54V0Q234 -4 210 -4Q117 -4 103 55Q97 80 97 168V463H6V514H97V671H159V514H265Z" />
<glyph unicode="u" glyph-name="u" horiz-adv-x="537" d="M475 514V0H417V95Q360 -15 236 -15Q154 -15 107 32T59 172V514H122V199Q122 119 151 80T252 40Q327 40 370 94T413 230V514H475Z" />
<glyph unicode="v" glyph-name="v" horiz-adv-x="463" d="M459 514L270 0H202L4 514H71L191 201Q205 163 238 62Q268 158 285 206L396 514H459Z" />
<glyph unicode="w" glyph-name="w" horiz-adv-x="741" d="M733 514L566 0H498L396 338Q383 382 370 439Q356 381 344 338L244 0H174L7 514H75L173 201Q182 174 209 68Q239 188 243 203L335 514H407L505 188Q514 159 534 68Q550 136 565 186L668 514H733Z" />
<glyph unicode="x" glyph-name="x" horiz-adv-x="481" d="M460 514L278 274L481 0H401L264 188L238 227Q227 209 212 189L76 0H1L200 270L16 514H96L207 364Q212 356 223 340T239 316Q268 358 272 364L386 514H460Z" />
<glyph unicode="y" glyph-name="y" horiz-adv-x="463" d="M460 514L258 -19Q220 -121 192 -158T106 -195Q81 -195 51 -190V-135Q79 -142 96 -142Q134 -142 153 -114T198 -17Q203 -3 206 4L-1 514H68L207 160Q215 139 238 69Q264 154 269 167L396 514H460Z" />
<glyph unicode="z" glyph-name="z" horiz-adv-x="463" d="M432 514V470L92 53H446V0H16V51L350 461H38V514H432Z" />
<glyph unicode="{" glyph-name="braceleft" horiz-adv-x="333" d="M4 288Q143 288 143 438V514Q143 620 183 668T328 723V688Q254 684 228 647T202 533V468Q202 427 198 399T181 341T141 295T73 271Q116 263 143 246T183 201T198 145T202 73V18Q202 -67 227 -104T328
-146V-181Q218 -174 181 -124T143 41V104Q143 182 113 213T4 253V288Z" />
<glyph unicode="|" glyph-name="bar" horiz-adv-x="222" d="M84 -214V786H138V-214H84Z" />
<glyph unicode="}" glyph-name="braceright" horiz-adv-x="333" d="M328 253Q249 245 219 214T189 104V41Q189 -73 152 -123T4 -181V-146Q80 -142 105 -105T130 18V73Q130 117 133 144T149 200T188 246T259 271Q218 277 191 294T152 341T135 398T130 468V533Q130
610 104 647T4 688V723Q109 717 149 669T189 514V438Q189 288 328 288V253Z" />
<glyph unicode="~" glyph-name="asciitilde" horiz-adv-x="600" d="M562 320Q557 265 527 228T444 191Q405 191 308 224Q303 226 265 239T204 259T161 265Q130 265 107 242T79 182H40Q51 242 77 277T161 313Q201 313 316 273Q320 271 344 263T379 250T410 242T443
238Q508 238 526 320H562Z" />
</font>
</defs>
</svg>
