<?xml version="1.0" standalone="no"?> <!DOCTYPE svg PUBLIC "-//W3C//DTD SVG 1.0//EN" "http://www.w3.org/TR/2001/REC-SVG-20010904/DTD/svg10.dtd" > <svg xmlns="http://www.w3.org/2000/svg" width="100%" height="100%">
<defs >
<font horiz-adv-x="417" ><font-face
    font-family="HeliosThin"
    units-per-em="1000"
    panose-1="4 0 2 0 0 0 0 0 0 0"
    ascent="726"
    descent="-208"
    alphabetic="0" />
<missing-glyph horiz-adv-x="500" />
<glyph unicode=" " glyph-name="space" horiz-adv-x="262" />
<glyph unicode="!" glyph-name="exclam" horiz-adv-x="311" d="M145 181L136 726H173L169 181H145ZM140 0V89H174V0H140Z" />
<glyph unicode="&quot;" glyph-name="quotedbl" horiz-adv-x="261" d="M50 707H85V435H50V707ZM176 707H211V435H176V707Z" />
<glyph unicode="#" glyph-name="numbersign" horiz-adv-x="777" d="M404 717H452L363 466H498L587 717H633L546 466H706L695 430H531L481 286H657L646 250H469L381 1H333L422 250H286L197 1H151L239 250H71L82 286H251L303 430H119L130 466H315L404 717ZM350 430L300
286H434L484 430H350Z" />
<glyph unicode="$" glyph-name="dollar" horiz-adv-x="527" d="M244 376V678Q174 676 135 639T96 536Q96 473 131 435T244 376ZM244 -84V-14Q148 -5 97 52T45 206V209H77Q80 39 244 19V342Q151 366 107 412T63 533Q63 613 112 661T244 710V755H274V710Q365 709
414 664T465 535H436Q425 678 277 678H274V369Q482 333 482 179Q482 1 274 -14V-84H244ZM274 19Q358 27 402 68T447 177Q447 241 405 279T274 335V19Z" />
<glyph unicode="%" glyph-name="percent" horiz-adv-x="735" d="M72 571Q72 520 108 484T195 448T283 484T320 571T284 658T195 694Q144 694 108 659T72 571ZM41 572Q41 637 86 682T195 727T304 682T349 572Q349 508 305 463T195 418Q131 418 86 463T41 572ZM148
-16L551 727H586L182 -16H148ZM385 74T385 138T430 247T540 292Q604 292 649 247T694 138T649 29T540 -16T431 29ZM416 138Q416 87 452 51T540 15T627 51T663 138T627 225T540 261Q488 261 452 226T416 138Z" />
<glyph unicode="&amp;" glyph-name="ampersand" horiz-adv-x="615" d="M267 434Q402 492 402 589Q402 637 370 667T290 697Q244 697 213 668T182 596Q182 527 267 434ZM475 125L257 394Q89 335 89 195Q89 117 141 64T269 10Q397 10 475 125ZM576 0L497 96Q402
-21 278 -21Q178 -21 117 39T55 194Q55 340 236 421Q149 527 149 591Q149 650 189 688T294 726Q355 726 394 688T433 589Q433 476 287 410L494 152Q533 230 533 327H564Q562 205 516 126L618 0H576Z" />
<glyph unicode="&apos;" glyph-name="quotesingle" horiz-adv-x="136" d="M51 707H85V435H51V707Z" />
<glyph unicode="(" glyph-name="parenleft" horiz-adv-x="291" d="M288 -223H254Q98 11 98 260Q98 506 242 723H278Q131 515 131 264Q131 11 288 -223Z" />
<glyph unicode=")" glyph-name="parenright" horiz-adv-x="291" d="M6 -223Q164 13 164 264T17 723H53Q197 506 197 260Q197 12 40 -223H6Z" />
<glyph unicode="*" glyph-name="asterisk" horiz-adv-x="504" d="M170 441L144 461L232 571L103 606L115 641L239 595L235 726H269L265 595L388 641L401 606L272 571L359 461L334 441L251 554L170 441Z" />
<glyph unicode="+" glyph-name="plus" horiz-adv-x="841" d="M406 602H436V316H716V286H436V0H406V286H125V316H406V602Z" />
<glyph unicode="," glyph-name="comma" horiz-adv-x="262" d="M67 -106L139 87H174L102 -106H67Z" />
<glyph unicode="-" glyph-name="hyphen" horiz-adv-x="390" d="M70 316H320V294H70V316Z" />
<glyph unicode="." glyph-name="period" horiz-adv-x="262" d="M115 0V87H147V0H115Z" />
<glyph unicode="/" glyph-name="slash" horiz-adv-x="294" d="M272 745H307L21 -85H-14L272 745Z" />
<glyph unicode="0" glyph-name="zero" horiz-adv-x="527" d="M40 167T40 343T98 612T263 706T428 613T487 343T428 73T263 -21T99 73ZM74 505T74 343T123 96T264 10T404 95T453 343T404 590T264 675T124 590Z" />
<glyph unicode="1" glyph-name="one" horiz-adv-x="526" d="M276 0V599Q215 529 109 529H100V558Q256 561 276 685H309V0H276Z" />
<glyph unicode="2" glyph-name="two" horiz-adv-x="527" d="M51 0V49Q51 118 75 156Q108 210 220 280Q242 294 282 317T347 357T388 391Q437 441 437 513Q437 587 393 630T276 673Q199 673 153 627T106 501V490H71V499Q71 594 127 649T276 704Q364 704 418 652T473
516Q473 438 433 392T300 290Q180 219 131 172T82 59Q82 40 84 30H469V0H51Z" />
<glyph unicode="3" glyph-name="three" horiz-adv-x="527" d="M47 208H81V205Q81 113 127 64T256 14Q340 14 393 62T446 186Q446 346 234 346H213V375Q218 375 226 375T237 374Q327 374 376 416T425 531Q425 597 383 635T264 673Q186 673 142 628T98 503V498H67V501Q67
598 120 651T271 704Q356 704 408 657T460 532Q460 471 429 426T343 363Q408 349 444 303T481 191Q481 97 419 39T257 -19Q158 -19 103 39T47 203V208Z" />
<glyph unicode="4" glyph-name="four" horiz-adv-x="527" d="M371 213V629L82 213H371ZM370 0V182H48V215L373 685H402V213H480V182H402V0H370Z" />
<glyph unicode="5" glyph-name="five" horiz-adv-x="527" d="M49 176H81Q89 95 134 53T254 10Q342 10 393 64T444 210Q444 296 393 348T259 400Q159 400 100 327H73L130 685H450V655H156L113 380Q172 429 265 429Q359 429 418 368T478 206Q478 103 418 41T256
-21Q167 -21 113 31T49 176Z" />
<glyph unicode="6" glyph-name="six" horiz-adv-x="527" d="M471 534H439Q419 672 282 672Q82 672 82 334Q82 301 83 283Q102 360 152 402T275 445Q367 445 423 383T480 213Q480 107 422 43T276 -21Q48 -21 48 326Q48 704 288 704Q367 704 415 660T471 534ZM445
119T445 213T398 361T274 415T149 360T101 214Q101 121 147 67T269 12Q348 12 396 65Z" />
<glyph unicode="7" glyph-name="seven" horiz-adv-x="527" d="M156 0Q207 364 427 653H59V685H468V652Q255 397 189 0H156Z" />
<glyph unicode="8" glyph-name="eight" horiz-adv-x="527" d="M178 376Q73 421 73 529Q73 608 125 656T263 705Q350 705 401 657T453 529Q453 424 349 376Q482 333 482 195Q482 97 422 39T260 -20Q165 -20 105 39T45 191Q45 330 178 376ZM109 532Q109 467 151
428T263 389T375 428T418 532Q418 595 376 635T263 675T151 636T109 532ZM80 196Q80 115 131 65T263 15T395 65T447 194Q447 271 398 315T263 359T129 316T80 196Z" />
<glyph unicode="9" glyph-name="nine" horiz-adv-x="527" d="M56 149H88Q108 11 245 11Q445 11 445 349Q445 382 444 400Q425 323 375 281T252 238Q160 238 104 300T48 470T105 640T251 704Q480 704 480 357Q480 -21 239 -21Q160 -21 112 23T56 149ZM82 564T82
470T129 322T253 268T378 323T427 469Q427 562 380 616T258 671Q179 671 131 618Z" />
<glyph unicode=":" glyph-name="colon" horiz-adv-x="286" d="M126 0V87H159V0H126ZM126 404V491H159V404H126Z" />
<glyph unicode=";" glyph-name="semicolon" horiz-adv-x="287" d="M64 -106L135 87H171L98 -106H64ZM137 404V492H170V404H137Z" />
<glyph unicode="&lt;" glyph-name="less" horiz-adv-x="841" d="M711 548V514L184 301L711 88V54L130 291V311L711 548Z" />
<glyph unicode="=" glyph-name="equal" horiz-adv-x="841" d="M125 404H716V374H125V404ZM125 229H716V199H125V229Z" />
<glyph unicode="&gt;" glyph-name="greater" horiz-adv-x="841" d="M130 548L711 311V291L130 54V88L656 301L130 514V548Z" />
<glyph unicode="?" glyph-name="question" horiz-adv-x="467" d="M206 179Q207 236 217 281Q221 301 232 319T252 349T281 380Q287 386 308 405T346 443T378 482Q403 516 403 563Q403 633 359 671T234 709T109 661T64 524V520H31Q31 625 86 683T240 742Q329 742
383 694T437 567Q437 507 404 459Q388 436 370 417T330 379T304 355Q256 309 249 273Q241 234 238 179H206ZM203 0V87H242V0H203Z" />
<glyph unicode="@" glyph-name="at" horiz-adv-x="1010" d="M637 357Q614 460 517 460Q440 460 388 391T336 220Q336 161 365 128T446 95Q503 95 546 131T605 229L637 357ZM589 157Q566 113 528 89T446 64Q291 64 291 223Q291 336 358 413T518 491Q615 491 645
404L676 471H708L640 201Q628 153 628 142Q628 95 690 95Q765 95 822 157Q861 198 884 258T907 384Q907 516 808 599T545 683Q379 683 266 590Q107 462 107 251Q107 90 217 -8T509 -106Q678 -106 820 -11L831 -28Q689 -134 514 -134Q326 -134 210 -45Q63 66 63
259Q63 420 160 537Q303 712 549 712Q713 712 820 630Q947 533 947 383Q947 213 829 119Q760 65 680 65Q587 65 587 134Q587 141 589 157Z" />
<glyph unicode="A" glyph-name="A" horiz-adv-x="580" d="M135 278H450L294 687L135 278ZM-6 0L275 727H313L589 0H556L462 248H123L28 0H-6Z" />
<glyph unicode="B" glyph-name="B" horiz-adv-x="624" d="M117 31H297Q416 31 460 49Q502 66 525 105T549 200Q549 288 489 326T298 365H117V31ZM117 391H286Q401 391 457 429T513 549Q513 633 459 664T284 696H117V391ZM83 0V727H281Q416 727 469 695Q547 650
547 547Q547 488 515 446T423 381Q584 350 584 194Q584 143 562 101T502 36Q445 0 304 0H83Z" />
<glyph unicode="C" glyph-name="C" horiz-adv-x="687" d="M634 241Q627 123 551 54T353 -15Q211 -15 131 84T51 362Q51 543 133 643T359 743Q470 743 546 680T632 516H598Q582 609 518 660T353 712Q232 712 159 619T86 362Q86 199 156 107T348 15Q459 15 527 75T601
241H634Z" />
<glyph unicode="D" glyph-name="D" horiz-adv-x="696" d="M83 0V727H250Q413 727 483 691Q644 612 644 363Q644 239 603 156T483 36Q410 0 250 0H83ZM118 31H258Q406 31 474 67Q608 139 608 363Q608 548 512 633Q470 671 412 683T258 695H118V31Z" />
<glyph unicode="E" glyph-name="E" horiz-adv-x="573" d="M83 0V727H526V694H117V394H491V363H117V33H536V0H83Z" />
<glyph unicode="F" glyph-name="F" horiz-adv-x="528" d="M83 0V727H507V694H117V394H462V363H117V0H83Z" />
<glyph unicode="G" glyph-name="G" horiz-adv-x="717" d="M632 0V143Q553 -16 368 -16Q223 -16 138 85T53 363T137 641T368 743Q488 743 562 685T651 521H617Q599 613 535 662T368 712Q240 712 164 619T88 363T164 108T368 15Q488 15 558 87T629 286V318H389V348H661V0H632Z"
/>
<glyph unicode="H" glyph-name="H" horiz-adv-x="692" d="M82 0V727H117V403H576V727H610V0H576V373H117V0H82Z" />
<glyph unicode="I" glyph-name="I" horiz-adv-x="209" d="M88 0V727H122V0H88Z" />
<glyph unicode="J" glyph-name="J" horiz-adv-x="478" d="M368 727H402V212Q402 96 358 40T216 -17Q131 -17 85 34T38 184Q38 211 39 227H71Q71 220 71 210T70 197Q70 104 106 59T219 14Q304 14 336 64T368 222V727Z" />
<glyph unicode="K" glyph-name="K" horiz-adv-x="587" d="M82 0V727H117V318L520 727H563L276 436L607 0H566L254 412L117 273V0H82Z" />
<glyph unicode="L" glyph-name="L" horiz-adv-x="514" d="M84 0V727H118V33H503V0H84Z" />
<glyph unicode="M" glyph-name="M" horiz-adv-x="781" d="M83 0V727H131L391 43L651 727H698V0H668V684L406 0H374L113 684V0H83Z" />
<glyph unicode="N" glyph-name="N" horiz-adv-x="688" d="M82 0V727H117L572 58V727H606V0H572L116 668V0H82Z" />
<glyph unicode="O" glyph-name="O" horiz-adv-x="749" d="M53 186T53 363T139 641T374 743Q524 743 610 642T696 363T610 85T374 -16T139 85ZM88 526T88 363T164 108T374 15T584 107T661 363T585 619T374 712T164 619Z" />
<glyph unicode="P" glyph-name="P" horiz-adv-x="581" d="M256 696H117V366H255Q381 366 424 385Q462 402 484 442T507 538Q507 630 434 670Q387 696 256 696ZM281 727Q413 727 477 681T542 535Q542 447 488 391Q454 357 407 347T278 336H117V0H83V727H281Z" />
<glyph unicode="Q" glyph-name="Q" horiz-adv-x="749" d="M447 127L467 150L559 77Q661 171 661 363Q661 526 585 619T374 713T164 620T88 363Q88 199 163 108T374 16Q471 16 532 57L447 127ZM660 -48L558 36Q486 -16 367 -16Q222 -16 138 85T53 363Q53 541 138
642T374 743Q523 743 609 643T696 371Q696 166 583 56L681 -24L660 -48Z" />
<glyph unicode="R" glyph-name="R" horiz-adv-x="628" d="M117 374H341Q438 374 488 415T538 534Q538 606 497 649Q468 679 431 687T324 695H117V374ZM83 0V727H324Q453 727 512 684T572 537Q572 398 441 358Q532 340 543 233Q546 201 548 158T551 90T559 41T576
0H539Q536 4 534 9T529 20T526 32T523 47T521 63T520 82T519 102T517 125T516 149Q516 153 515 170T514 192T512 211T510 229T507 245T503 262T498 275T491 290T482 302Q446 344 341 344H117V0H83Z" />
<glyph unicode="S" glyph-name="S" horiz-adv-x="579" d="M115 433Q64 480 64 553Q64 638 123 690T282 743Q384 743 449 684T514 530H482Q482 614 426 664T280 714Q194 714 145 670T96 553Q96 496 141 455Q166 432 214 416Q232 410 303 391T402 360Q471 334 502
296T534 193Q534 99 469 42T293 -16Q187 -16 121 47T46 222H79Q85 126 143 71T294 15T443 62T500 184Q500 243 474 276T387 332Q360 342 292 361T201 388Q140 409 115 433Z" />
<glyph unicode="T" glyph-name="T" horiz-adv-x="515" d="M243 0V695H13V727H503V695H277V0H243Z" />
<glyph unicode="U" glyph-name="U" horiz-adv-x="677" d="M77 727H111V270Q111 144 169 80T339 15Q449 15 508 80T567 270V727H601V254Q601 127 531 56T339 -16Q215 -16 146 55T77 254V727Z" />
<glyph unicode="V" glyph-name="V" horiz-adv-x="531" d="M249 0L-3 727H33L266 50L498 727H534L281 0H249Z" />
<glyph unicode="W" glyph-name="W" horiz-adv-x="832" d="M202 0L8 727H42L220 61L396 727H437L613 61L790 727H824L630 0H596L416 679L236 0H202Z" />
<glyph unicode="X" glyph-name="X" horiz-adv-x="536" d="M1 0L248 372L12 727H52L268 400L483 727H521L288 373L535 0H496L266 343L39 0H1Z" />
<glyph unicode="Y" glyph-name="Y" horiz-adv-x="536" d="M251 0V322L1 727H40L269 356L495 727H534L284 320V0H251Z" />
<glyph unicode="Z" glyph-name="Z" horiz-adv-x="535" d="M9 0V34L476 695H49V727H512V692L46 31H525V0H9Z" />
<glyph unicode="[" glyph-name="bracketleft" horiz-adv-x="305" d="M287 -208H116V726H287V695H152V-177H287V-208Z" />
<glyph unicode="\" glyph-name="backslash" horiz-adv-x="294" d="M-14 746H21L307 -84H272L-14 746Z" />
<glyph unicode="]" glyph-name="bracketright" horiz-adv-x="305" d="M22 -208V-177H157V695H22V726H193V-208H22Z" />
<glyph unicode="^" glyph-name="asciicircum" horiz-adv-x="1010" d="M480 718H528L799 446H745L505 684L264 446H210L480 718Z" />
<glyph unicode="_" glyph-name="underscore" horiz-adv-x="504" d="M0 -210H504V-240H0V-210Z" />
<glyph unicode="`" glyph-name="grave" horiz-adv-x="505" d="M309 590H277L152 752H206L309 590Z" />
<glyph unicode="a" glyph-name="a" horiz-adv-x="512" d="M499 -2Q494 -2 485 -3T471 -5Q435 -5 419 18T402 90Q371 42 317 15T191 -12Q121 -12 78 29T35 136Q35 208 84 243T244 294Q262 297 286 299T322 303T350 308T373 314T389 322T399 336T402 355V399Q402
452 366 480T261 509Q182 509 137 475T88 379H58Q61 452 114 495T258 538Q370 538 411 477Q434 446 434 369V114Q434 62 442 43T480 23Q485 23 499 25V-2ZM402 301Q390 285 315 276Q307 275 291 273Q275 271 267 270Q161 257 115 229T68 141Q68 83 102 52T200 20Q289
20 350 71Q382 99 392 132T402 224V301Z" />
<glyph unicode="b" glyph-name="b" horiz-adv-x="578" d="M70 0V726H102V405Q157 537 300 537Q406 537 468 463T531 261Q531 132 469 59T300 -14Q162 -14 102 112V0H70ZM102 261Q102 146 155 81T300 15T445 80T499 261Q499 377 445 442T300 508T156 443T102 261Z" />
<glyph unicode="c" glyph-name="c" horiz-adv-x="525" d="M479 170Q470 85 414 36T272 -13Q169 -13 107 60T45 262T107 463T275 537Q358 537 410 493T474 372H442Q432 435 387 471T275 508Q184 508 131 443T77 262T130 81T275 16Q344 16 392 58T449 170H479Z" />
<glyph unicode="d" glyph-name="d" horiz-adv-x="578" d="M507 726V0H476V117Q425 -14 278 -14Q171 -14 109 59T47 261Q47 389 109 463T278 537Q349 537 401 503T476 410V726H507ZM476 261Q476 377 423 442T278 508T133 443T79 261Q79 146 133 81T278 15T422 80T476 261Z" />
<glyph unicode="e" glyph-name="e" horiz-adv-x="529" d="M476 155Q459 79 402 33T266 -13Q165 -13 105 60T44 262T104 463T266 537Q368 537 427 469T486 279V260H77V252Q77 144 130 80T266 16Q331 16 379 53T445 155H476ZM78 289H452Q452 390 402 449T272 508Q189
508 137 450T78 289Z" />
<glyph unicode="f" glyph-name="f" horiz-adv-x="245" d="M224 703Q221 703 215 703T206 704Q161 704 148 682T134 599V525H222V495H134V0H103V495H30V525H103V598Q103 673 122 702T200 731Q215 731 224 730V703Z" />
<glyph unicode="g" glyph-name="g" horiz-adv-x="578" d="M476 115Q450 54 398 21T276 -13Q171 -13 109 60T47 263T109 465T278 538Q350 538 402 504T476 409V525H507V31Q507 -20 501 -53T474 -118Q412 -209 264 -209Q175 -209 122 -167T68 -54H98Q101 -113 146
-146T272 -180Q402 -180 453 -92Q464 -72 469 -46T475 1T476 61V115ZM476 147T476 263T423 444T278 509T133 444T79 263T133 82T278 17T422 82Z" />
<glyph unicode="h" glyph-name="h" horiz-adv-x="527" d="M70 0V727H102V439Q154 537 279 537Q459 537 459 348V0H427V338Q427 426 393 467T280 508Q193 508 145 454Q117 423 110 385T102 281V0H70Z" />
<glyph unicode="i" glyph-name="i" horiz-adv-x="177" d="M73 642V727H105V642H73ZM73 0V525H105V0H73Z" />
<glyph unicode="j" glyph-name="j" horiz-adv-x="176" d="M73 524H105V-82Q105 -156 88 -183T11 -210H-8V-179H4Q52 -179 62 -159T73 -71V524ZM73 641V726H105V641H73Z" />
<glyph unicode="k" glyph-name="k" horiz-adv-x="463" d="M70 0V727H102V226L404 525H444L253 334L474 0H438L231 311L102 187V0H70Z" />
<glyph unicode="l" glyph-name="l" horiz-adv-x="177" d="M73 0V727H105V0H73Z" />
<glyph unicode="m" glyph-name="m" horiz-adv-x="825" d="M70 0V525H102V439Q154 537 266 537Q326 537 366 509T421 429Q475 537 592 537Q757 537 757 348V0H725V315Q725 403 710 439Q696 471 665 489T591 508Q513 508 469 454Q443 423 436 386T429 283V0H398V315Q398
403 383 439Q369 471 338 489T264 508Q187 508 141 454Q116 423 109 386T102 283V0H70Z" />
<glyph unicode="n" glyph-name="n" horiz-adv-x="527" d="M70 0V525H102V439Q154 537 279 537Q459 537 459 348V0H427V338Q427 426 393 467T280 508Q193 508 145 454Q117 423 110 385T102 281V0H70Z" />
<glyph unicode="o" glyph-name="o" horiz-adv-x="551" d="M45 134T45 262T107 463T275 537T443 464T506 262T444 61T275 -13T107 60ZM77 378T77 262T130 81T275 16T420 81T474 262T420 443T275 508T131 443Z" />
<glyph unicode="p" glyph-name="p" horiz-adv-x="578" d="M70 -208V525H102V405Q153 537 300 537Q407 537 469 464T531 262Q531 134 469 61T300 -13Q228 -13 177 20T102 115V-208H70ZM102 262Q102 146 155 81T300 16T445 81T499 262Q499 377 445 442T300 508T156
443T102 262Z" />
<glyph unicode="q" glyph-name="q" horiz-adv-x="578" d="M476 114Q452 52 401 19T278 -14Q172 -14 110 59T47 261Q47 390 109 463T278 537Q425 537 476 404V525H507V-208H476V114ZM79 261Q79 145 133 80T278 15T422 80T476 261Q476 376 423 442T278 508T133 442T79 261Z" />
<glyph unicode="r" glyph-name="r" horiz-adv-x="266" d="M70 0V525H102V431Q143 536 259 536V504Q170 500 136 442T102 255V0H70Z" />
<glyph unicode="s" glyph-name="s" horiz-adv-x="485" d="M107 307Q64 341 64 398Q64 458 113 497T244 537Q319 537 366 497T421 386H389Q372 508 240 508Q176 508 137 478T98 402Q98 360 122 338T200 299Q209 296 220 293T245 286T268 280Q359 257 398 227T437
136Q437 72 385 30T250 -13Q163 -13 110 32T49 157H81Q108 18 249 18Q319 18 361 50T404 137Q404 175 379 199T300 238Q293 240 266 247T231 256T203 264T173 273T150 282T126 294T107 307Z" />
<glyph unicode="t" glyph-name="t" horiz-adv-x="245" d="M129 115Q129 84 129 71T134 42T146 21T170 16H224V-13H170Q130 -13 114 9T97 82V497H5V525H97V668H129V525H224V497H129V115Z" />
<glyph unicode="u" glyph-name="u" horiz-adv-x="527" d="M456 525V0H424V82Q373 -14 248 -14Q68 -14 68 174V525H99V184Q99 96 133 56T247 16Q336 16 382 68Q410 99 417 136T424 241V525H456Z" />
<glyph unicode="v" glyph-name="v" horiz-adv-x="448" d="M203 0L8 525H41L221 38L408 525H441L239 0H203Z" />
<glyph unicode="w" glyph-name="w" horiz-adv-x="675" d="M179 0L13 525H46L196 50L321 525H350L478 50L630 525H662L495 0H462L335 468L212 0H179Z" />
<glyph unicode="x" glyph-name="x" horiz-adv-x="414" d="M32 0H-5L187 271L3 525H41L207 297L369 525H406L225 271L419 0H382L206 246L32 0Z" />
<glyph unicode="y" glyph-name="y" horiz-adv-x="441" d="M205 -79Q179 -149 154 -179T87 -210Q63 -210 50 -204V-173Q71 -179 88 -179Q133 -179 156 -119L201 -4L6 525H37L218 38L399 525H433L205 -79Z" />
<glyph unicode="z" glyph-name="z" horiz-adv-x="441" d="M17 0V38L381 495H37V525H413V487L50 30H424V0H17Z" />
<glyph unicode="{" glyph-name="braceleft" horiz-adv-x="504" d="M416 729V694H397Q325 694 303 666T280 559V440Q280 359 262 320T185 262Q243 244 261 205T280 84V-35Q280 -114 302 -142T397 -170H416V-204H399Q302 -204 271 -164T240 -16V101Q240 180 212
212T111 245Q108 245 100 245T88 244V280Q97 279 114 279Q184 279 212 312T240 423V540Q240 648 271 688T399 729H416Z" />
<glyph unicode="|" glyph-name="bar" horiz-adv-x="504" d="M234 772H270V-238H234V772Z" />
<glyph unicode="}" glyph-name="braceright" horiz-adv-x="505" d="M90 729H107Q203 729 234 689T265 540V423Q265 345 293 312T392 279Q409 279 418 280V244Q414 244 406 244T395 245Q323 245 294 213T265 101V-16Q265 -124 234 -164T107 -204H90V-169H110Q181
-169 203 -142T225 -35V84Q225 165 244 204T321 262Q263 280 244 319T225 440V559Q225 638 203 666T109 694H90V729Z" />
<glyph unicode="~" glyph-name="asciitilde" horiz-adv-x="841" d="M754 360V324Q651 251 563 251Q510 251 421 284Q417 285 401 291T380 299T361 306T340 312T321 316T299 320T279 321Q201 321 88 241V278Q190 352 279 352Q316 352 374 332Q387 327 421 315T471
298T514 287T563 281Q642 281 754 360Z" />
</font>
</defs>
</svg>
