<?xml version="1.0" standalone="no"?> <!DOCTYPE svg PUBLIC "-//W3C//DTD SVG 1.0//EN" "http://www.w3.org/TR/2001/REC-SVG-20010904/DTD/svg10.dtd" > <svg xmlns="http://www.w3.org/2000/svg" width="100%" height="100%">
<defs >
<font horiz-adv-x="345" ><font-face
    font-family="PF Din Text Comp Pro"
    units-per-em="1000"
    panose-1="2 0 8 6 0 0 0 2 0 4"
    ascent="750"
    descent="-250"
    alphabetic="0" />
<missing-glyph horiz-adv-x="437" d="M0 696H437V0H0V696ZM335 68L219 284L101 68H335ZM335 628H101L219 414L335 628ZM66 141L179 349L66 554V141ZM370 142V554L259 349L370 142Z" />
<glyph unicode=" " glyph-name="space" horiz-adv-x="215" />
<glyph unicode="!" glyph-name="exclam" horiz-adv-x="275" d="M194 203H81L71 696H204L194 203ZM74 0V139H202V0H74Z" />
<glyph unicode="&quot;" glyph-name="quotedbl" horiz-adv-x="310" d="M179 477V696H272V477H179ZM39 477V696H131V477H39Z" />
<glyph unicode="#" glyph-name="numbersign" horiz-adv-x="430" d="M4 302H72L92 404H40V499H107L141 695H239L204 499H274L309 695H407L371 499H425V404H355L338 302H391V207H320L284 0H187L223 207H152L117 0H19L56 207H4V302ZM170 302H240L259 404H188L170 302Z" />
<glyph unicode="$" glyph-name="dollar" horiz-adv-x="430" d="M400 205Q400 159 393 122T366 57T316 13T238 -5V-83H202V-5Q158 -3 127 12T77 51T48 106T39 173L175 199Q177 170 182 151T202 126V295Q151 316 120 338T72 386T50 441T44 504Q44 544 53 578T81
639T130 681T202 701V769H238V702Q286 700 317 683T367 640T392 585T400 527L266 498Q266 522 261 542T238 569V427Q289 403 320 381T370 334T394 278T400 205ZM266 204Q266 232 260 248T238 276V125Q257 132 261 155T266 204ZM179 505Q179 487 182 474T202 448V568Q188
560 184 541T179 505Z" />
<glyph unicode="%" glyph-name="percent" horiz-adv-x="657" d="M536 318Q536 323 532 329T519 336Q510 336 507 330T503 318V102Q503 97 507 92T520 86Q528 86 532 91T536 102V318ZM631 97Q631 51 600 25T521 -2Q473 -2 443 24T412 97V325Q412 371 443 397T521
423Q570 423 600 397T631 325V97ZM150 598Q150 603 146 609T133 616Q124 616 121 610T117 598V382Q117 377 121 372T134 366Q142 366 146 371T150 382V598ZM245 377Q245 331 214 305T135 278Q87 278 57 304T26 377V605Q26 651 57 677T135 703Q184 703 214 677T245
605V377ZM208 -17H127L441 714H522L208 -17Z" />
<glyph unicode="&amp;" glyph-name="ampersand" horiz-adv-x="499" d="M203 536Q203 516 214 489T243 430L336 258Q339 271 342 289T344 330H459Q460 279 447 229T414 141L493 0H348L328 35Q299 11 267 3T202 -6Q128 -6 86 45T43 183Q43 242 66 288T132 374L121
393Q104 423 92 458T80 537Q80 572 91 602T121 654T168 688T230 701Q288 701 333 676T404 591L297 535Q288 560 272 571T242 583Q219 583 211 568T203 536ZM194 265Q169 228 169 187Q169 158 182 136T219 114Q233 114 247 119T271 133L194 265Z" />
<glyph unicode="&apos;" glyph-name="quotesingle" horiz-adv-x="200" d="M57 477V696H149V477H57Z" />
<glyph unicode="(" glyph-name="parenleft" horiz-adv-x="296" d="M56 308Q56 369 67 426T97 535T141 634T195 724L280 683Q256 641 237 594T205 499T184 404T177 312Q177 214 204 114T277 -66L205 -114Q139 -21 98 83T56 308Z" />
<glyph unicode=")" glyph-name="parenright" horiz-adv-x="296" d="M280 308Q280 187 239 83T131 -114L59 -66Q104 14 131 114T159 312Q159 356 152 403T132 499T99 594T56 683L141 724Q169 682 194 635T239 535T269 426T280 308Z" />
<glyph unicode="*" glyph-name="asterisk" horiz-adv-x="394" d="M330 404L259 354L196 459L131 353L60 404L138 502L25 533L53 615L162 570L151 695H240L229 571L337 615L367 533L250 502L330 404Z" />
<glyph unicode="+" glyph-name="plus" horiz-adv-x="430" d="M268 243V92H159V243H19V354H159V505H268V354H408V243H268Z" />
<glyph unicode="," glyph-name="comma" horiz-adv-x="234" d="M123 -153H47L80 -4H51V150H187V-1L123 -153Z" />
<glyph unicode="-" glyph-name="hyphen" horiz-adv-x="383" d="M49 216V336H345V216H49Z" />
<glyph unicode="." glyph-name="period" horiz-adv-x="229" d="M47 0V150H182V0H47Z" />
<glyph unicode="/" glyph-name="slash" horiz-adv-x="289" d="M101 -42H0L187 725H288L101 -42Z" />
<glyph unicode="0" glyph-name="zero" horiz-adv-x="430" d="M380 154Q380 117 368 88T334 37T283 5T219 -6Q184 -6 154 5T102 37T68 87T56 154V541Q56 578 68 608T103 659T154 691T219 702Q291 702 335 659T380 541V154ZM247 546Q247 559 239 566T219 574Q208
574 199 567T189 546V149Q189 137 198 130T219 122Q230 122 238 129T247 149V546Z" />
<glyph unicode="1" glyph-name="one" horiz-adv-x="430" d="M194 0V537L103 466V615L207 696H327V0H194Z" />
<glyph unicode="2" glyph-name="two" horiz-adv-x="430" d="M54 0V120L225 437Q238 461 241 482T245 529Q245 543 239 558T215 573Q209 573 202 570T190 558T180 533T176 492L44 508Q44 558 57 594T94 655T149 690T215 702Q304 702 343 655T383 529Q383 482 373
448T340 370L214 131H374V0H54Z" />
<glyph unicode="3" glyph-name="three" horiz-adv-x="430" d="M325 358Q357 343 369 312T381 252V183Q381 96 336 45T203 -6Q26 -6 35 189L170 205Q167 178 170 162T179 137T192 126T205 123Q216 123 229 131T242 167V250Q242 279 226 291T190 303H160V417H198Q218
417 232 428T247 465V531Q247 545 240 558T215 572Q208 572 201 569T189 558T180 533T176 491L44 507Q44 553 57 589T95 651T151 689T220 702Q266 702 297 688T346 650T373 598T381 541V500Q381 481 380 461T372 423T355 389T325 363V358Z" />
<glyph unicode="4" glyph-name="four" horiz-adv-x="430" d="M357 98V0H226V98H23V209L172 696H304L163 226H226V350H357V226H396V98H357Z" />
<glyph unicode="5" glyph-name="five" horiz-adv-x="430" d="M384 183Q384 92 342 43T211 -6Q132 -6 89 42T51 189L180 205Q177 178 179 162T187 138T200 127T213 124Q224 124 234 132T245 167V316Q245 344 217 344Q209 344 196 338T174 308H63V696H374V569H189V443L192
442Q203 454 223 460T257 466Q325 466 354 428T384 330V183Z" />
<glyph unicode="6" glyph-name="six" horiz-adv-x="430" d="M245 404Q260 412 282 412Q298 412 316 407T349 387T375 346T385 276V178Q385 143 378 110T352 51T301 10T217 -6Q176 -6 147 6T97 39T68 88T58 149V211Q58 248 61 283T77 353L204 696H351L240 408L245
404ZM250 281Q250 295 241 302T220 309Q209 309 201 302T192 281V150Q192 137 200 130T220 123Q231 123 240 130T250 150V281Z" />
<glyph unicode="7" glyph-name="seven" horiz-adv-x="430" d="M210 0H75L240 569H177V502H55V696H382V580L210 0Z" />
<glyph unicode="8" glyph-name="eight" horiz-adv-x="430" d="M328 362Q347 353 357 338T372 305T378 267T379 227V170Q379 84 337 39T218 -6Q174 -6 143 8T92 46T63 101T54 168V203Q54 222 55 245T61 290T77 331T109 362L108 368Q89 378 79 393T63 427T56 466T55
505V535Q55 567 65 597T95 650T145 688T216 702Q258 702 289 689T339 654T368 601T378 537V505Q378 485 377 465T371 425T355 391T325 367L328 362ZM245 547Q245 558 237 566T217 574Q207 574 197 566T187 547V441Q187 430 196 422T217 414Q229 414 237 422T245
441V547ZM245 288Q245 299 237 307T217 315Q205 315 196 307T187 288V148Q187 137 196 130T217 122Q229 122 237 129T245 148V288Z" />
<glyph unicode="9" glyph-name="nine" horiz-adv-x="430" d="M193 292Q178 284 156 284Q140 284 122 287T89 304T63 345T53 421V518Q53 553 60 586T86 645T137 686T221 702Q261 702 291 690T341 657T370 608T380 547V485Q380 448 377 413T361 343L234 0H87L198
288L193 292ZM188 415Q188 401 197 394T218 387Q229 387 237 394T246 415V546Q246 559 238 566T218 573Q207 573 198 566T188 546V415Z" />
<glyph unicode=":" glyph-name="colon" horiz-adv-x="229" d="M47 259V409H182V259H47ZM47 0V150H182V0H47Z" />
<glyph unicode=";" glyph-name="semicolon" horiz-adv-x="234" d="M123 -153H47L80 -4H51V150H187V-1L123 -153ZM51 259V409H186V259H51Z" />
<glyph unicode="&lt;" glyph-name="less" horiz-adv-x="430" d="M407 66L19 256V347L410 538V406L163 301L407 198V66Z" />
<glyph unicode="=" glyph-name="equal" horiz-adv-x="430" d="M19 335V446H408V335H19ZM19 156V267H408V156H19Z" />
<glyph unicode="&gt;" glyph-name="greater" horiz-adv-x="430" d="M23 198L267 301L20 406V538L411 347V256L23 66V198Z" />
<glyph unicode="?" glyph-name="question" horiz-adv-x="416" d="M390 516Q390 490 388 471T383 436T373 408T360 382L309 292Q301 279 298 265T294 228V191H161V268Q161 291 168 312T187 352Q209 388 221 411T240 452T247 483T248 516Q248 534 239 553T205 572Q189
572 174 555T159 493L28 508Q32 602 79 652T213 702Q306 702 348 654T390 516ZM163 0V139H291V0H163Z" />
<glyph unicode="@" glyph-name="at" horiz-adv-x="811" d="M455 184Q436 158 409 147T355 136Q325 136 305 146T273 173T256 213T251 261Q251 286 258 309T282 350T324 378T385 389H424V418Q424 433 418 440T394 448Q386 448 376 441T360 410L262 443Q278 496
314 524T405 552Q472 552 504 524T537 424V263Q537 243 548 234T571 224Q584 224 599 230T626 253T647 301T656 382Q656 437 642 483T598 562T524 613T420 632Q350 632 300 608T218 542T170 448T154 336Q154 188 223 110T412 32Q456 32 494 42T581 78L620 -5Q571
-28 520 -42T417 -57Q338 -57 273 -34T160 37T86 159T60 336Q60 418 84 488T153 611T265 692T417 722Q505 722 568 695T673 622T733 513T753 382Q753 314 736 267T691 189T628 146T556 132Q549 132 536 134T509 143T481 158T459 183L455 184ZM424 314H400Q386 314
375 304T363 268Q363 251 371 243T394 235Q408 235 416 246T424 274V314Z" />
<glyph unicode="A" glyph-name="A" horiz-adv-x="449" d="M276 136H174L153 0H9L141 696H307L440 0H297L276 136ZM207 375L193 264H256L243 375L228 516H222L207 375Z" />
<glyph unicode="B" glyph-name="B" horiz-adv-x="446" d="M264 498Q264 539 249 552T201 566H187V428H204Q264 428 264 498ZM270 226Q270 268 256 285T212 302H187V131H211Q230 131 241 138T259 159T268 189T270 226ZM318 364Q342 356 357 341T382 307T396 264T400
217Q400 105 351 53T205 0H51V696H208Q301 696 347 647T394 502Q394 481 390 461T376 422T353 390T318 369V364Z" />
<glyph unicode="C" glyph-name="C" horiz-adv-x="427" d="M226 702Q317 702 360 658T404 542Q404 537 404 533T403 523L272 500Q271 531 259 551T225 572Q211 572 203 567T189 553T182 536T180 519V164Q180 150 187 137T220 124Q240 124 252 142T266 196L401 178Q400
95 355 45T225 -6Q131 -6 88 38T45 170V519Q45 602 89 652T226 702Z" />
<glyph unicode="D" glyph-name="D" horiz-adv-x="446" d="M259 505Q259 534 250 549T208 565H187V131H208Q240 131 249 146T259 191V505ZM235 696Q297 696 333 675T383 602Q392 570 393 503T395 349Q395 263 394 199T381 103Q362 44 321 22T226 0H52V696H235Z" />
<glyph unicode="E" glyph-name="E" horiz-adv-x="394" d="M51 0V696H370V566H187V419H347V288H187V131H370V0H51Z" />
<glyph unicode="F" glyph-name="F" horiz-adv-x="394" d="M187 566V419H347V288H187V0H51V696H370V566H187Z" />
<glyph unicode="G" glyph-name="G" horiz-adv-x="440" d="M233 702Q280 702 314 689T371 651T403 594T410 523L279 500Q278 531 266 551T232 572Q218 572 210 567T196 553T189 536T187 519V164Q187 150 194 137T227 124Q247 124 260 134T273 162V269H226V388H408V169Q408
83 362 39T232 -6Q138 -6 95 38T52 170V519Q52 602 98 652T233 702Z" />
<glyph unicode="H" glyph-name="H" horiz-adv-x="459" d="M274 0V288H187V0H51V696H187V420H274V696H409V0H274Z" />
<glyph unicode="I" glyph-name="I" horiz-adv-x="242" d="M53 0V696H189V0H53Z" />
<glyph unicode="J" glyph-name="J" horiz-adv-x="381" d="M330 696V169Q330 87 284 41T153 -6Q106 -6 65 17T-5 86L96 164Q109 145 125 135T152 125Q175 125 185 141T195 171V696H330Z" />
<glyph unicode="K" glyph-name="K" horiz-adv-x="446" d="M194 481L289 696H434L289 408L449 0H308L211 267L187 204V0H51V696H187V481H194Z" />
<glyph unicode="L" glyph-name="L" horiz-adv-x="378" d="M51 0V696H187V131H370V0H51Z" />
<glyph unicode="M" glyph-name="M" horiz-adv-x="582" d="M246 136L217 225L185 328H180V0H45V696H172L241 510L288 372H294L342 513L410 696H537V0H401V325H397L364 217L337 136H246Z" />
<glyph unicode="N" glyph-name="N" horiz-adv-x="481" d="M301 367V696H434V0H318L236 203L188 335H183V0H48V696H167L249 494L296 367H301Z" />
<glyph unicode="O" glyph-name="O" horiz-adv-x="445" d="M262 532Q262 555 251 565T222 575Q205 575 193 565T181 532V164Q181 140 193 131T222 121Q239 121 250 130T262 164V532ZM400 170Q400 80 355 37T222 -6Q45 -6 45 170V527Q45 617 92 659T222 702Q313
702 356 660T400 527V170Z" />
<glyph unicode="P" glyph-name="P" horiz-adv-x="428" d="M216 696Q260 696 295 686T356 651T396 585T410 481Q410 374 365 315T219 255H187V0H51V696H216ZM187 566V386H210Q223 386 235 389T258 403T274 433T280 482Q280 528 262 547T212 566H187Z" />
<glyph unicode="Q" glyph-name="Q" horiz-adv-x="446" d="M403 170Q403 129 392 96L454 50L391 -28L328 16Q288 -6 225 -6Q48 -6 48 170V527Q48 617 95 659T225 702Q316 702 359 660T403 527V170ZM265 529Q265 552 254 562T225 572Q208 572 196 562T184 529V167Q184
143 196 134T225 124Q242 124 253 133T265 167V529Z" />
<glyph unicode="R" glyph-name="R" horiz-adv-x="446" d="M216 696Q259 696 295 686T357 651T397 587T412 490Q412 419 393 374T335 302L435 0H296L214 271H187V0H51V696H216ZM187 566V402H208Q223 402 236 405T259 419T276 445T282 489Q282 529 263 547T212 566H187Z" />
<glyph unicode="S" glyph-name="S" horiz-adv-x="427" d="M397 205Q397 157 389 118T360 52T304 9T216 -6Q168 -6 134 8T78 46T46 103T36 173L172 199Q174 161 183 142T219 123Q234 123 242 130T255 148T261 174T263 204Q263 225 260 239T250 263T229 280T197
296Q146 317 115 339T68 387T46 441T41 504Q41 547 51 583T82 646T138 687T222 702Q274 702 308 686T361 644T389 587T397 527L263 498Q263 513 262 526T255 549T242 566T218 572Q204 572 196 566T184 550T178 528T176 505Q176 491 178 480T188 459T211 440T255
419Q303 400 331 379T373 333T392 277T397 205Z" />
<glyph unicode="T" glyph-name="T" horiz-adv-x="360" d="M247 566V0H111V566H4V696H354V566H247Z" />
<glyph unicode="U" glyph-name="U" horiz-adv-x="445" d="M401 695V170Q401 80 356 37T223 -6Q46 -6 46 170V695H182V167Q182 143 194 134T223 124Q240 124 251 133T263 167V695H401Z" />
<glyph unicode="V" glyph-name="V" horiz-adv-x="447" d="M294 696H442L309 0H137L5 696H154L196 418L221 221H227L252 416L294 696Z" />
<glyph unicode="W" glyph-name="W" horiz-adv-x="641" d="M320 331L258 0H108L7 696H162L199 308H204L268 696H380L444 301H450L481 696H636L535 0H385L326 331H320Z" />
<glyph unicode="X" glyph-name="X" horiz-adv-x="450" d="M222 204L161 0H3L147 363L13 696H172L223 524H229L277 696H437L299 363L447 0H287L226 204H222Z" />
<glyph unicode="Y" glyph-name="Y" horiz-adv-x="414" d="M212 442L237 559L267 696H411L276 283V0H139V283L3 696H148L182 557L207 442H212Z" />
<glyph unicode="Z" glyph-name="Z" horiz-adv-x="360" d="M24 0V124L192 566H30V696H339V576L170 131H339V0H24Z" />
<glyph unicode="[" glyph-name="bracketleft" horiz-adv-x="259" d="M61 -102V697H243V600H183V-5H243V-102H61Z" />
<glyph unicode="\" glyph-name="backslash" horiz-adv-x="289" d="M0 725H101L288 -42H187L0 725Z" />
<glyph unicode="]" glyph-name="bracketright" horiz-adv-x="259" d="M16 -103V-6H76V600H16V697H197V-103H16Z" />
<glyph unicode="^" glyph-name="asciicircum" horiz-adv-x="430" d="M210 531L170 409L134 308H2L169 696H260L431 305H299L261 406L218 531H210Z" />
<glyph unicode="_" glyph-name="underscore" horiz-adv-x="500" d="M0 -160V-70H500V-160H0Z" />
<glyph unicode="`" glyph-name="grave" horiz-adv-x="385" d="M265 531L129 706L237 760L337 574L265 531Z" />
<glyph unicode="a" glyph-name="a" horiz-adv-x="408" d="M231 35Q220 17 197 6T152 -6Q116 -6 92 5T54 37T34 86T28 149Q28 179 37 206T65 255T114 288T187 301H236V343Q236 374 201 374Q191 374 180 367T163 333L42 372Q57 433 99 467T211 501Q294 501 333 464T373
343V0H236V34L231 35ZM236 208H208Q191 208 177 197T163 157Q163 138 174 130T201 121Q216 121 226 133T236 164V208Z" />
<glyph unicode="b" glyph-name="b" horiz-adv-x="401" d="M201 372Q182 372 175 352Q171 342 171 312T171 239V228Q171 202 171 179T174 148Q179 126 201 126Q212 126 219 133T226 148Q228 154 229 180T230 241Q230 274 229 305T226 349Q224 359 218 365T201 372ZM254
503Q285 503 304 496T334 477T352 449T363 416Q366 404 368 384T371 341T372 294T373 248Q373 210 372 178T368 128Q360 55 332 25T250 -6Q241 -6 231 -4T210 2T189 15T173 38L169 36V0H35V726H172V465H177Q183 474 193 481T214 493T236 500T254 503Z" />
<glyph unicode="c" glyph-name="c" horiz-adv-x="381" d="M201 -6Q163 -6 136 2T90 25T60 59T44 98Q41 110 39 128T36 166T35 206T34 245Q34 267 35 291T38 338T43 380T52 413Q67 453 104 478T202 503Q277 503 317 462T358 342L225 327Q225 353 218 364T199 376Q189
376 184 371T176 356Q173 348 172 317T170 243V228Q170 202 171 179T175 144Q180 122 199 122Q210 122 217 132T225 167L360 150Q360 77 318 36T201 -6Z" />
<glyph unicode="d" glyph-name="d" horiz-adv-x="411" d="M205 372Q194 372 188 366T180 349Q178 336 177 305T176 241Q176 206 177 180T180 148Q180 140 187 133T205 126Q227 126 232 148Q234 156 234 179T235 228V239Q234 281 234 311T231 352Q224 372 205 372ZM156
503Q169 503 190 497T229 473H234V726H371V0H237V36L233 38Q227 24 217 16T196 3T174 -4T154 -6Q101 -6 72 24T37 128Q35 142 35 176T34 248Q34 269 35 292T38 338T42 380T48 412Q51 425 56 441T74 471T105 494T156 503Z" />
<glyph unicode="e" glyph-name="e" horiz-adv-x="394" d="M170 220Q170 196 170 176T172 144Q177 122 197 122Q208 122 217 131T228 162L363 142Q359 74 317 34T201 -6Q163 -6 136 2T90 25T60 59T44 98Q41 110 39 128T36 166T35 206T34 245Q34 267 35 291T38 338T43
380T52 413Q67 453 104 478T201 503Q276 503 319 463T362 344V220H170ZM176 356Q174 351 173 337T171 303H225V345Q225 355 220 365T200 375Q182 375 176 356Z" />
<glyph unicode="f" glyph-name="f" horiz-adv-x="265" d="M194 388V0H57V388H13V494H57V584Q57 622 68 649T98 693T141 718T193 726H262V602H229Q215 602 205 592T194 565V494H265V388H194Z" />
<glyph unicode="g" glyph-name="g" horiz-adv-x="413" d="M153 0Q122 0 103 7T73 26T55 54T44 87Q41 99 39 117T36 158T35 203T34 247Q34 285 35 317T39 367Q47 440 75 470T157 501Q166 501 176 499T197 493T218 479T234 457L238 459V495H373V-20Q373 -113 330
-155T207 -197Q132 -197 90 -161T44 -50L176 -31Q178 -52 187 -61T208 -70Q222 -70 229 -61T236 -37V38H231Q225 29 215 22T193 10T171 3T153 0ZM206 131Q225 131 232 151Q236 161 236 187T237 256V267Q237 293 236 316T233 347Q228 369 206 369Q195 369 188 362T181
347Q179 341 178 315T177 254Q177 221 178 194T181 154Q183 144 189 138T206 131Z" />
<glyph unicode="h" glyph-name="h" horiz-adv-x="413" d="M184 455Q190 463 200 471T223 486T248 497T273 501Q307 501 326 490T356 461T370 420T373 370V0H236V335Q236 355 228 363T209 371Q197 371 188 361T179 332V0H42V726H179V456L184 455Z" />
<glyph unicode="i" glyph-name="i" horiz-adv-x="237" d="M50 566V696H187V566H50ZM50 0V494H187V0H50Z" />
<glyph unicode="j" glyph-name="j" horiz-adv-x="226" d="M46 566V696H183V566H46ZM183 -35Q183 -121 134 -158T-3 -195H-14V-67H3Q29 -67 37 -51T46 2V495H183V-35Z" />
<glyph unicode="k" glyph-name="k" horiz-adv-x="426" d="M183 377L254 494H417L284 301L420 0H257L187 172L176 155V0H40V725H176V378L183 377Z" />
<glyph unicode="l" glyph-name="l" horiz-adv-x="234" d="M194 -5Q114 -5 75 29T36 146V726H173V164Q173 138 182 129T206 120H218V-5H194Z" />
<glyph unicode="m" glyph-name="m" horiz-adv-x="607" d="M463 501Q497 501 517 491T549 464T563 425T567 376V0H430V335Q430 355 422 363T403 371Q392 371 384 363T373 337V0H236V335Q236 355 228 363T209 371Q197 371 188 361T179 332V0H42V495H179V454L184
453Q197 469 220 485T267 501Q310 501 331 485T362 443Q382 470 411 485T463 501Z" />
<glyph unicode="n" glyph-name="n" horiz-adv-x="413" d="M184 455Q197 472 221 486T268 501Q302 501 322 491T354 464T369 424T373 375V0H236V335Q236 355 228 363T209 371Q197 371 188 361T179 332V0H42V495H179V456L184 455Z" />
<glyph unicode="o" glyph-name="o" horiz-adv-x="401" d="M202 503Q265 503 301 478T352 416Q357 402 359 382T363 340T365 293T366 248V233Q366 206 366 180T362 128Q357 85 340 59T299 18T248 -2T194 -7Q159 -7 134 2T90 25T61 59T44 98Q41 110 39 128T36 166T35
206T34 245Q34 267 35 291T38 338T43 380T51 413Q66 453 104 478T202 503ZM202 376Q183 376 176 356Q172 346 172 316T170 243V228Q170 202 170 179T175 144Q180 122 202 122Q213 122 220 129T227 144Q229 150 230 180T232 245Q232 278 231 309T227 353Q225 363
219 369T202 376Z" />
<glyph unicode="p" glyph-name="p" horiz-adv-x="401" d="M201 123Q212 123 218 129T226 146Q228 159 229 190T230 254Q230 289 229 315T226 347Q226 355 219 362T201 369Q179 369 174 347Q172 339 172 316T171 267V256Q172 214 172 184T175 143Q182 123 201 123ZM251
-8Q238 -8 216 -3T177 20H172V-190H35V495H169V459L173 457Q179 470 189 479T210 492T232 499T252 501Q305 501 334 471T369 367Q371 353 371 319T372 247Q372 226 371 202T369 156T365 114T360 83Q357 69 351 54T333 24T302 1T251 -8Z" />
<glyph unicode="q" glyph-name="q" horiz-adv-x="414" d="M208 122Q227 122 234 142Q238 152 238 182T238 255V266Q238 292 238 315T235 346Q230 368 208 368Q197 368 190 361T183 346Q181 340 180 314T179 253Q179 220 180 189T183 145Q185 135 191 129T208 122ZM155
-9Q124 -9 105 -2T75 17T57 45T46 78Q43 90 41 110T38 153T37 200T36 246Q36 284 37 316T41 366Q49 439 77 469T159 500Q168 500 178 498T199 492T220 478T236 456L240 458V494H374V-191H237V29H232Q226 20 216 13T195 1T173 -6T155 -9Z" />
<glyph unicode="r" glyph-name="r" horiz-adv-x="316" d="M50 496H188V441H190Q209 479 236 490T297 501H308V366Q300 367 293 367T278 368Q235 368 212 348T188 275V0H50V496Z" />
<glyph unicode="s" glyph-name="s" horiz-adv-x="387" d="M158 162Q157 142 167 130T194 118Q207 118 216 127T226 149Q226 175 218 184T194 198Q165 208 137 217T85 242T47 284T32 353Q32 384 42 411T74 459T125 491T196 503Q277 503 317 462T358 352L228 335Q228
349 221 363T196 378Q180 378 174 368T167 350Q167 335 172 327T194 314Q230 303 260 292T312 263T347 218T360 149Q360 119 352 91T323 42T271 7T190 -6Q116 -6 73 31T27 143L158 162Z" />
<glyph unicode="t" glyph-name="t" horiz-adv-x="277" d="M189 0Q153 0 129 11T89 40T67 80T60 126V388H15V495H60V625H189V495H245V388H189V170Q189 161 190 153T195 139T208 128T233 124H245V0H189Z" />
<glyph unicode="u" glyph-name="u" horiz-adv-x="413" d="M232 40Q226 32 216 24T195 9T171 -2T146 -6Q112 -6 92 4T61 31T47 71T43 120V495H180V160Q180 140 188 132T207 124Q219 124 228 134T237 163V495H374V0H237V39L232 40Z" />
<glyph unicode="v" glyph-name="v" horiz-adv-x="397" d="M205 176L216 297L242 494H392L277 0H120L5 494H158L184 303L198 176H205Z" />
<glyph unicode="w" glyph-name="w" horiz-adv-x="582" d="M287 225L271 106L255 0H104L10 494H154L171 319L184 191H189L204 319L225 494H354L378 317L397 191H402L414 320L429 494H570L476 0H325L309 106L292 225H287Z" />
<glyph unicode="x" glyph-name="x" horiz-adv-x="405" d="M199 140L154 0H4L122 252L10 495H163L203 366H206L247 495H394L280 252L400 0H250L204 140H199Z" />
<glyph unicode="y" glyph-name="y" horiz-adv-x="382" d="M188 199L205 315L236 494H376L233 -70Q218 -129 182 -160T84 -192H38V-71H63Q79 -71 94 -60T118 -15L124 11L3 494H149L169 316L183 199H188Z" />
<glyph unicode="z" glyph-name="z" horiz-adv-x="350" d="M28 0V121L166 373H39V495H322V383L180 127H322V0H28Z" />
<glyph unicode="{" glyph-name="braceleft" horiz-adv-x="259" d="M131 298Q158 287 174 257T191 181V33Q191 18 195 10T204 -1T215 -6T225 -7H248V-103H179Q133 -103 102 -71T70 19V173Q70 219 54 239T11 262V343Q38 345 54 364T70 429V574Q70 631 101 663T179
696H248V600H224Q216 600 204 592T191 556V421Q191 380 175 350T130 305L131 298Z" />
<glyph unicode="|" glyph-name="bar" horiz-adv-x="259" d="M76 -162V730H183V-162H76Z" />
<glyph unicode="}" glyph-name="braceright" horiz-adv-x="259" d="M130 305Q101 319 85 349T69 421V556Q69 584 57 592T36 600H12V696H81Q127 696 158 664T190 574V429Q190 384 206 365T249 343V262Q223 260 207 240T190 173V19Q190 -38 159 -70T81 -103H12V-7H35Q39
-7 45 -6T56 -2T65 10T69 33V181Q69 226 85 256T129 298L130 305Z" />
<glyph unicode="~" glyph-name="asciitilde" horiz-adv-x="430" d="M144 393Q164 393 182 385T217 367T249 349T276 341Q309 341 347 394L421 350Q394 287 362 260T294 233Q273 233 254 241T218 258T185 276T155 284Q137 284 119 274T78 231L6 274Q32 332 64 362T144
393Z" />
</font>
</defs>
</svg>
