<?xml version="1.0" standalone="no"?> <!DOCTYPE svg PUBLIC "-//W3C//DTD SVG 1.0//EN" "http://www.w3.org/TR/2001/REC-SVG-20010904/DTD/svg10.dtd" > <svg xmlns="http://www.w3.org/2000/svg" width="100%" height="100%">
<defs >
<font horiz-adv-x="305" ><font-face
    font-family="PF Din Text Comp Pro"
    units-per-em="1000"
    panose-1="2 0 5 6 2 0 0 2 0 4"
    ascent="750"
    descent="-250"
    alphabetic="0" />
<missing-glyph horiz-adv-x="440" d="M0 700H440V0H0V700ZM360 650H80L220 395L360 650ZM390 95V605L250 350L390 95ZM360 50L220 305L80 50H360ZM50 95L190 350L50 605V95Z" />
<glyph unicode=" " glyph-name="space" horiz-adv-x="195" />
<glyph unicode="!" glyph-name="exclam" horiz-adv-x="228" d="M147 177H81L74 696H154L147 177ZM74 -1V79H154V-1H74Z" />
<glyph unicode="&quot;" glyph-name="quotedbl" horiz-adv-x="250" d="M153 503V696H213V503H153ZM38 503V696H98V503H38Z" />
<glyph unicode="#" glyph-name="numbersign" horiz-adv-x="380" d="M207 225H120L79 0H26L68 225H7V277H78L105 427H44V479H115L157 701H210L168 479H255L296 701H349L307 479H369V427H297L270 277H332V225H260L218 0H165L207 225ZM130 277H217L245 427H158L130 277Z" />
<glyph unicode="$" glyph-name="dollar" horiz-adv-x="380" d="M350 190Q350 148 343 113T318 53T274 12T207 -6V-94H169V-6Q93 -1 58 43T23 152L102 168Q102 133 116 105T169 70V327Q123 348 95 368T52 412T33 462T28 519Q28 594 62 643T169 701V780H207V701Q248
699 275 684T319 648T343 600T350 549L272 529Q272 571 257 596T207 626V396Q255 377 283 357T326 312T345 258T350 190ZM272 189Q272 216 270 234T261 265T241 289T207 310V70Q230 73 243 84T262 111T270 147T272 189ZM107 520Q107 502 108 488T116 461T134 437T169
414V625Q149 621 137 611T119 585T110 553T107 520Z" />
<glyph unicode="%" glyph-name="percent" horiz-adv-x="610" d="M578 80Q578 39 549 18T482 -4Q463 -4 446 1T415 17T393 43T385 80V335Q385 356 393 371T414 397T445 413T482 419Q520 419 549 398T578 335V80ZM516 333Q516 346 507 355T482 364Q466 364 457 355T447
333V83Q447 69 456 60T482 51Q497 51 506 60T516 83V333ZM225 359Q225 318 196 297T129 275Q110 275 93 280T62 296T40 322T32 359V614Q32 635 40 650T61 676T92 692T129 698Q167 698 196 677T225 614V359ZM163 612Q163 625 154 634T129 643Q113 643 104 634T94
612V362Q94 348 103 339T129 330Q144 330 153 339T163 362V612ZM177 -17H126L440 714H491L177 -17Z" />
<glyph unicode="&amp;" glyph-name="ampersand" horiz-adv-x="461" d="M211 701Q263 701 297 684T349 624L278 589Q262 630 213 630Q197 630 186 623T168 605T158 579T155 552Q155 526 166 494T199 422L328 199Q336 222 340 247T346 300H418Q416 260 406 212T376
123L448 0H357L324 56Q291 17 255 6T180 -6Q151 -6 126 6T81 42T50 97T39 170Q39 232 65 279T140 372Q132 384 126 396T115 417Q101 443 90 480T78 553Q78 584 87 611T114 658T156 689T211 701ZM177 308Q148 275 132 243T115 174Q115 152 120 133T137 98T163 75T199
66Q225 66 249 79T289 115L177 308Z" />
<glyph unicode="&apos;" glyph-name="quotesingle" horiz-adv-x="172" d="M57 503V696H118V503H57Z" />
<glyph unicode="(" glyph-name="parenleft" horiz-adv-x="210" d="M169 -110Q142 -70 118 -24T75 74T46 183T35 304Q35 368 45 425T74 534T116 631T167 717L205 699Q158 616 132 513T106 308Q106 199 132 96T204 -88L169 -110V-110Z" />
<glyph unicode=")" glyph-name="parenright" horiz-adv-x="210" d="M36 -88Q81 -7 107 96T134 308Q134 409 108 512T35 699L73 717Q100 677 124 632T166 535T194 426T205 304Q205 241 194 184T165 74T123 -24T71 -110L36 -88Z" />
<glyph unicode="*" glyph-name="asterisk" horiz-adv-x="351" d="M277 442L227 408L167 508L106 407L57 442L132 534L23 563L43 620L146 577L137 695H197L188 577L290 620L311 563L201 534L277 442Z" />
<glyph unicode="+" glyph-name="plus" horiz-adv-x="380" d="M220 264V100H161V264H9V324H161V488H220V324H372V264H220Z" />
<glyph unicode="," glyph-name="comma" horiz-adv-x="193" d="M93 -120H49L73 -8H52V89H139V-6L93 -120Z" />
<glyph unicode="-" glyph-name="hyphen" horiz-adv-x="346" d="M49 253V320H308V253H49Z" />
<glyph unicode="." glyph-name="period" horiz-adv-x="193" d="M52 0V91H139V0H52Z" />
<glyph unicode="/" glyph-name="slash" horiz-adv-x="256" d="M66 -42H6L192 725H252L66 -42Z" />
<glyph unicode="0" glyph-name="zero" horiz-adv-x="380" d="M331 127Q331 94 320 69T289 27T244 2T190 -7Q162 -7 137 1T92 27T61 69T49 127V566Q49 599 60 624T91 667T136 693T190 702Q252 702 291 667T331 566V127ZM252 569Q252 595 235 611T190 627Q163 627
146 611T128 569V124Q128 98 145 82T190 66Q217 66 234 82T252 124V569Z" />
<glyph unicode="1" glyph-name="one" horiz-adv-x="380" d="M201 0V613L100 532V616L199 696H280V0H201Z" />
<glyph unicode="2" glyph-name="two" horiz-adv-x="380" d="M191 627Q157 626 143 599T128 515V509L49 523V527Q49 567 57 599T82 654T127 689T193 702Q232 702 259 691T303 660T327 612T335 548Q335 465 297 388L141 73H330V0H51V69L232 430Q246 457 249 487T253
547Q253 561 251 575T243 601T225 620T191 627Z" />
<glyph unicode="3" glyph-name="three" horiz-adv-x="380" d="M329 143Q329 103 317 75T286 28T241 2T186 -7Q145 -7 118 5T74 38T51 88T47 154L126 165Q121 120 135 93T188 66Q214 66 232 82T251 140V245Q251 287 235 305T180 324H149V393H182Q219 393 235 410T251
467V556Q251 569 249 582T240 605T223 621T194 627Q159 627 143 601T126 530L47 541Q48 575 58 604T86 655T133 689T199 702Q236 702 261 691T301 660T323 614T330 560V489Q330 469 329 451T322 416T305 387T272 362V359Q292 350 303 339T321 312T328 277T330 233L329
143Z" />
<glyph unicode="4" glyph-name="four" horiz-adv-x="380" d="M307 110V0H228V110H23V181L169 696H247L100 181H228V374H307V181H356V110H307Z" />
<glyph unicode="5" glyph-name="five" horiz-adv-x="380" d="M187 -7Q146 -7 119 5T76 39T52 90T43 154L122 165Q122 143 124 125T133 94T153 74T189 66Q215 66 232 82T251 140V320Q251 379 193 379Q170 379 154 369T130 340H61V696H331V625H131V415H136Q151 430
173 437T218 445Q277 445 302 412T328 331V143Q328 103 317 75T287 28T242 2T187 -7Z" />
<glyph unicode="6" glyph-name="six" horiz-adv-x="380" d="M166 388Q187 404 218 404Q251 404 272 394T307 365T325 323T331 273V127Q331 94 320 69T289 27T244 2T190 -7Q162 -7 137 1T92 27T61 69T49 127V243Q49 288 55 318T70 371L199 696H279L163 391L166
388ZM252 277Q252 303 235 317T191 332Q173 332 161 326T142 309T131 285T128 259V121Q128 95 145 81T190 66Q217 66 234 80T252 121V277Z" />
<glyph unicode="7" glyph-name="seven" horiz-adv-x="380" d="M154 0H78L253 625H115V542H46V696H333V631L154 0Z" />
<glyph unicode="8" glyph-name="eight" horiz-adv-x="380" d="M331 474Q331 436 316 409T277 365Q301 348 316 321T331 255V127Q331 94 320 69T289 27T244 2T190 -7Q162 -7 137 1T92 27T61 69T49 127V255Q49 293 63 320T103 365Q78 382 64 409T49 474V566Q49 599
60 624T91 667T136 693T190 702Q218 702 243 693T288 667T319 625T331 566V474ZM252 273Q252 299 235 316T190 333Q163 333 146 316T128 273V121Q128 95 145 81T190 66Q217 66 234 80T252 121V273ZM252 572Q252 598 235 613T190 629Q163 629 146 614T128 572V458Q128
432 145 416T190 400Q217 400 234 416T252 458V572Z" />
<glyph unicode="9" glyph-name="nine" horiz-adv-x="380" d="M128 419Q128 393 145 378T189 362Q207 362 219 369T238 386T249 410T252 437V575Q252 601 235 615T190 630Q163 630 146 616T128 575V419ZM214 308Q193 292 162 292Q129 292 108 302T73 331T55 373T49
423V569Q49 602 60 627T91 669T136 694T190 703Q257 703 294 669T331 569V453Q331 408 325 378T310 325L181 0H101L217 305L214 308Z" />
<glyph unicode=":" glyph-name="colon" horiz-adv-x="193" d="M52 300V391H139V300H52ZM52 0V91H139V0H52Z" />
<glyph unicode=";" glyph-name="semicolon" horiz-adv-x="193" d="M93 -120H49L73 -8H52V89H139V-6L93 -120ZM52 300V391H139V300H52Z" />
<glyph unicode="&lt;" glyph-name="less" horiz-adv-x="380" d="M11 268V321L368 504V438L72 294L368 151V85L11 268Z" />
<glyph unicode="=" glyph-name="equal" horiz-adv-x="380" d="M9 341V404H372V341H9ZM9 188V251H372V188H9Z" />
<glyph unicode="&gt;" glyph-name="greater" horiz-adv-x="380" d="M12 85V151L308 294L12 438V504L369 321V268L12 85Z" />
<glyph unicode="?" glyph-name="question" horiz-adv-x="371" d="M349 533Q349 507 347 489T340 454T327 422T305 383L259 304Q251 291 246 277T240 246V177H162V260Q162 280 168 299T185 335Q212 378 228 404T253 449T265 485T268 528Q268 548 265 566T254 597T230
619T191 627Q159 627 137 605T115 532L35 541Q35 582 47 612T81 663T130 692T191 702Q275 702 312 658T349 533ZM161 0V80H239V0H161Z" />
<glyph unicode="@" glyph-name="at" horiz-adv-x="752" d="M486 259Q486 230 499 215T530 200Q551 200 568 207T598 234T618 290T625 383Q625 444 608 492T559 574T485 625T390 643Q321 643 271 619T188 554T141 456T125 335Q125 264 141 207T191 108T275 44T392
21Q441 21 479 29T561 64L586 7Q543 -13 496 -26T397 -39Q318 -39 256 -15T150 56T83 173T60 335Q60 417 81 485T144 601T247 676T387 703Q462 703 519 679T614 613T672 511T692 383Q692 314 679 268T644 193T591 152T526 139Q518 139 505 142T479 153T456 173T441
201L440 200Q428 178 399 163T337 148Q311 148 294 158T267 184T252 220T247 262Q247 284 252 306T271 347T305 376T357 388H421V440Q421 463 409 476T369 490Q352 490 336 481T317 450L255 466Q265 505 297 527T372 549Q421 549 453 525T486 441V259ZM421 333H374Q349
333 330 319T310 265Q310 241 323 225T366 209Q393 209 407 226T421 272V333Z" />
<glyph unicode="A" glyph-name="A" horiz-adv-x="395" d="M307 0L275 155H120L89 0H13L161 696H235L385 0H307ZM195 554L166 392L133 229H261L227 394L199 554H195Z" />
<glyph unicode="B" glyph-name="B" horiz-adv-x="414" d="M291 365Q337 351 353 309T370 205Q370 97 326 49T187 0H53V696H200Q290 696 327 648T364 512Q364 457 348 425T291 369V365ZM294 213Q294 270 273 301T190 332H132V71H194Q227 71 246 82T276 113T290
158T294 213ZM288 513Q288 567 265 595T186 624H132V401H185Q240 401 264 430T288 513Z" />
<glyph unicode="C" glyph-name="C" horiz-adv-x="384" d="M204 702Q285 702 321 658T358 543L279 529Q280 575 263 602T203 629Q179 629 164 618T141 591T129 554T126 516V165Q126 150 129 133T140 101T163 76T202 66Q241 66 259 90T279 166L360 152Q358 77 320
35T204 -7Q125 -7 86 37T47 161V505Q47 542 53 577T77 640T125 685T204 702Z" />
<glyph unicode="D" glyph-name="D" horiz-adv-x="423" d="M215 696Q277 696 313 675T363 602Q374 560 374 498T374 349Q374 263 374 204T361 103Q342 44 301 22T206 0H53V696H215ZM294 522Q294 569 274 596T203 623H132V72H203Q252 72 273 99T294 176V522Z" />
<glyph unicode="E" glyph-name="E" horiz-adv-x="366" d="M53 0V696H351V623H132V390H322V317H132V72H351V0H53Z" />
<glyph unicode="F" glyph-name="F" horiz-adv-x="366" d="M53 0V696H351V623H132V390H322V317H132V0H53Z" />
<glyph unicode="G" glyph-name="G" horiz-adv-x="414" d="M207 -7Q128 -7 89 37T50 161V505Q50 542 56 577T80 640T128 685T207 702Q288 702 323 661T361 548L282 529Q283 575 266 602T206 629Q182 629 167 618T144 591T132 554T129 516V165Q129 150 132 133T143
101T166 76T205 66H206Q244 66 266 86T288 141V307H207V376H367V151Q367 112 355 83T321 33T270 3T207 -7Z" />
<glyph unicode="H" glyph-name="H" horiz-adv-x="427" d="M294 0V321H132V0H53V696H132V390H294V696H373V0H294Z" />
<glyph unicode="I" glyph-name="I" horiz-adv-x="192" d="M56 0V696H136V0H56Z" />
<glyph unicode="J" glyph-name="J" horiz-adv-x="363" d="M297 696V178Q297 87 258 40T137 -7Q94 -7 60 9T5 59L63 106Q74 90 94 78T136 65Q180 65 199 93T218 167V696H297Z" />
<glyph unicode="K" glyph-name="K" horiz-adv-x="414" d="M326 0L200 334L132 202V0H53V696H132V349H134L302 696H381L246 421L406 0H326Z" />
<glyph unicode="L" glyph-name="L" horiz-adv-x="340" d="M53 0V696H132V72H335V0H53Z" />
<glyph unicode="M" glyph-name="M" horiz-adv-x="564" d="M427 482L372 338L300 169H263L191 338L136 482H132V0H53V696H133L216 479L280 309H283L349 484L430 696H511V0H432V482H427Z" />
<glyph unicode="N" glyph-name="N" horiz-adv-x="450" d="M129 476V0H50V696H125L269 343L317 216L321 217V696H400V0H326L182 350L132 476H129Z" />
<glyph unicode="O" glyph-name="O" horiz-adv-x="414" d="M367 187Q367 94 331 44T206 -7Q120 -7 84 40T47 164V507Q47 544 53 579T77 641T126 685T207 702Q259 702 290 688T339 647T361 586T367 509V187ZM288 522Q288 540 286 559T275 593T251 619T207 630Q177
630 161 616T137 581T128 539T126 501V163Q126 148 129 131T141 99T165 75T206 65Q231 65 247 75T272 100T284 136T288 177V522Z" />
<glyph unicode="P" glyph-name="P" horiz-adv-x="395" d="M195 696Q248 696 282 682T336 642T363 577T371 489Q371 445 364 407T337 341T282 296T189 280H132V0H53V696H195ZM132 354H186Q222 354 243 365T276 394T291 436T294 487Q294 515 291 540T276 583T244
612T188 623H132V354Z" />
<glyph unicode="Q" glyph-name="Q" horiz-adv-x="414" d="M367 187Q367 118 348 74L404 29L365 -19L311 24Q272 -7 207 -7Q121 -7 84 40T47 164V507Q47 544 53 579T77 641T126 685T207 702Q259 702 290 688T339 647T361 586T367 509V187ZM288 522Q288 540 286
559T275 593T251 619T207 630Q177 630 161 616T137 581T128 539T126 501V163Q126 148 129 131T141 99T165 75T206 65Q232 65 248 75L189 124L228 171L282 127Q288 149 288 177V522Z" />
<glyph unicode="R" glyph-name="R" horiz-adv-x="414" d="M306 0L207 305H132V0H53V696H206Q291 696 331 647T371 498Q371 438 353 392T281 321L387 0H306ZM291 498Q291 526 287 549T272 588T241 614T192 623H132V378H199Q226 378 244 386T272 411T287 449T291 498Z" />
<glyph unicode="S" glyph-name="S" horiz-adv-x="394" d="M360 190Q360 145 352 109T324 47T273 7T196 -7Q154 -7 123 5T72 38T43 89T33 152L112 168Q112 148 116 131T129 99T155 77T196 69Q226 69 243 78T269 104T280 143T282 189Q282 220 279 239T266 273T238
299T188 323Q139 344 110 365T64 410T43 460T38 519Q38 559 48 592T78 650T130 688T202 702Q247 702 277 688T326 652T352 602T360 549L282 529Q282 576 263 601T198 627Q172 627 157 617T132 592T120 557T117 520Q117 498 119 482T133 451T165 422T226 393Q271
375 297 356T338 312T356 258T360 190Z" />
<glyph unicode="T" glyph-name="T" horiz-adv-x="320" d="M200 624V0H120V624H2V696H318V624H200Z" />
<glyph unicode="U" glyph-name="U" horiz-adv-x="420" d="M370 695V187Q370 94 334 44T210 -7Q124 -7 87 40T50 164V695H129V163Q129 148 132 131T144 99T168 75T209 65Q234 65 250 75T275 100T287 136T291 177V695H370Z" />
<glyph unicode="V" glyph-name="V" horiz-adv-x="395" d="M239 -1H153L23 696H104L156 402L195 160H198L238 404L291 696H372L239 -1Z" />
<glyph unicode="W" glyph-name="W" horiz-adv-x="581" d="M456 -1H382L321 328L291 508H288L257 324L197 -1H124L23 696H105L142 399L164 199H167L199 397L254 696H327L380 401L414 199H417L439 403L474 696H557L456 -1Z" />
<glyph unicode="X" glyph-name="X" horiz-adv-x="377" d="M285 -1L188 275L92 -1H9L148 365L20 696H103L188 451L274 696H357L226 365L368 -1H285Z" />
<glyph unicode="Y" glyph-name="Y" horiz-adv-x="376" d="M190 408L280 696H363L227 294V-1H149V294L13 696H96L147 533L186 408H190Z" />
<glyph unicode="Z" glyph-name="Z" horiz-adv-x="321" d="M302 624L101 72H301V0H20V72L223 624H30V696H302V624Z" />
<glyph unicode="[" glyph-name="bracketleft" horiz-adv-x="210" d="M63 -101V697H197V648H131V-52H197V-101H63Z" />
<glyph unicode="\" glyph-name="backslash" horiz-adv-x="210" d="M136 -7L11 702H71L196 -7H136Z" />
<glyph unicode="]" glyph-name="bracketright" horiz-adv-x="210" d="M14 -102V-52H80V648H14V697H147V-102H14Z" />
<glyph unicode="^" glyph-name="asciicircum" horiz-adv-x="380" d="M165 693H218L371 336H307L191 620L76 336H12L165 693Z" />
<glyph unicode="_" glyph-name="underscore" horiz-adv-x="500" d="M0 -131V-70H500V-131H0Z" />
<glyph unicode="`" glyph-name="grave" horiz-adv-x="357" d="M166 556L70 716L141 741L209 573L166 556Z" />
<glyph unicode="a" glyph-name="a" horiz-adv-x="361" d="M239 43Q219 16 194 5T136 -6Q105 -6 84 6T51 39T33 85T27 138Q27 166 33 194T54 245T95 282T162 297H240V363Q240 392 227 409T175 426Q155 426 136 414T112 375L37 396Q48 445 85 473T179 501Q246 501
283 471T320 364V0H240V43H239ZM240 228H182Q151 228 128 210T104 143Q104 108 119 90T166 71Q203 71 221 92T240 150V228Z" />
<glyph unicode="b" glyph-name="b" horiz-adv-x="368" d="M212 -6Q173 -6 155 5T121 39L119 38V0H40V726H119V447H121Q136 474 165 486T217 499Q258 499 281 484T317 441T332 378T336 299Q336 256 336 210T330 115Q325 74 312 50T280 14T244 -2T212 -6ZM185 71Q210
71 224 80T245 111T255 164T257 243Q257 291 256 324T248 380T227 412T185 422Q157 422 138 401T118 351V149Q118 115 135 93T185 71Z" />
<glyph unicode="c" glyph-name="c" horiz-adv-x="339" d="M173 -7Q142 -7 120 1T81 22T56 52T41 88Q38 100 36 118T34 157T33 201T32 242Q32 267 33 293T35 344T40 387T48 419Q62 457 94 479T182 501Q256 501 287 462T319 355L237 344Q237 389 222 409T179 429Q159
429 145 420T121 388Q115 373 113 329T110 225Q110 192 111 161T117 112Q124 90 138 78T179 65Q210 65 223 87T237 147L318 133Q316 65 282 29T173 -7Z" />
<glyph unicode="d" glyph-name="d" horiz-adv-x="369" d="M153 -6Q139 -6 121 -3T85 13T53 50T34 115Q31 145 31 178T30 240Q30 294 32 341T47 424T86 479T159 500Q188 500 209 490T244 459H246V726H325V0H246V38L244 39Q228 17 210 6T153 -6ZM180 71Q213 71 230
93T247 149V345Q247 380 231 401T180 422Q158 422 145 414T124 384T113 329T110 243Q110 197 111 165T120 111T141 81T180 71Z" />
<glyph unicode="e" glyph-name="e" horiz-adv-x="357" d="M180 66Q209 66 223 85T240 140L321 125Q317 61 282 27T174 -7Q142 -7 119 1T80 23T55 54T41 88Q38 100 36 118T33 157T32 201T31 242Q31 267 31 292T34 341T39 383T47 416Q61 455 93 478T182 501Q256
501 289 460T322 347V225H110Q110 192 111 160T118 111Q132 66 180 66ZM242 289V331Q242 350 240 367T230 398T211 418T178 426Q160 426 145 418T121 386Q116 372 114 348T111 289H242Z" />
<glyph unicode="f" glyph-name="f" horiz-adv-x="246" d="M141 427V0H61V427H11V493H61V614Q61 670 91 698T172 726H218V652H186Q163 652 152 639T141 604V493H218V427H141Z" />
<glyph unicode="g" glyph-name="g" horiz-adv-x="370" d="M247 47Q232 20 203 8T151 -5Q110 -5 86 12T50 59T35 127T31 207Q31 250 31 290T36 379Q40 420 54 444T87 480T123 496T156 500Q195 500 213 489T247 455L249 456V494H328V-37Q328 -67 322 -96T300 -148T256
-185T181 -199Q115 -199 80 -167T43 -75L122 -60Q123 -90 136 -108T185 -126Q202 -126 214 -119T234 -101T245 -75T249 -46V47H247ZM183 423Q158 423 144 414T123 383T113 330T111 251Q111 203 112 170T120 114T141 82T183 72Q211 72 230 93T250 143V345Q250 379
233 401T183 423Z" />
<glyph unicode="h" glyph-name="h" horiz-adv-x="369" d="M117 445H120Q155 499 221 499Q276 499 303 464T331 371V0H251V350Q251 382 234 400T184 419Q152 419 134 400T116 346V0H38V726H117V445Z" />
<glyph unicode="i" glyph-name="i" horiz-adv-x="170" d="M44 616V696H124V616H44ZM44 0V494H124V0H44Z" />
<glyph unicode="j" glyph-name="j" horiz-adv-x="176" d="M48 617V697H128V617H48ZM128 -69Q128 -95 123 -118T104 -160T69 -188T12 -199H-18V-124H-4Q30 -124 39 -109T48 -53V494H128V-69Z" />
<glyph unicode="k" glyph-name="k" horiz-adv-x="374" d="M123 257L261 494H349L235 303L370 0H285L184 234L121 120V0H42V726H121V257H123Z" />
<glyph unicode="l" glyph-name="l" horiz-adv-x="210" d="M49 726H129V130Q129 96 137 81T176 65H188V-7H172Q140 -7 117 -2T79 17T57 55T49 116V726Z" />
<glyph unicode="m" glyph-name="m" horiz-adv-x="586" d="M538 0H459V350Q459 382 443 400T398 419Q371 419 352 400T332 349V0H253V350Q253 382 237 400T192 419Q163 419 145 398T126 342V0H48V494H127V445H130Q147 471 168 485T222 499Q257 499 280 485T317
444Q340 469 366 484T428 499Q483 499 510 464T538 371V0Z" />
<glyph unicode="n" glyph-name="n" horiz-adv-x="366" d="M114 445H117Q152 499 218 499Q273 499 300 464T328 371V0H248V350Q248 382 233 400T185 419Q153 419 133 398T113 342V0H35V494H114V445Z" />
<glyph unicode="o" glyph-name="o" horiz-adv-x="362" d="M186 501Q228 501 254 490T297 460T320 414T329 356Q331 327 332 294T333 235Q333 178 327 121Q322 81 307 56T271 17T224 -2T175 -7Q144 -7 122 1T83 22T57 52T42 88Q39 100 37 118T35 157T34 201T33
242Q33 267 34 293T37 344T42 387T50 419Q64 457 97 479T186 501ZM184 429Q164 429 148 420T122 388Q116 374 114 330T111 225Q111 192 112 161T118 112Q132 66 184 66Q205 66 221 78T245 111Q247 116 249 129T252 161T254 201T255 243Q255 264 255 284T254 324T252
358T247 382Q233 429 184 429Z" />
<glyph unicode="p" glyph-name="p" horiz-adv-x="364" d="M205 501Q218 501 237 498T273 482T305 445T324 380Q327 350 327 317T328 255Q328 201 326 154T311 71T272 16T199 -5Q170 -5 149 5T114 36H112V-192H33V495H112V457L114 456Q130 478 148 489T205 501ZM178
424Q145 424 128 402T111 346V150Q111 115 127 94T178 73Q200 73 213 81T234 111T245 166T248 252Q248 298 247 330T238 384T217 414T178 424Z" />
<glyph unicode="q" glyph-name="q" horiz-adv-x="368" d="M249 -194V47H247Q232 20 203 8T151 -5Q110 -5 86 12T50 59T35 127T31 207Q31 250 31 290T36 379Q40 420 54 444T87 480T123 496T156 500Q195 500 213 489T247 455L249 456V494H328V-194H249ZM183 423Q158
423 144 414T123 383T113 330T111 251Q111 203 112 170T120 114T141 82T183 72Q211 72 230 93T250 143V345Q250 379 233 401T183 423Z" />
<glyph unicode="r" glyph-name="r" horiz-adv-x="257" d="M131 438Q150 476 175 488T238 501H247V406Q239 407 233 407T219 408Q176 408 153 388T129 315V0H50V494H129V438H131Z" />
<glyph unicode="s" glyph-name="s" horiz-adv-x="339" d="M111 140Q110 106 125 86T169 66Q206 66 220 83T234 137Q234 154 231 166T220 188T198 206T161 223Q123 237 99 253T61 287T42 325T37 367Q37 426 71 463T175 501Q249 501 280 465T312 365L230 354Q232
393 216 410T174 428Q156 428 144 423T126 408T117 388T114 367Q114 355 117 345T129 325T154 306T197 288Q234 275 256 260T291 226T306 186T310 138Q310 72 278 33T173 -7Q101 -7 67 27T30 127L111 140Z" />
<glyph unicode="t" glyph-name="t" horiz-adv-x="231" d="M142 494H206V433H142V135Q142 97 154 86T190 75H205V0H165Q133 0 113 10T82 36T66 71T62 110V433H10V494H64V615H142V494Z" />
<glyph unicode="u" glyph-name="u" horiz-adv-x="369" d="M250 50H247Q212 -4 146 -4Q91 -4 64 31T36 124V495H116V145Q116 72 180 72Q209 72 230 93T251 149V495H329V1H250V50Z" />
<glyph unicode="v" glyph-name="v" horiz-adv-x="337" d="M214 0H123L5 494H89L132 290L168 117H171L208 294L249 494H332L214 0Z" />
<glyph unicode="w" glyph-name="w" horiz-adv-x="550" d="M429 0H348L314 150L276 337H272L236 157L201 0H121L10 494H93L128 315L163 125H166L200 317L236 494H317L350 322L386 122H389L423 318L457 494H540L429 0Z" />
<glyph unicode="x" glyph-name="x" horiz-adv-x="332" d="M239 0L168 171L93 0H6L127 252L10 494H99L168 331L233 494H325L211 253L327 0H239Z" />
<glyph unicode="y" glyph-name="y" horiz-adv-x="336" d="M191 -83Q179 -133 153 -163T74 -194H44V-126H64Q92 -126 104 -108T128 -39L136 -4L5 494H89L131 305L171 134H174L211 307L252 494H333L191 -83Z" />
<glyph unicode="z" glyph-name="z" horiz-adv-x="306" d="M283 424L109 75H283V0H23V75L197 424H36V493H283V424Z" />
<glyph unicode="{" glyph-name="braceleft" horiz-adv-x="230" d="M170 -103Q133 -103 108 -74T83 4V144Q83 197 70 232T19 272V323Q38 326 50 337T69 366T80 406T83 453V590Q83 640 108 669T170 698H214V644H195Q182 644 174 636T161 616T154 588T152 557V431Q152
399 146 376T129 336T109 312T91 300V297Q98 294 108 286T129 261T145 222T152 168V37Q152 22 154 7T161 -21T174 -42T195 -50H214V-103H170Z" />
<glyph unicode="|" glyph-name="bar" horiz-adv-x="210" d="M75 -162V716H138V-162H75Z" />
<glyph unicode="}" glyph-name="braceright" horiz-adv-x="230" d="M20 -103V-50H39Q52 -50 60 -42T73 -22T80 6T82 37V168Q82 199 88 222T105 261T125 285T143 297V300Q135 303 125 311T105 336T89 375T82 431V557Q82 572 80 587T73 615T60 636T39 644H20V698H64Q101
698 126 669T151 590V453Q151 429 154 407T164 367T184 338T215 323V272Q177 267 164 232T151 144V4Q151 -45 126 -74T64 -103H20Z" />
<glyph unicode="~" glyph-name="asciitilde" horiz-adv-x="380" d="M112 299Q136 299 156 292T194 277T230 261T267 254Q286 254 295 263T323 293L368 266Q350 233 326 209T266 185Q247 185 229 192T191 209T152 225T111 233Q92 233 81 225T51 194L10 223Q27 253
52 276T112 299Z" />
</font>
</defs>
</svg>
