<?xml version="1.0" standalone="no"?> <!DOCTYPE svg PUBLIC "-//W3C//DTD SVG 1.0//EN" "http://www.w3.org/TR/2001/REC-SVG-20010904/DTD/svg10.dtd" > <svg xmlns="http://www.w3.org/2000/svg" width="100%" height="100%">
<defs >
<font horiz-adv-x="237" ><font-face
    font-family="Bickham Script Pro Regular"
    units-per-em="1000"
    panose-1="3 3 4 2 4 7 7 13 13 6"
    ascent="680"
    descent="-320"
    alphabetic="0" />
<missing-glyph horiz-adv-x="500" d="M0 0V700H500V0H0ZM250 395L420 650H80L250 395ZM280 350L450 95V605L280 350ZM80 50H420L250 305L80 50ZM50 605V95L220 350L50 605Z" />
<glyph unicode=" " glyph-name="space" horiz-adv-x="153" />
<glyph unicode="!" glyph-name="exclam" horiz-adv-x="239" d="M305 339Q317 339 317 334Q316 328 298 304Q264 259 197 186T92 74Q83 65 79 67T85 83Q182 211 245 307Q267 339 305 339ZM67 44Q79 44 82 37T77 18Q69 7 54 -1T30 -9Q20 4 29 25Q37 44 67 44Z" />
<glyph unicode="&quot;" glyph-name="quotedbl" horiz-adv-x="190" d="M187 340Q201 340 203 334T193 317Q145 274 115 251Q106 244 104 246Q102 247 108 257L148 321Q159 340 187 340ZM266 340Q280 340 282 334T272 317Q224 274 194 251Q186 245 183 246T187
257Q195 268 209 291T228 321Q239 340 266 340Z" />
<glyph unicode="#" glyph-name="numbersign" horiz-adv-x="356" d="M246 281Q257 281 257 277Q258 270 240 249L188 187Q214 187 280 185Q284 190 305 218T337 261Q338 262 343 268T349 275T353 280T359 285T366 287T375 288Q386 288 387 284Q387 278 369 256L310
185H361Q377 185 377 181T361 177H303L248 110Q257 110 272 110T300 110L313 109Q329 109 329 105T313 101H241L153 -7Q144 -20 137 -16Q133 -13 142 -1L217 101Q200 100 168 100T118 99L25 -14Q14 -28 8 -23Q4 -19 13 -8L93 99H52Q29 99 28 105Q28 112 49 112H102L150
175H100Q77 175 76 180Q76 183 79 185T87 187T97 188Q108 188 128 188T159 187L209 253Q211 256 215 262T222 270T228 275T236 280T246 281ZM180 175L128 111Q191 111 225 110Q238 129 274 176Q261 176 229 176T180 175Z" />
<glyph unicode="$" glyph-name="dollar" horiz-adv-x="245" d="M248 272L182 172Q201 112 192 86Q182 55 152 37T92 18Q83 18 79 19L53 -21Q47 -30 42 -28T44 -15L67 21Q44 27 33 42T25 77Q31 108 59 106Q68 105 72 98T75 82Q73 74 65 66T57 52Q55 37 74 31L148
144Q131 186 144 218Q154 247 180 263T238 281Q245 291 250 299Q266 323 273 321Q279 320 264 297L253 280Q271 276 281 264T286 234Q278 210 258 212Q236 215 246 237Q249 243 254 250T260 261Q259 269 248 272ZM176 187L233 273Q215 273 198 262T175 233Q168
212 176 187ZM154 130L85 28Q88 27 95 27Q114 27 130 38T156 67Q169 92 154 130Z" />
<glyph unicode="%" glyph-name="percent" horiz-adv-x="392" d="M240 -6Q223 -6 213 5T205 33Q210 65 243 100T319 143Q322 144 326 144T331 142T330 141T324 138T315 133Q297 122 269 87Q239 46 235 23Q232 6 245 3Q270 0 302 46Q332 87 340 115Q345 131 340
137Q339 139 336 141L334 142Q334 143 336 143T341 144T348 143Q371 135 364 105Q358 75 323 37Q280 -6 240 -6ZM306 250Q277 234 247 231Q224 229 203 237Q208 226 204 210Q196 179 163 146Q145 127 122 115T81 102T54 113T46 141Q50 174 84 209Q116 244 160 252Q171
254 171 251Q171 250 169 249T163 246T155 242Q136 229 110 195Q80 154 76 132Q73 113 86 112Q111 109 143 155Q170 191 181 224Q186 238 181 245Q180 247 179 248T176 249T175 251Q177 256 189 252Q195 250 197 248Q217 237 247 239Q286 244 327 273Q352 300 370
300Q381 300 376 293Q372 287 353 268Q217 135 70 -34Q59 -45 54 -42Q51 -39 61 -27Q184 120 306 250Z" />
<glyph unicode="&amp;" glyph-name="ampersand" horiz-adv-x="452" d="M506 299Q528 299 539 288T546 258Q543 244 532 233T508 225Q494 228 498 256Q502 276 484 277Q455 281 374 210Q355 193 314 153T253 95Q307 18 293 -48Q281 -102 234 -138T129 -174Q83 -174
69 -146Q62 -132 67 -129Q68 -129 69 -130T71 -135T75 -142Q91 -162 129 -162Q169 -162 200 -137T244 -72Q263 -4 226 71Q134 -5 71 -5Q53 -5 42 6T35 39Q43 79 120 125Q132 132 153 143T184 160Q175 194 180 220Q186 248 207 270T255 293Q271 293 278 280T279
244Q263 204 210 167Q214 156 247 104Q268 123 308 163T367 221Q454 299 506 299ZM253 277Q238 277 224 260T205 221Q201 197 208 175Q255 210 268 245Q273 258 269 267T253 277ZM105 22Q145 22 220 81Q197 121 187 152Q135 116 128 110Q88 77 82 48Q79 35 86 29T105
22Z" />
<glyph unicode="&apos;" glyph-name="quotesingle" horiz-adv-x="109" d="M188 340Q201 340 203 334T193 317Q138 270 114 251Q106 244 104 246Q100 247 107 257L148 321Q159 340 188 340Z" />
<glyph unicode="(" glyph-name="parenleft" horiz-adv-x="239" d="M72 -92Q68 -92 67 -83Q63 -64 63 -35T66 38T90 136T145 237Q281 427 482 462Q491 464 491 461Q491 459 482 456Q412 436 331 381T179 228Q119 141 96 57T74 -83Q74 -92 72 -92Z" />
<glyph unicode=")" glyph-name="parenright" horiz-adv-x="239" d="M-107 -86Q-107 -85 -98 -82Q-31 -60 43 -2T180 154Q235 239 251 320T263 458Q263 466 264 466Q267 466 269 459Q312 296 215 144Q177 84 131 39T42 -32T-35 -70T-98 -88Q-107 -90 -107 -86Z" />
<glyph unicode="*" glyph-name="asterisk" horiz-adv-x="231" d="M302 344T302 340T285 336Q250 336 228 337Q241 310 247 289Q251 275 248 274T239 281Q223 302 207 329Q166 290 153 279Q140 267 137 271Q134 274 144 287Q182 333 189 340Q169 344 141 350Q128
354 128 359Q129 364 144 364Q163 364 190 361Q180 382 171 406Q166 420 171 423Q175 426 184 413Q197 395 213 367Q240 394 264 414Q279 426 282 424Q285 421 275 407Q256 381 234 356Q284 348 287 347Q302 344 302 340Z" />
<glyph unicode="+" glyph-name="plus" horiz-adv-x="356" d="M287 250Q292 250 295 250T300 248T302 245T302 240T297 231T287 218L216 134Q281 132 329 131Q345 131 345 126T329 121Q270 119 202 118L99 0Q86 -13 83 -11Q79 -8 88 4L172 117Q157 117 122 117T67
116Q56 116 51 117T44 121T44 126Q48 139 65 139Q84 139 124 138T185 135L250 222Q251 223 254 227T258 233T262 237T266 242T270 245T275 248T281 249T287 250Z" />
<glyph unicode="," glyph-name="comma" horiz-adv-x="105" d="M68 35Q68 27 60 18Q27 -23 -27 -55Q-39 -61 -40 -60Q-41 -58 -32 -48Q-4 -17 5 1Q8 6 7 12T7 23Q13 44 53 44Q68 44 68 35Z" />
<glyph unicode="-" glyph-name="hyphen" horiz-adv-x="245" d="M150 117Q173 117 184 102T195 65Q195 60 193 60T189 63Q179 79 149 79Q137 79 114 75T74 70Q49 70 39 83Q37 86 39 88T43 88Q51 84 59 84Q77 84 109 103Q129 117 150 117Z" />
<glyph unicode="." glyph-name="period" horiz-adv-x="105" d="M50 44Q63 44 66 37T60 18Q52 7 37 -1T13 -9Q5 3 12 25Q19 44 50 44Z" />
<glyph unicode="/" glyph-name="slash" horiz-adv-x="239" d="M371 380Q383 380 383 376Q383 369 360 345L-33 -79Q-43 -89 -48 -85Q-51 -82 -40 -69L321 350Q348 380 371 380Z" />
<glyph unicode="0" glyph-name="zero" horiz-adv-x="266" d="M65 -9H64Q35 -9 20 8T8 56Q13 117 75 183Q101 213 138 235T206 263Q227 267 227 261Q227 260 225 260T217 258T206 252Q169 227 118 163Q59 91 50 39Q42 4 68 2Q105 -2 175 84Q230 155 248 218Q255
242 245 252Q242 256 235 259L233 261Q234 263 241 263T256 260Q271 253 278 234T279 190Q264 133 204 70Q171 34 133 13T65 -9Z" />
<glyph unicode="1" glyph-name="one" horiz-adv-x="187" d="M178 222Q143 199 112 183Q102 178 90 175T72 171T64 172Q64 174 68 176Q94 187 112 197Q174 230 199 247Q229 266 240 266Q252 266 233 244Q156 151 76 39Q57 12 48 6T4 -7Q-11 -9 -12 -4Q-12 2 9 29Q48
80 106 147T178 222Z" />
<glyph unicode="2" glyph-name="two" horiz-adv-x="249" d="M32 40Q48 44 66 43Q78 42 99 35T129 28Q164 28 200 66Q206 72 208 71Q212 68 207 63Q154 -6 106 -6Q78 -6 50 8Q32 17 9 17Q-7 17 -23 7Q-26 6 -31 3T-39 -3T-45 -6Q-48 -7 -48 -4Q-48 -2 -47 0Q-45
6 -30 15Q-23 20 10 37T63 66Q116 97 159 137T212 208Q217 225 210 236T187 247Q150 247 118 221Q89 198 83 172Q79 154 86 146T109 142Q115 144 116 142Q117 141 115 139T109 136Q98 132 86 133Q57 137 63 166Q70 196 112 229Q161 266 210 266Q243 266 256 249T261
202Q246 153 150 94Q101 66 32 40Z" />
<glyph unicode="3" glyph-name="three" horiz-adv-x="252" d="M161 149Q183 148 197 137Q218 120 207 86Q194 46 140 17Q93 -9 42 -9Q13 -8 -5 4T-20 40Q-17 58 -3 69T30 81Q42 81 48 74T53 58T34 37Q19 27 17 18T23 4T48 0Q112 2 156 88Q165 104 165 121T152
139Q142 140 126 132Q113 125 112 127Q110 130 115 134T129 143Q172 161 196 184T221 229Q221 248 197 248Q170 248 149 233Q127 217 120 196Q116 182 117 175Q117 173 119 170Q120 168 119 167Q114 164 109 172Q103 182 107 198Q115 224 148 244Q185 266 228 266Q269
266 269 235T231 180Q200 161 161 149Z" />
<glyph unicode="4" glyph-name="four" horiz-adv-x="273" d="M318 267H319Q328 267 323 260Q322 259 320 256Q252 171 167 52Q198 49 206 48Q214 46 217 44T220 37Q220 36 202 37Q172 39 160 39Q119 -12 81 -67Q64 -91 31 -97Q11 -101 11 -95Q11 -88 29 -62L104
39Q60 39 26 36Q5 35 -15 31Q-28 28 -28 33Q-29 38 -13 50Q41 93 113 143L275 250Q302 267 318 267ZM257 222L256 223Q197 189 119 133Q34 71 6 48V47Q41 52 114 52Q210 180 257 222Z" />
<glyph unicode="5" glyph-name="five" horiz-adv-x="258" d="M213 273H214Q215 273 222 266Q233 255 250 249Q264 244 284 244Q301 244 310 251Q317 256 318 255Q322 253 315 245Q307 234 290 226Q265 214 230 216Q202 217 183 231Q152 191 109 150L110 149Q134
160 159 160Q188 160 205 144T215 96Q205 50 154 21T45 -9Q15 -9 -3 3T-18 40Q-15 56 -2 67T25 79Q49 79 47 57Q46 46 34 36Q21 25 20 17T26 5T45 0Q85 0 121 30T168 106Q172 126 166 137T143 149Q125 149 111 142Q102 137 92 129Q81 120 77 123Q69 130 87 143Q107
159 142 197Q168 225 202 266Q207 273 213 273Z" />
<glyph unicode="6" glyph-name="six" horiz-adv-x="261" d="M19 43V44Q19 119 96 198Q148 251 218 286T340 320Q387 320 401 288Q406 277 401 275Q399 274 394 282Q378 308 341 308Q261 308 136 175Q50 85 50 28Q50 -1 75 -1Q116 1 169 77Q191 109 197 134T187
164Q164 167 136 147Q130 143 128 145Q126 148 135 155Q167 180 198 176Q231 172 234 136T209 60Q185 27 147 9T76 -10Q49 -10 34 5T19 43Z" />
<glyph unicode="7" glyph-name="seven" horiz-adv-x="215" d="M256 238Q188 212 129 213Q112 213 100 221T90 244Q92 261 115 272Q127 278 138 278L140 277L136 269Q133 262 134 256T146 244T177 239Q225 238 271 250Q275 252 280 253T287 251T285 247T276 244Q164
149 23 -20Q15 -28 -30 -34Q-55 -38 -56 -35T-39 -12Q135 157 256 238Z" />
<glyph unicode="8" glyph-name="eight" horiz-adv-x="245" d="M239 304H238Q218 304 200 290T177 256Q170 225 191 175Q207 131 206 107Q203 59 158 24T61 -9Q31 -7 15 11T6 58Q14 89 45 115T117 157Q139 165 140 161Q140 160 138 159T131 155T122 149Q70 114
55 64Q47 38 55 23T83 6Q117 3 141 31T165 93Q165 114 149 154Q135 188 137 219Q139 258 178 289T258 319Q286 318 299 301T307 258Q298 217 225 182Q200 170 198 175Q198 177 200 179T207 183T213 187Q258 215 268 258Q273 277 265 290T239 304Z" />
<glyph unicode="9" glyph-name="nine" horiz-adv-x="267" d="M-86 -92H-85Q-23 -92 48 -35Q112 15 170 96Q235 190 239 227Q242 251 224 254Q205 259 177 238T122 180Q101 150 98 126T110 96Q130 91 159 113Q172 122 173 121T173 118T169 112T160 104Q127 79 98
84Q66 89 63 124T87 198Q113 234 156 251T229 263Q268 256 270 213Q272 188 257 150T213 76Q156 1 73 -51T-84 -104Q-105 -104 -121 -95T-142 -73Q-146 -60 -141 -60Q-140 -60 -139 -60T-138 -63T-136 -67Q-123 -92 -86 -92Z" />
<glyph unicode=":" glyph-name="colon" horiz-adv-x="163" d="M60 44H61Q73 44 76 37T70 18Q62 7 47 -1T23 -9Q15 3 22 25Q29 44 60 44ZM108 143H109Q121 143 124 136T118 117Q110 106 95 98T71 90Q62 101 71 124Q79 143 108 143Z" />
<glyph unicode=";" glyph-name="semicolon" horiz-adv-x="163" d="M79 35V34Q79 27 71 18Q38 -23 -16 -55Q-27 -62 -29 -60T-21 -48Q7 -18 16 1Q19 6 18 12T18 23Q24 44 64 44Q79 44 79 35ZM107 143H108Q121 143 124 136T118 117Q110 106 95 98T71 90Q62 101 71
124Q79 143 107 143Z" />
<glyph unicode="&lt;" glyph-name="less" horiz-adv-x="282" d="M39 129V130Q39 135 62 143L296 229Q309 234 309 229Q309 225 294 219L84 127L224 40Q234 35 231 31T219 31L52 117Q39 124 39 129Z" />
<glyph unicode="=" glyph-name="equal" horiz-adv-x="331" d="M343 161V160Q343 155 328 155Q242 153 80 151Q70 151 68 154T67 163Q73 175 90 175Q222 171 327 166Q343 166 343 161ZM306 97V96Q306 91 291 91Q252 90 170 89T43 87Q25 87 31 100Q36 112 53 111Q92
110 172 107T290 103Q306 103 306 97Z" />
<glyph unicode="&gt;" glyph-name="greater" horiz-adv-x="282" d="M265 130V129Q265 125 242 116L9 29Q-3 25 -4 29Q-5 31 -1 34T10 40L220 132Q198 146 164 167T106 202T80 218Q72 224 74 228Q77 233 85 228L253 142Q265 137 265 130Z" />
<glyph unicode="?" glyph-name="question" horiz-adv-x="239" d="M256 337H257Q285 337 298 318T304 271Q287 214 187 167Q150 149 125 134Q95 117 90 102Q89 99 86 91T80 77T71 72Q66 73 67 81T73 97Q89 129 128 152Q234 216 257 275Q264 292 258 304T236 318Q201
321 166 293Q143 276 132 252T128 213Q129 210 131 209T135 206T136 204Q134 201 125 203Q100 208 109 241Q116 268 160 301Q209 337 256 337ZM67 44H68Q80 44 83 37T77 18Q69 7 54 -1T30 -9Q20 4 29 25Q37 44 67 44Z" />
<glyph unicode="@" glyph-name="at" horiz-adv-x="495" d="M318 264H319Q370 264 397 240T423 181Q422 158 403 130Q407 120 407 111Q407 79 387 55Q328 -15 223 -12Q158 -11 123 21T89 98T125 181Q156 217 207 240T318 264ZM318 256H317Q270 256 225 230T156
171Q125 132 121 93T143 26T225 -3Q320 -6 378 61Q399 87 399 110Q399 118 398 121Q392 113 389 110Q347 66 308 66Q274 66 271 88Q269 99 279 112H278Q231 67 201 67Q187 67 179 73T172 95Q176 129 222 163Q273 198 308 192Q318 191 322 184T324 169H325Q345 192
359 193Q378 193 368 182Q319 121 311 107Q304 95 307 87T322 79Q351 79 381 116Q387 124 393 135Q391 141 386 147Q382 152 383 154Q384 157 389 152T397 143Q406 164 407 182Q408 213 385 234T318 256ZM302 184H301Q285 184 241 142Q205 104 205 88Q205 81 213
81Q231 81 267 113Q284 128 299 146T315 172Q316 178 312 181T302 184Z" />
<glyph unicode="A" glyph-name="A" horiz-adv-x="690" d="M21 56V57Q21 82 37 99T73 118Q90 119 100 111T110 88Q110 70 87 54Q69 41 69 29Q69 12 95 2T167 -4Q261 4 375 83Q356 100 338 131T320 196Q321 242 353 272T439 301Q476 300 504 277T543 229Q554 240
590 273Q683 357 740 388Q809 426 860 426Q882 426 895 416Q907 406 902 402Q901 402 891 409Q883 415 869 415Q851 415 837 404Q801 375 756 310Q661 179 569 28Q594 30 625 45Q657 62 688 91Q694 98 698 94Q700 92 690 81Q659 52 628 36T564 18Q544 -3 525 -7Q512
-10 505 -8T499 -1T501 7Q503 10 505 15T509 22Q480 25 444 40Q406 55 385 75Q266 -9 164 -17Q103 -22 62 -3T21 56ZM558 99Q617 191 679 271Q761 378 840 416V417Q804 414 745 382Q695 354 611 279L548 220Q559 190 561 155Q563 126 558 99ZM440 286H439Q402 286
381 259T357 194Q356 166 366 139T390 95L463 157L534 221Q499 286 440 286ZM397 86Q412 69 449 51Q485 35 514 32Q518 40 530 58T544 80Q554 100 550 154Q547 193 539 212L469 148L397 86Z" />
<glyph unicode="B" glyph-name="B" horiz-adv-x="640" d="M401 -9Q320 -9 320 40Q320 63 339 79T382 96Q413 96 413 72Q413 54 387 43Q365 34 363 23Q361 11 373 5T401 -1Q451 -1 496 45T545 152Q547 185 527 201T487 215Q469 212 458 212Q451 212 446 212T437
215T434 220Q435 228 461 228Q464 228 491 225Q524 230 553 256T590 316Q602 366 568 387L545 364Q513 332 421 210Q252 -20 104 -20Q-2 -20 -2 56Q-2 103 38 163T163 285Q245 345 340 376T519 407Q540 407 558 404Q609 440 654 458Q705 479 753 479Q806 479 823
452Q828 444 825 443Q824 443 819 448Q800 471 754 471Q707 471 660 449Q624 433 581 398Q647 373 636 316Q630 278 591 253T509 221V220Q553 213 576 190T597 134Q594 72 537 32T401 -9ZM38 55Q38 25 54 7T103 -11Q134 -11 162 1T218 42T267 94T320 162Q330 175
335 182Q424 298 520 376Q522 378 545 395Q532 398 513 398Q437 398 347 367T180 278Q105 220 72 161T38 55Z" />
<glyph unicode="C" glyph-name="C" horiz-adv-x="390" d="M266 466Q302 466 335 449T389 403Q415 411 442 412Q496 415 531 397T558 337Q550 294 491 270T366 245Q268 245 215 285Q158 234 122 172T85 61Q85 -20 171 -20Q238 -20 316 32Q346 53 378 82Q397 99
400 96Q402 94 392 83Q346 40 320 23Q245 -30 169 -34Q104 -36 66 -12T25 67Q23 128 71 193T189 310Q164 342 164 373Q164 414 194 440T266 466ZM368 255Q424 255 468 279T521 339Q528 372 508 389T446 405Q417 405 393 395Q407 371 410 340Q413 315 407 315Q406
315 406 317T405 324T403 335Q397 366 379 390Q297 359 223 292Q273 255 368 255ZM258 453Q224 453 201 431T177 372Q177 342 197 316Q283 373 373 399Q324 453 258 453Z" />
<glyph unicode="D" glyph-name="D" horiz-adv-x="673" d="M356 272V273Q356 294 344 306T312 319Q274 320 247 293Q243 289 240 286T236 280T233 276T231 274T229 273Q228 274 228 276T232 284T241 296Q271 331 315 328Q339 327 355 312T371 271Q371 213 311 163Q244
108 157 112Q101 115 71 139T41 210Q42 268 93 317T223 394T387 422Q533 422 609 355Q643 378 674 390Q723 410 772 410Q807 410 828 395Q842 385 837 380Q836 380 835 380T831 384T823 390Q805 401 772 401Q728 401 679 380Q640 363 619 344Q663 296 664 230T630
113Q590 54 511 23T350 -8Q280 -8 213 -3Q157 -9 114 -9Q-18 -9 -37 0Q-44 4 -44 9Q-41 33 101 28Q156 26 235 13Q264 21 294 43T337 79T387 137T429 188Q519 295 594 345Q562 378 504 395T387 413Q268 413 176 350T83 202Q83 168 102 146T158 122Q236 118 299
174Q356 226 356 272ZM250 11Q292 2 334 2Q492 2 588 134Q624 184 629 240T605 334Q585 315 540 252T482 172Q426 104 372 68T250 11Z" />
<glyph unicode="E" glyph-name="E" horiz-adv-x="390" d="M225 263Q225 291 247 322Q204 355 204 396Q204 426 224 444T278 464Q309 466 343 451T400 409Q441 416 474 415Q523 413 550 395T577 352Q577 319 533 295T427 271Q343 271 287 299Q278 286 272 269Q266
251 269 237Q295 242 318 240Q375 238 372 215Q369 196 317 196Q258 196 237 223Q190 206 146 163Q90 110 87 53Q86 19 108 0T169 -20Q238 -20 316 32Q348 54 387 90Q397 99 400 96T391 82Q347 41 320 23Q245 -30 169 -34Q103 -37 65 -14T26 55Q25 110 82 159T232
230Q225 241 225 263ZM425 281Q477 281 514 300T553 352Q555 373 537 389T477 407Q444 407 409 395Q419 375 422 351Q425 325 420 325Q419 325 419 326T418 333T415 345Q410 367 393 389Q357 372 320 338Q306 326 292 307Q344 281 425 281ZM381 405Q362 428 333
442T276 455Q249 453 231 438T213 397Q213 363 253 330Q261 341 274 352Q316 388 381 405ZM271 230Q277 207 318 205Q354 203 354 218Q354 230 318 232Q297 234 271 230Z" />
<glyph unicode="F" glyph-name="F" horiz-adv-x="546" d="M347 401Q272 401 219 375T153 294Q146 262 161 231T219 180Q232 174 232 174Q231 170 213 175Q170 190 150 225T135 301Q143 358 202 395T352 432Q413 432 522 402L624 374Q676 402 734 402Q762 402 779
394T796 371Q794 343 739 343Q693 343 628 353Q594 329 549 274Q532 253 507 220T470 172Q524 170 555 180Q556 181 559 185T565 192T571 199T578 206T585 210T593 214T601 214Q616 210 594 189Q590 186 581 177Q556 156 535 131Q533 128 531 125T527 121T525 120Q520
121 529 140Q535 153 547 168Q522 161 461 161Q454 152 438 134Q298 -18 140 -18Q91 -18 56 -2T20 52Q19 72 32 87T68 102Q82 102 90 93T98 71Q96 59 83 46T70 23Q71 8 91 0T138 -9Q249 -9 338 88Q373 125 399 162Q356 162 344 161Q337 161 327 159Q318 158 318
162Q320 168 352 171Q363 172 406 172Q424 197 457 234Q491 271 534 307T602 358Q589 361 560 368T516 378Q414 401 347 401ZM733 393Q685 393 646 368Q705 352 743 352Q784 352 786 372Q788 393 733 393Z" />
<glyph unicode="G" glyph-name="G" horiz-adv-x="449" d="M577 367Q577 328 542 289T453 220Q368 177 264 177Q214 177 174 191Q127 122 121 64Q119 38 131 22T167 4Q234 3 331 105Q362 136 379 136Q393 136 396 133T392 120Q375 100 342 54L283 -24V-25Q332 2
378 36Q413 62 448 92Q459 102 462 99T449 81Q426 60 389 33Q341 -4 272 -41Q213 -126 148 -202Q89 -271 21 -317T-88 -364Q-107 -364 -119 -355T-130 -322Q-124 -258 25 -164Q70 -136 124 -106T217 -52L300 63Q232 -5 166 -10Q121 -14 93 4T62 62Q57 131 125 215Q70
251 70 310Q70 367 115 401T226 435Q304 435 350 386Q438 425 498 425Q530 425 553 412T577 367ZM565 369Q565 414 498 414Q437 414 362 370Q379 345 385 316T385 287Q384 287 383 289T381 298T377 312Q368 340 348 362Q294 326 244 276Q208 240 180 198Q219 186
263 186Q354 186 441 233Q490 259 527 299T565 369ZM219 423Q163 423 122 393T80 310Q80 257 131 222Q176 274 220 307Q278 351 333 378Q284 423 219 423ZM206 -68Q181 -84 128 -114T24 -177Q-24 -208 -64 -250T-104 -324Q-104 -347 -81 -350Q-57 -353 -19 -330Q40
-294 109 -201Q180 -107 206 -68Z" />
<glyph unicode="H" glyph-name="H" horiz-adv-x="650" d="M528 383Q502 373 448 372T314 375Q221 378 159 342T96 235Q96 207 115 179T169 139Q181 134 181 134Q180 132 174 132T162 133Q125 144 102 173T76 237Q74 309 132 354T301 396Q320 395 361 392T434 387T496
386T538 394Q565 409 571 406Q575 403 566 395Q561 391 558 388Q517 349 486 309Q469 288 446 257T416 218H559Q596 261 643 305Q711 369 769 401Q823 431 869 431Q894 431 911 421T932 399Q937 386 931 384Q930 384 930 384T928 388T926 393Q912 421 870 421Q826
421 779 387Q742 360 688 302Q649 260 618 218Q684 216 698 214Q721 211 721 209Q721 206 699 206Q631 206 608 205Q499 67 499 28Q499 11 518 11Q545 11 589 42Q605 53 646 89Q655 97 658 94Q660 92 652 83Q620 54 594 34Q539 -6 501 -6Q453 -6 453 38Q453 91
548 205L407 204Q362 149 333 118T262 50T175 -2T79 -18Q38 -18 9 1T-21 60Q-21 81 -6 97T31 112Q46 111 55 101T63 75Q62 58 47 45Q34 33 34 20Q35 6 50 -1T84 -9Q103 -9 124 -2T161 13T199 40T232 69T266 105T294 139T322 174T345 204Q341 204 271 202Q253 204
252 207Q253 211 281 213Q300 215 355 217Q394 264 445 313T528 383Z" />
<glyph unicode="I" glyph-name="I" horiz-adv-x="440" d="M613 413Q602 410 574 404T530 393Q434 368 383 338Q358 323 338 301T318 257Q318 231 345 231Q359 231 372 240Q381 246 382 245Q384 242 377 235Q363 221 341 221T307 233T294 263Q294 316 381 356Q432
381 528 403Q614 423 620 426Q636 433 640 432Q646 430 645 424T638 416Q598 398 545 324Q539 316 505 265T455 192Q291 -18 104 -18Q54 -18 18 1T-18 60Q-18 82 -3 101T38 120Q54 120 63 111T72 85Q70 69 53 55Q52 54 48 51T43 45T39 40T35 33T34 25Q34 11 52
2T101 -8Q177 -8 248 44T397 193Q402 199 442 250T499 321Q524 350 556 376T613 413Z" />
<glyph unicode="J" glyph-name="J" horiz-adv-x="335" d="M161 -21Q187 -11 215 5T282 49Q310 70 333 91Q346 103 349 100T336 82Q303 53 280 36Q245 9 210 -9Q176 -27 150 -38Q103 -96 79 -121Q-35 -242 -145 -296Q-201 -323 -240 -323Q-296 -323 -296 -281Q-296
-218 -125 -135Q-43 -95 82 -48Q178 81 274 190Q330 254 428 332Q447 347 512 392Q523 400 523 401Q523 406 513 406Q417 408 301 347Q231 310 186 260T140 167Q140 130 168 123Q174 121 178 121T184 122T186 121T185 118T178 116T168 115Q145 117 131 134T117
179Q117 226 160 280T295 373Q339 392 402 405T517 415Q524 414 528 413T536 409T539 400Q538 396 521 383Q502 368 461 329Q402 271 337 194L161 -21ZM73 -63Q-37 -103 -124 -146Q-197 -183 -233 -218T-267 -282Q-264 -305 -234 -307Q-200 -311 -150 -287Q-77
-251 25 -126Q42 -105 73 -63Z" />
<glyph unicode="K" glyph-name="K" horiz-adv-x="606" d="M834 367Q834 333 795 310T710 290Q689 292 674 300Q670 303 671 306Q672 307 677 305Q692 299 709 298Q750 294 787 315T825 367Q825 386 811 397T776 409Q767 409 759 407T743 403T728 396T714 387T701
375T688 362T674 347T662 332T649 315T636 299Q574 218 485 191Q505 178 510 155Q517 127 494 93Q490 88 483 78T473 62T466 49T460 35T458 23Q458 6 476 6Q499 6 548 44Q577 66 594 82Q611 96 613 94Q616 91 606 81Q580 57 551 34Q497 -10 457 -10Q411 -10 409
29Q409 58 444 107Q447 112 459 127T475 150T480 167Q480 178 473 187Q461 181 443 181Q432 181 423 184T415 195Q416 210 447 208Q464 206 477 198Q495 205 512 219T541 246T570 282T600 318Q689 418 774 418Q800 418 817 405T834 367ZM-21 60Q-21 80 -6 96T31
111Q67 109 64 75Q63 58 47 44Q34 31 34 19Q34 5 50 -2T84 -10Q110 -10 138 2T186 29T235 72T276 116T314 164T344 201Q421 299 472 333V334Q437 311 398 301T335 290Q284 289 253 306T228 358Q232 390 264 411Q279 421 292 421Q306 421 292 409Q270 389 266 357Q264
331 282 316T336 300Q382 300 435 324T531 384Q551 404 557 400Q562 395 548 381Q525 358 486 308Q471 289 444 252T407 203Q372 159 349 133T292 74T228 24T159 -6T79 -19T9 0T-21 60ZM442 188H443Q454 188 466 193Q460 199 445 201Q424 203 424 195Q424 188 442
188Z" />
<glyph unicode="L" glyph-name="L" horiz-adv-x="599" d="M252 350Q252 390 291 419T399 448Q494 448 558 396Q606 415 648 415Q690 417 717 398T738 345Q729 302 666 275T543 240Q485 233 433 240Q349 117 256 55Q274 52 331 37Q403 19 434 19Q478 19 514 35T597
91Q608 100 610 98Q613 95 601 83Q540 26 507 6T428 -14Q371 -14 320 6Q308 11 288 19T256 32T237 39Q174 -11 102 -12Q40 -14 42 11Q43 34 92 48T191 62Q214 62 238 58Q269 87 313 155T376 249Q323 260 288 287T252 350ZM438 249Q485 243 544 251Q597 258 648
285T709 353Q714 378 697 393T648 407Q607 407 569 383Q581 368 588 349Q592 337 593 328T594 316T592 312T591 315T587 327T577 347Q568 363 554 375Q508 349 438 249ZM261 353Q261 319 295 294T382 258Q417 302 461 339T541 390Q476 434 394 434Q333 434 297
410T261 353ZM224 44Q193 52 167 51Q136 50 112 40T87 15Q86 6 95 2T119 -1Q142 -1 173 12T224 44Z" />
<glyph unicode="M" glyph-name="M" horiz-adv-x="828" d="M85 -30H84Q-30 -30 -34 42Q-35 68 -18 89T26 110Q43 110 54 101T64 76Q62 58 42 42Q24 24 23 17Q20 2 39 -8T95 -18Q158 -18 249 22T421 122Q453 146 491 178T556 235T629 304T700 371Q615 387 502 387Q414
387 349 354T269 256Q262 221 277 190T337 144Q340 143 345 142T349 139Q347 133 330 138Q288 150 266 184T247 259Q255 330 322 370T504 407Q533 406 566 403T619 396T670 388T709 381Q721 393 728 399Q749 418 760 417Q779 414 759 391L745 375Q787 368 818 370Q882
372 921 388Q968 407 988 434Q994 441 995 446T997 454T999 458Q1003 459 1005 453Q1007 444 1002 433Q992 411 964 383Q858 273 797 196Q691 64 690 23Q690 10 703 10Q729 10 779 51Q803 70 827 92Q836 100 839 97Q841 94 830 83Q804 59 774 35Q725 -4 692 -5Q648
-7 647 32Q646 74 721 170Q802 275 887 347H886Q796 280 685 184Q572 86 494 12Q492 10 490 8T487 5T483 2T480 -1T477 -2T474 -3T472 -3T468 -1Q458 8 471 26Q494 58 573 181T683 342H682Q505 169 426 112Q346 52 253 11T85 -30ZM568 96Q666 184 756 257Q841 326
911 375V376Q874 362 815 360Q780 360 738 365Q716 334 655 233T568 96Z" />
<glyph unicode="N" glyph-name="N" horiz-adv-x="645" d="M-88 48V49Q-88 73 -71 91T-32 110Q-14 110 -4 101T7 77Q6 58 -11 44Q-30 25 -31 17Q-33 2 -16 -7T37 -16Q98 -16 174 15T318 99Q461 208 535 348Q542 362 554 380Q576 410 594 411Q603 412 605 408T604
398Q588 376 580 342Q576 325 567 220Q559 117 539 69H540Q659 242 761 350Q877 473 956 473Q985 473 1001 456T1018 417Q1018 407 1015 407L1010 417Q1000 444 953 444Q868 444 769 341Q665 233 506 2Q490 -19 481 -14Q471 -8 479 13Q505 86 512 173Q514 191 516
217T519 257T522 288T529 315H528Q499 260 443 199T324 90Q252 36 176 4T36 -29Q-15 -30 -51 -12T-88 48Z" />
<glyph unicode="O" glyph-name="O" horiz-adv-x="407" d="M136 52Q136 30 147 14Q152 8 151 7Q149 4 143 10Q129 24 126 53Q120 133 191 224Q245 290 309 330T418 366Q465 361 458 294Q456 264 435 218T383 133Q330 68 255 26T113 -15Q23 -13 13 66Q8 115 35 175T115
288Q175 347 258 384T417 418Q448 416 468 403T491 363Q494 334 476 314Q465 301 462 306L470 318Q484 339 480 362Q478 381 460 392T417 405Q356 408 279 361T154 261Q105 205 80 145T61 44Q69 -4 123 -6Q226 -10 351 146Q432 247 439 318Q444 353 417 356Q379
360 320 319T210 214Q136 120 136 52Z" />
<glyph unicode="P" glyph-name="P" horiz-adv-x="567" d="M394 282Q394 301 382 313T352 327Q316 328 287 302Q282 297 278 292T271 284T268 282Q267 283 268 286T272 296T282 308Q313 339 355 337Q378 336 394 321T410 280Q410 222 348 170T209 121Q95 124 98
211T204 359T445 421Q541 421 603 384Q634 408 673 424Q721 445 774 445Q830 445 847 418Q851 410 847 409L841 415Q822 436 775 436Q727 436 680 415Q642 398 614 376Q635 359 647 337T658 282T634 216Q589 150 484 141Q449 139 434 144Q360 65 266 26V25Q350
10 367 10Q417 10 448 32Q460 41 461 40T462 38T460 32T452 24Q413 -10 356 -10Q304 -10 228 9Q171 -12 74 -12Q-17 -12 -17 21Q-17 41 11 51T86 60Q140 57 247 32Q285 55 319 90T407 188Q521 329 589 374Q571 388 531 400T447 412Q321 412 234 355T140 206Q138
174 155 153T209 130Q279 127 336 180T394 282ZM442 154Q457 150 479 153Q551 162 599 231Q625 274 623 309T601 364Q574 340 521 262T463 179Q450 162 442 154ZM212 15Q110 35 82 37Q-4 44 -4 21T74 -2Q166 -2 212 15Z" />
<glyph unicode="Q" glyph-name="Q" horiz-adv-x="500" d="M391 280Q391 295 378 306T344 316Q316 315 294 297Q290 294 287 291T282 285T279 282T277 280T275 279Q270 283 288 301Q313 326 348 326Q375 326 392 313T409 272Q409 230 364 190Q307 139 225 139Q190
139 168 156T144 207Q142 244 165 284T225 352Q265 384 318 401T412 418Q467 418 507 394T549 320Q552 227 421 137Q382 110 316 79T206 34V33Q295 12 320 12Q410 12 496 89Q506 100 510 96Q512 93 502 83Q396 -14 311 -14Q252 -14 159 13Q86 -12 13 -12Q-69 -12
-69 20Q-69 40 -40 52T40 64Q104 64 191 39Q302 84 391 161Q499 253 499 331T412 409Q328 409 236 333Q155 264 158 207Q159 179 177 164T225 148Q287 148 349 204Q391 241 391 280ZM143 20Q63 37 32 40Q-55 46 -55 21Q-55 -2 14 -2Q82 -2 143 20Z" />
<glyph unicode="R" glyph-name="R" horiz-adv-x="659" d="M770 439Q731 439 685 420Q648 405 627 389Q641 379 653 366T675 326T671 271Q656 236 616 218T538 199V198Q570 185 573 156Q576 131 553 99Q550 94 541 80T528 61T521 46T517 29Q517 12 536 12Q558 12
608 50Q633 69 656 90Q666 100 670 97Q672 94 663 85Q644 66 610 39Q556 -4 517 -4Q469 -4 469 36Q468 66 504 113Q540 158 539 175Q539 189 521 198Q508 196 499 197Q489 198 481 202Q464 178 453 164Q404 104 361 73T266 20Q293 14 315 12Q358 9 388 29Q394 33
398 36T403 40T405 41Q406 40 406 38T404 32T396 24Q359 -9 302 -9Q273 -9 225 5Q162 -14 74 -12Q40 -12 12 -4T-17 21Q-17 41 11 51T86 60Q114 58 250 26Q309 55 396 171Q517 329 602 385Q558 412 477 412Q379 412 294 359T190 228Q180 187 193 158T242 125Q249
124 253 124T261 125T265 126T267 127T269 126Q270 124 267 122T257 117T240 115Q193 117 168 148T151 229Q166 312 262 366T477 421Q564 421 616 395Q640 413 680 429Q724 448 771 448Q826 448 843 422Q845 418 846 415T847 409T846 407T845 407T842 411T837 418Q818
439 770 439ZM614 377Q586 355 549 302Q538 287 517 257T486 212Q496 212 505 211Q513 210 525 206Q559 208 589 228T633 280Q645 312 639 337T614 377ZM208 10Q197 12 170 18T120 30T81 36Q-5 45 -5 20Q-5 0 73 -3Q158 -5 208 10Z" />
<glyph unicode="S" glyph-name="S" horiz-adv-x="545" d="M383 216L539 281Q596 367 655 409Q689 432 717 433Q731 434 741 428T751 406Q749 382 713 353T626 302Q610 295 599 291Q589 272 572 239T548 192Q444 -11 225 -26Q119 -32 62 8Q-2 -49 -18 -85Q-19 -88
-20 -89T-22 -92T-24 -94T-26 -94Q-30 -93 -26 -82Q-11 -39 49 18Q8 55 12 112Q16 158 53 194T135 247T221 267Q267 271 315 259T383 216ZM605 305L623 312Q669 331 703 357T740 406Q741 416 734 421T717 424Q696 421 671 396Q643 370 605 305ZM249 70Q205 70 173
91Q137 67 113 49L80 23Q129 -25 234 -17Q312 -10 373 41T489 193Q521 248 533 266V267Q449 233 390 205Q396 192 396 174Q395 127 349 99T249 70ZM247 80Q292 80 331 106T373 173Q373 186 370 197L303 166Q238 134 181 97Q212 80 247 80ZM367 208Q351 239 308
250T221 258Q159 254 106 217T47 116Q44 66 69 36Q82 49 100 62Q126 81 158 102Q140 118 137 140Q135 150 140 150Q141 150 143 142Q148 123 167 108Q228 145 301 178L367 208Z" />
<glyph unicode="T" glyph-name="T" horiz-adv-x="620" d="M716 513Q633 513 589 462Q579 451 574 435L569 421Q565 421 567 434Q569 451 582 468Q626 526 717 526Q782 526 819 497T847 418Q839 376 789 356T664 337Q642 337 639 336Q605 323 563 274Q552 261 516
212T450 134Q351 43 220 17V16Q319 7 379 7Q501 8 574 56Q593 68 617 90Q627 98 630 96Q633 93 622 83Q596 60 577 46Q494 -12 365 -12Q271 -12 170 2Q130 -7 63 -9Q49 -10 32 -10T0 -8T-25 -2T-34 8Q-29 33 49 33Q102 33 198 20Q226 25 265 43T334 85Q367 113
410 165T471 234Q547 316 625 339V340Q574 345 489 361Q370 383 328 385Q258 389 209 365T153 294Q149 261 177 239T248 215Q294 214 322 231T353 278Q355 295 346 307L342 313Q345 316 353 310Q373 299 373 276Q374 244 337 225T248 206Q199 207 169 232T142 297Q147
350 203 380T340 409Q388 408 506 388Q602 372 675 367Q742 364 785 380T834 431T807 489T716 513Z" />
<glyph unicode="U" glyph-name="U" horiz-adv-x="553" d="M407 134Q356 83 289 37T177 -9Q127 -9 133 37Q137 66 166 105T260 218Q359 331 371 371Q377 392 364 401T328 411Q289 411 242 388T154 324Q74 246 74 194Q74 153 110 153Q130 153 146 163Q151 166 156
170Q159 174 161 173T159 167T149 157Q130 144 108 144Q63 146 58 193Q56 227 76 267T135 342Q177 381 231 400T328 420Q365 420 387 406T409 363Q408 315 312 206Q246 133 217 95T185 34Q181 12 199 10Q230 6 309 64Q384 119 456 204Q554 316 639 382Q696 425
720 423Q733 420 731 408T714 378Q691 353 639 315Q571 264 548 245Q540 236 516 206Q488 169 477 154T445 109T416 60T408 28Q408 11 428 11Q450 11 492 42Q518 60 541 82Q558 97 561 94Q563 91 551 79Q530 59 498 34Q446 -6 410 -6Q363 -6 363 38Q363 73 407
134ZM574 277Q585 286 607 301T633 320Q669 344 699 374Q709 385 714 393T720 406T718 413Q704 418 664 375Q611 320 574 277Z" />
<glyph unicode="V" glyph-name="V" horiz-adv-x="482" d="M94 3Q187 8 283 52Q373 91 456 163Q543 238 578 301Q585 313 583 326Q583 338 572 382Q561 422 584 422Q599 422 607 409T613 372Q610 337 588 297Q544 210 471 147Q394 77 290 35Q185 -6 72 -9Q42 -17
20 -18Q-26 -21 -26 -11Q-26 4 12 6Q46 8 74 4Q146 35 244 136Q356 250 367 336Q372 374 356 393T307 412Q234 412 158 353Q126 328 104 293T77 226Q70 164 120 161Q165 157 226 223Q266 267 270 304Q272 320 266 330Q262 336 262 337Q264 340 270 334Q283 321
282 296Q279 254 240 212Q217 188 183 170T118 153Q85 155 69 175T56 228Q60 259 84 295T148 360Q229 421 309 421Q360 421 393 397T420 316Q410 233 288 120Q251 85 197 53T94 3Z" />
<glyph unicode="W" glyph-name="W" horiz-adv-x="601" d="M305 412Q233 412 156 353Q124 328 102 293T76 226Q69 165 119 162Q166 160 225 223Q265 267 269 304Q271 320 264 330Q261 336 261 337Q263 340 269 334Q282 321 280 296Q279 257 239 212Q216 188 182
170T117 153Q84 155 68 175T55 228Q59 259 83 295T147 360Q228 421 307 421Q358 421 391 397T418 316Q414 274 356 194T239 55V54Q255 65 353 137Q426 189 477 229Q500 294 521 328Q557 385 592 385Q606 385 613 374T615 345Q609 327 595 310T554 269T524 243Q488
94 458 54V53Q477 71 545 131T638 212Q762 325 775 399Q778 424 769 433Q765 436 759 438Q756 439 756 440Q758 443 766 443Q787 443 798 429T807 394Q798 322 648 199Q497 75 426 7Q411 -8 398 -8Q391 -8 390 -3T394 9Q409 29 423 65T450 147T472 211V212Q442
187 343 114Q190 5 175 -5T154 -15Q145 -15 143 -10T148 4Q224 84 275 156Q356 270 366 336Q372 373 355 392T305 412ZM527 261Q531 265 544 276T567 297T587 319T603 344Q608 358 604 366T590 375T570 364T554 339Q541 311 527 261Z" />
<glyph unicode="X" glyph-name="X" horiz-adv-x="488" d="M475 314Q592 416 677 416Q699 416 711 404T720 372Q713 340 675 317T606 290Q592 288 591 291Q591 293 606 297Q635 305 659 325T689 372Q694 403 666 405Q617 406 551 351T420 212Q337 105 324 48Q316
7 348 7Q376 7 428 43Q447 56 484 89Q498 102 501 99T490 83Q455 51 433 35Q378 -7 333 -9Q298 -10 284 5T273 49Q275 70 291 95V96Q171 -14 60 -14Q-32 -14 -37 48Q-39 74 -22 95T24 116Q39 116 48 108T57 87Q56 71 37 56Q16 39 15 25Q14 9 28 2T63 -5Q195 -5
349 191Q386 238 417 290T455 366Q465 411 416 411Q377 411 330 388T242 324Q161 245 162 194Q162 153 198 153Q218 153 234 163Q237 165 240 168T245 172T248 173Q251 172 247 167T237 157Q218 144 197 144Q175 144 161 157T146 193Q145 229 165 269T223 342Q267
380 321 400T416 420Q452 420 472 406T492 363Q490 336 475 314Z" />
<glyph unicode="Y" glyph-name="Y" horiz-adv-x="499" d="M421 148Q366 90 294 41T177 -9Q127 -9 133 37Q137 66 166 105T260 218Q359 331 371 371Q377 392 364 401T328 411Q289 411 242 388T154 324Q74 246 74 194Q74 153 110 153Q132 153 146 163Q148 164 150
166T154 169T156 172T159 173T161 173Q163 172 159 167T149 157Q130 144 108 144Q87 144 73 157T58 193Q56 227 77 268T135 342Q177 380 231 400T328 420Q365 420 387 406T409 363Q408 315 312 206Q246 133 217 95T185 34Q181 12 199 10Q230 6 309 64Q388 123 456
204Q552 320 613 382Q659 426 687 423Q701 422 701 408T690 378Q668 350 624 315Q573 275 543 245L413 67L326 -56Q402 -54 442 -87T474 -177Q472 -185 469 -191T463 -197Q462 -197 462 -197T462 -195T463 -191T464 -186T466 -178Q472 -124 433 -93T320 -66Q281
-122 213 -202Q154 -271 87 -317T-23 -364Q-40 -364 -53 -355T-65 -322Q-62 -283 -15 -233T83 -147Q181 -82 275 -63L421 148ZM566 278L617 320Q658 353 675 374Q702 408 688 413T640 375Q622 354 566 278ZM269 -74Q183 -93 91 -156Q48 -185 6 -237T-36 -324Q-36
-348 -15 -350Q9 -353 47 -330Q105 -294 175 -201L269 -74Z" />
<glyph unicode="Z" glyph-name="Z" horiz-adv-x="457" d="M433 324Q359 284 304 284Q269 284 244 297T222 340Q226 374 268 398T354 424Q369 424 369 420Q369 419 354 417Q327 415 305 398T281 354Q280 335 291 325T319 313Q376 307 448 344Q480 378 503 397Q531
420 550 417Q556 416 556 410T548 396Q524 370 474 342Q435 303 359 240Q286 179 253 157V156H265Q320 156 353 128T389 44Q422 61 457 93Q466 101 469 98Q472 96 459 83Q430 54 390 33Q386 -73 251 -187Q164 -260 61 -310T-108 -359Q-167 -357 -171 -313Q-178
-234 40 -123Q91 -96 186 -55T333 17Q348 89 320 121Q292 151 235 143Q202 118 174 100Q113 60 101 79Q96 88 112 103T158 132Q195 148 230 154Q279 189 334 236Q385 277 433 324ZM330 3Q282 -25 186 -68T46 -135Q-77 -201 -115 -234Q-163 -275 -160 -313Q-157
-349 -109 -349Q-48 -349 41 -302T201 -182Q306 -74 330 3ZM215 140Q191 136 163 123Q142 114 129 104T118 88Q123 79 167 108Q197 127 215 140Z" />
<glyph unicode="[" glyph-name="bracketleft" horiz-adv-x="239" d="M485 463L481 456Q448 454 419 450Q403 448 397 445T380 428L193 183L6 -45Q-8 -62 -7 -67T13 -75L72 -81L67 -87H-44Q-41 -84 -7 -36T73 74T159 187L387 463H485Z" />
<glyph unicode="\" glyph-name="backslash" horiz-adv-x="239" d="M139 -86H138Q134 -86 131 -73L35 341Q30 362 45 380Q56 392 62 368Q63 365 66 350Q78 293 103 150T142 -67Q145 -86 139 -86Z" />
<glyph unicode="]" glyph-name="bracketright" horiz-adv-x="239" d="M-33 -87H-131L-126 -80Q-95 -78 -64 -74Q-48 -72 -42 -69T-26 -52L161 193L348 421Q358 433 360 438T358 446T342 451L283 457L287 463H398Q273 286 196 190Q57 14 -33 -87Z" />
<glyph unicode="^" glyph-name="asciicircum" horiz-adv-x="307" d="M206 252H207Q209 252 217 241Q253 186 287 145Q293 137 291 136Q288 133 277 141Q225 180 197 211Q149 176 52 133Q43 130 42 132Q40 135 50 141Q108 179 193 244Q203 252 206 252Z" />
<glyph unicode="_" glyph-name="underscore" horiz-adv-x="500" d="M445 -105V-135H-64V-105H445Z" />
<glyph unicode="`" glyph-name="grave" horiz-adv-x="307" d="M191 342H192Q199 342 203 332Q222 288 253 246Q258 239 255 237Q253 236 245 241Q193 284 179 308Q174 316 174 323T179 336T191 342Z" />
<glyph unicode="a" glyph-name="a" horiz-adv-x="287" d="M195 133Q231 171 252 171Q267 172 270 168T265 155Q225 109 209 89Q185 59 174 40Q164 22 171 17Q177 12 194 21Q212 30 239 52Q265 73 287 93Q298 103 301 100T288 82Q260 56 232 34Q182 -6 146 -6Q119
-6 117 15Q115 32 131 51L130 52Q67 -4 20 -6Q1 -7 -11 2T-21 34Q-18 57 7 86L6 87Q-1 80 -7 75Q-14 70 -16 72Q-19 76 -2 91Q8 101 28 115Q50 130 74 143Q139 176 174 171Q188 169 194 158T195 133ZM170 161Q141 161 78 98Q19 40 22 19Q23 9 35 9Q49 9 73 23T119
56Q144 78 165 104T188 143Q189 161 170 161Z" />
<glyph unicode="b" glyph-name="b" horiz-adv-x="298" d="M271 133Q264 83 204 38Q150 -3 89 -5Q49 -5 49 15Q50 28 65 36T114 53Q172 67 191 76Q214 102 223 126Q234 156 213 156Q184 156 126 111Q82 77 15 10Q2 -2 -14 -4Q-28 -5 -30 -1T-28 12Q-19 32 13 79Q31
105 42 118H41L5 86Q-3 79 -6 82Q-8 84 -1 92Q4 96 16 107T41 129T63 148Q138 244 185 298Q231 353 305 427T417 529Q471 569 502 569Q520 569 527 559T533 533Q530 516 514 494T463 439T404 385T328 321Q310 306 234 248T124 158L57 66L58 65Q97 105 152 142Q204
176 240 171Q276 168 271 133ZM89 6Q113 8 137 23Q164 40 183 65Q169 58 121 46Q92 39 78 32T65 15Q66 4 89 6ZM140 184Q191 229 245 271T319 332Q446 446 477 483Q506 518 508 539Q509 558 491 558Q468 558 426 518Q356 450 293 375Q201 266 140 184Z" />
<glyph unicode="c" glyph-name="c" horiz-adv-x="214" d="M40 -9H39Q-17 -9 -14 33Q-11 62 15 93L14 94Q9 89 -3 79Q-13 70 -16 73Q-18 76 -10 84Q5 98 27 114Q50 131 75 144Q135 176 167 171Q201 165 194 133Q191 119 181 109T160 99Q135 99 152 128Q170 159
155 161Q137 164 93 119Q42 68 37 30Q34 7 60 7Q99 7 152 43Q176 59 212 91Q220 98 223 95Q225 92 215 82Q181 51 156 34Q93 -9 40 -9Z" />
<glyph unicode="d" glyph-name="d" horiz-adv-x="287" d="M170 161Q141 161 78 98Q19 40 22 19Q23 9 35 9Q49 9 73 23T119 56Q144 78 165 104T188 143Q189 161 170 161ZM74 143Q138 176 174 171Q188 169 193 159T196 137H197Q241 201 325 298Q380 363 444 422Q461
439 481 439Q494 439 496 432Q453 391 382 308Q330 248 257 155Q190 69 174 40Q164 22 171 17Q177 12 194 21Q212 30 239 52Q265 73 287 93Q298 103 301 100T288 82Q260 56 232 34Q182 -6 146 -6Q119 -6 117 15Q115 32 131 51L130 52Q67 -4 20 -6Q1 -7 -11 2T-21
34Q-18 57 7 86L6 87Q-1 80 -7 75Q-14 70 -16 72Q-19 76 0 93Q8 101 28 115Q53 132 74 143Z" />
<glyph unicode="e" glyph-name="e" horiz-adv-x="213" d="M59 6Q96 6 150 43Q181 64 211 91Q219 98 222 95Q225 91 214 82Q183 53 151 32Q90 -9 38 -9Q11 -9 -2 1T-15 31Q-14 59 15 93L14 94Q6 86 -6 76Q-13 70 -16 73Q-18 76 -10 84Q5 98 27 114Q48 129 76 144Q130
172 162 172H163Q178 172 185 164T192 145Q190 115 128 84Q85 63 42 52Q36 40 36 29Q36 6 59 6ZM48 63Q85 72 116 93Q155 120 157 145Q159 159 145 159Q132 159 101 130Q72 103 48 63Z" />
<glyph unicode="f" glyph-name="f" horiz-adv-x="171" d="M505 569H506Q522 569 529 559T534 533Q531 516 515 494T464 439T405 386T329 322Q316 311 241 251T131 159Q66 78 13 4Q32 8 56 18Q88 32 112 47Q141 66 169 91Q182 104 185 100Q188 98 176 86Q150 60
111 35Q78 15 32 -2Q14 -9 7 -18Q0 -28 -7 -50Q-37 -147 -91 -240Q-152 -347 -207 -388Q-231 -407 -250 -404Q-273 -400 -266 -366Q-258 -327 -215 -251T-117 -99L59 132L58 133Q42 121 5 86Q-3 79 -6 82Q-8 84 0 93Q35 126 81 162L192 299Q251 368 318 435T423
530Q477 569 505 569ZM149 185L321 333Q448 447 479 484Q508 519 510 540Q512 558 494 558T432 518Q381 470 302 376Q229 290 149 185ZM-9 -25Q-66 -97 -135 -201Q-214 -321 -231 -360Q-240 -379 -231 -384Q-223 -388 -206 -375Q-159 -339 -97 -231Q-44 -140 -9
-25Z" />
<glyph unicode="g" glyph-name="g" horiz-adv-x="284" d="M53 -62Q29 -78 -33 -115T-147 -187Q-215 -233 -260 -280T-309 -364Q-310 -386 -294 -391Q-270 -399 -231 -375Q-151 -327 -48 -195Q19 -109 53 -62ZM170 161Q141 161 78 98Q19 40 22 19Q23 9 35 9Q49
9 73 23T119 56Q144 78 165 104T188 143Q189 161 170 161ZM74 143Q138 177 174 171Q201 167 197 137H198Q228 171 246 171Q274 171 259 155Q247 141 207 89L125 -22Q185 14 221 41Q260 71 283 92Q292 100 295 97T285 82Q266 64 226 33Q177 -4 116 -38Q39 -151 -21
-217Q-124 -331 -227 -385Q-266 -406 -296 -406Q-349 -406 -343 -364Q-334 -295 -141 -169L62 -45Q120 36 129 49L128 50Q65 -4 20 -6Q1 -7 -11 2T-21 34Q-18 57 7 86L6 87Q-1 80 -7 75Q-14 70 -16 72Q-19 76 0 93Q8 101 28 115Q53 132 74 143Z" />
<glyph unicode="h" glyph-name="h" horiz-adv-x="317" d="M140 184Q194 231 248 274T319 332Q409 410 457 459T508 539Q509 558 491 558Q468 558 426 518Q345 437 293 375Q201 266 140 184ZM262 34Q209 -6 172 -6Q157 -6 149 0T142 20Q143 40 184 90Q191 98 205
114T226 139Q234 149 227 153Q221 157 201 147Q166 129 123 96L11 5Q-1 -4 -15 -4Q-26 -4 -29 -1T-28 12Q-12 42 13 79Q23 94 43 119V120L5 86Q-3 79 -6 83Q-7 86 -1 92Q12 105 64 148Q132 238 185 298Q236 357 308 430T417 529Q473 569 502 569Q520 569 527 559T533
533Q530 516 514 494T463 439T404 385T328 321Q311 307 239 252T124 158Q106 138 41 43L42 42Q116 103 134 117Q207 171 243 171Q277 171 274 144Q272 130 234 83Q211 56 201 39T197 17T221 21Q244 33 269 52Q287 66 317 93Q327 102 330 99Q332 96 322 86Q296 60
262 34Z" />
<glyph unicode="i" glyph-name="i" horiz-adv-x="162" d="M220 304H221Q231 304 233 297T228 278T205 259T181 251Q171 263 180 285Q188 304 220 304ZM81 143Q69 138 38 113Q14 94 2 83Q-10 73 -13 75Q-16 78 -2 91Q34 124 69 147Q101 169 127 169Q143 169 145
166T138 153Q113 125 84 89Q62 62 49 40Q40 24 46 18Q53 12 70 21Q89 31 114 51Q138 71 160 91Q173 103 176 100Q178 98 165 84Q143 62 108 34Q57 -7 21 -7Q-9 -7 -9 19Q-9 34 6 57Q36 104 81 143Z" />
<glyph unicode="j" glyph-name="j" horiz-adv-x="167" d="M94 150Q91 150 78 142Q61 131 38 113Q14 94 2 83Q-10 73 -13 75Q-16 78 -2 91Q34 124 69 147Q101 169 127 169Q143 169 144 166T138 154L86 90L-3 -26Q45 -2 102 40Q137 65 165 91Q176 102 180 99Q182
98 179 94T169 83Q140 56 105 31Q54 -7 -11 -42Q-94 -162 -144 -217Q-217 -298 -295 -352T-422 -406Q-440 -406 -454 -397T-464 -364Q-453 -295 -266 -172Q-219 -141 -161 -107T-65 -47L4 48Q68 132 94 150ZM-76 -65Q-103 -83 -161 -118T-269 -187Q-338 -232 -383
-279T-431 -364Q-432 -385 -416 -390Q-391 -398 -352 -374Q-271 -324 -170 -195Q-126 -140 -76 -65ZM211 304H212Q224 304 227 297T221 278Q213 268 198 260T174 252Q164 262 173 285Q181 304 211 304Z" />
<glyph unicode="k" glyph-name="k" horiz-adv-x="312" d="M43 119V120L5 86Q-3 79 -6 83Q-7 86 -1 92Q4 97 63 148Q132 239 185 298Q235 356 305 427T417 529Q472 569 502 569Q520 569 527 559T533 533Q530 516 514 494T463 439T404 385T328 321Q310 306 234 248T124
158Q104 136 44 48L46 47Q110 104 132 121Q169 150 198 162Q224 173 248 171Q268 170 278 158T281 131Q272 115 234 110Q197 104 191 96Q182 82 183 55Q186 21 200 18Q209 17 226 26Q245 37 264 52Q292 75 312 93Q322 102 325 99Q327 96 315 84Q282 54 256 33Q207
-6 170 -6Q135 -6 136 41Q137 75 158 96Q171 109 199 113Q221 117 230 127Q235 133 236 142T229 156Q219 160 198 151Q166 136 122 101Q102 85 62 49T12 6Q-2 -4 -14 -4T-29 -1T-28 12Q-19 32 13 79Q22 91 43 119ZM140 184Q194 231 248 274T319 332Q379 385 412
415T475 481T508 539Q509 558 491 558Q468 558 426 518Q345 437 293 375L140 184Z" />
<glyph unicode="l" glyph-name="l" horiz-adv-x="168" d="M47 122L46 123L5 86Q-3 79 -6 83Q-7 86 -1 92Q10 103 72 155Q138 239 190 298Q249 368 309 422Q328 439 345 439Q360 439 360 432Q300 372 211 266Q78 105 51 46Q42 25 49 19Q58 13 80 25Q97 34 121 53Q146
72 165 90Q176 102 180 98Q182 96 173 86Q148 61 112 34Q59 -6 22 -6Q7 -6 -1 1T-9 21Q-8 53 47 122Z" />
<glyph unicode="m" glyph-name="m" horiz-adv-x="512" d="M51 138Q93 171 119 171Q144 171 144 149Q144 135 123 106Q79 47 76 43L77 42Q151 103 169 117Q242 171 277 171Q295 171 303 163T309 142Q306 128 270 85Q244 55 234 41L235 40Q292 89 329 117Q402 171
438 171Q472 171 469 144Q467 130 429 83Q411 62 396 39Q385 22 392 17Q398 12 416 21Q438 32 464 52Q482 66 512 93Q522 102 525 99T517 86Q491 60 457 34Q404 -6 367 -6Q352 -6 344 0T337 20Q337 26 339 32T344 43T352 56T360 67T370 79T379 90L421 139Q429 149
422 153Q416 157 396 147Q361 129 318 96L206 5Q194 -4 180 -4Q168 -4 166 -1T167 12Q182 44 220 90Q228 100 243 117T262 139Q271 150 261 153Q254 155 236 147Q198 128 158 96L46 5Q34 -4 20 -4Q8 -4 5 -1T7 12Q19 34 51 79Q60 91 91 131Q101 144 98 148Q94 153
83 147Q66 139 44 120Q21 100 1 82Q-13 70 -16 73Q-18 76 -1 92Q39 129 51 138Z" />
<glyph unicode="n" glyph-name="n" horiz-adv-x="352" d="M207 -6Q192 -6 184 0T177 20Q178 40 219 90L261 139Q269 149 262 153Q256 157 236 147Q201 129 158 96L46 5Q34 -4 20 -4Q8 -4 5 -1T7 12Q24 44 51 79L91 131Q101 144 98 148Q94 153 83 147Q66 139 44
120Q21 100 1 82Q-13 70 -16 73Q-18 76 -1 92Q39 129 51 138Q93 171 119 171Q144 171 144 149Q144 135 123 106Q79 47 76 43L77 42Q151 103 169 117Q242 171 278 171Q312 171 309 144Q307 130 269 83Q248 58 236 39Q225 22 232 17Q238 12 256 21Q278 32 304 52Q322
66 352 93Q362 102 365 99T357 86Q331 60 297 34Q244 -6 207 -6Z" />
<glyph unicode="o" glyph-name="o" horiz-adv-x="249" d="M21 100L3 84Q-7 75 -10 78Q-12 81 -3 90Q8 101 28 115Q51 131 76 144Q125 170 159 171Q174 171 174 167Q174 166 163 161Q134 148 91 106Q36 51 33 18Q31 1 47 1T89 18T140 62Q142 83 158 104Q171 122
190 130Q193 137 193 153Q193 157 193 160T192 164T191 167T192 169Q197 172 206 163Q221 148 218 128Q214 95 161 47Q167 44 180 47Q195 50 214 64Q228 74 246 90Q260 103 263 100T250 82Q230 65 218 56Q197 41 180 38Q162 34 153 40Q89 -9 39 -9Q15 -9 2 2T-10
35Q-8 67 22 99L21 100Z" />
<glyph unicode="p" glyph-name="p" horiz-adv-x="327" d="M101 173L1 82Q-12 70 -15 73T-1 92L67 155L158 238Q180 258 197 258Q207 258 210 257T210 250T200 237Q197 234 196 233Q107 129 -61 -98Q-170 -246 -240 -355Q-250 -371 -246 -375T-233 -369T-155 -261Q-138
-236 -40 -106Q33 -10 81 47Q129 102 169 132Q222 171 255 171T285 145Q283 131 244 85Q216 53 209 42Q198 25 206 19T233 22Q254 32 279 52Q303 71 325 91Q336 102 340 99Q342 96 332 86Q307 61 271 34Q218 -6 181 -6Q163 -6 155 2T149 23Q152 45 193 90Q231 132
236 140Q242 150 236 153T214 148Q164 123 110 65Q55 5 -35 -116Q-134 -249 -156 -281Q-221 -377 -242 -394Q-257 -407 -271 -404Q-288 -401 -288 -383Q-288 -356 -250 -299Q-200 -223 -110 -102Q-7 39 101 173Z" />
<glyph unicode="q" glyph-name="q" horiz-adv-x="273" d="M174 171Q189 168 194 157T195 133Q231 171 246 171Q277 171 262 155Q206 89 197 78Q160 32 64 -99Q-41 -242 -113 -355Q-123 -371 -118 -375Q-113 -378 -103 -367Q-84 -346 -30 -266L83 -112Q134 -46
202 25Q226 50 270 90Q283 102 286 99T274 82Q249 60 217 27Q154 -38 91 -118L-28 -282Q-94 -374 -113 -392Q-128 -407 -142 -405Q-161 -403 -161 -384Q-161 -366 -120 -299Q-71 -221 16 -103L130 51L129 52Q71 -3 20 -6Q1 -7 -11 2T-21 34Q-18 57 7 86L6 87Q-1
80 -7 75Q-14 70 -16 72Q-19 76 0 93Q8 101 28 115Q53 132 74 143Q138 177 174 171ZM170 161Q141 161 78 98Q19 40 22 19Q23 9 35 9Q49 9 73 23T119 56Q144 78 165 104T188 143Q189 161 170 161Z" />
<glyph unicode="r" glyph-name="r" horiz-adv-x="206" d="M171 145V144Q171 138 166 130T146 107T125 84Q100 54 91 37Q83 23 90 18Q96 13 112 22Q137 35 157 52Q186 75 204 91Q216 102 219 99T207 82Q177 55 150 34Q98 -6 61 -6Q46 -6 38 1T30 20Q31 46 78 91Q88
100 104 113T131 136T143 148Q145 155 136 156Q135 156 103 156Q85 156 80 158Q67 144 42 120L2 83Q-10 72 -13 75T-2 91L37 127Q59 148 72 162Q55 173 72 194Q86 211 110 211Q126 211 128 201Q118 194 111 187Q92 167 114 165Q171 163 171 145Z" />
<glyph unicode="s" glyph-name="s" horiz-adv-x="229" d="M119 21Q140 29 163 43Q193 61 229 93Q240 101 242 99Q245 96 231 83Q207 61 180 43Q151 23 117 9Q76 -9 33 -9Q-3 -9 -17 8T-27 51Q-24 73 -9 88T24 103Q47 101 43 81Q40 66 21 56Q-1 44 -2 26Q-3 14
5 8T27 1Q63 1 94 55Q103 70 119 110T141 157V158Q127 144 93 120Q70 103 55 96Q47 92 45 95Q44 99 50 103Q73 117 92 131Q114 147 151 179Q155 188 167 196Q182 207 196 207Q222 207 195 188Q193 187 191 186Q188 184 179 179T167 171Q160 164 160 144Q162 88
151 62Q139 34 119 21Z" />
<glyph unicode="t" glyph-name="t" horiz-adv-x="167" d="M44 120Q28 107 4 85Q-5 77 -8 80T-1 92L72 157Q65 157 54 157T36 156Q33 156 32 156T28 156T26 158T25 161Q26 165 52 167Q65 168 80 168Q132 232 174 272Q215 313 237 313Q250 313 252 307Q233 290 191
242Q160 207 130 168Q153 169 187 169Q191 169 194 169T199 167T201 163Q200 158 183 158Q145 158 122 157Q82 109 50 47Q37 24 49 18Q58 14 74 22Q95 32 119 52Q130 60 147 75T166 92Q178 101 180 99Q182 96 173 87Q146 60 112 34Q59 -7 20 -7Q4 -7 -3 1T-10 21Q-7
53 44 120Z" />
<glyph unicode="u" glyph-name="u" horiz-adv-x="322" d="M81 143Q69 138 38 113Q14 94 2 83Q-10 73 -13 75Q-16 78 -2 91Q34 124 69 147Q101 169 127 169Q143 169 145 166T138 153Q121 134 86 91Q55 50 49 37T48 19Q54 13 71 21Q98 35 146 73L254 160Q269 171
283 171Q298 171 301 169T298 155Q294 149 276 128T245 91Q219 59 208 40Q198 23 205 18T228 21Q249 31 273 51Q297 70 321 92Q332 103 335 99Q338 97 327 86Q309 68 266 34Q215 -6 180 -6Q149 -6 149 18Q149 36 165 59Q176 75 212 111L211 112L131 49Q58 -6 24
-6Q8 -6 -1 1T-9 22Q-8 39 10 63Q43 107 81 143Z" />
<glyph unicode="v" glyph-name="v" horiz-adv-x="296" d="M222 45Q195 45 190 64Q174 54 148 40Q94 11 52 -2Q31 -9 18 -9Q4 -9 3 3Q2 9 12 21Q42 56 61 79Q88 113 98 134Q103 144 98 148T83 147Q68 140 44 120Q17 98 2 83Q-5 76 -8 79T-4 89Q21 114 49 136Q93
171 119 171Q151 171 147 136Q144 111 112 72Q88 41 55 11Q89 20 145 50Q172 64 189 77Q190 104 212 134Q241 175 260 171Q269 169 269 158T263 135Q241 98 199 70Q202 56 221 54Q244 52 269 70Q285 82 294 91Q306 102 309 99T299 84Q291 76 275 64Q248 45 222
45Z" />
<glyph unicode="w" glyph-name="w" horiz-adv-x="427" d="M23 -7H22Q-8 -7 -4 24Q-1 50 33 91Q58 120 92 150Q74 142 40 115Q17 97 0 81Q-12 70 -15 73T-2 91Q36 126 68 147Q100 169 133 169Q149 169 151 166T144 153Q104 113 84 89Q57 56 50 37Q45 25 50 20Q56
14 75 23Q96 33 134 64L235 148Q253 162 267 162Q282 162 285 159T282 146Q260 121 237 90Q211 54 204 39Q194 20 204 13Q211 8 232 15Q256 23 290 47Q308 60 319 72Q319 100 343 134Q372 175 391 171Q399 169 400 158T394 135Q373 101 331 66Q335 56 351 54Q373
52 401 72Q416 82 426 92T439 99T430 84Q422 76 405 64Q376 43 350 45Q330 45 323 59Q316 53 298 40Q232 -7 185 -7Q150 -7 150 22Q150 37 163 58Q173 74 199 104L198 105L123 43Q60 -7 23 -7Z" />
<glyph unicode="x" glyph-name="x" horiz-adv-x="285" d="M95 49Q58 -6 20 -6Q1 -6 -9 3T-18 31Q-17 47 -6 59T21 72Q32 72 38 65T40 47Q38 42 30 35T21 22Q20 10 31 10Q56 10 103 77Q130 115 135 134Q139 153 123 156Q98 160 48 122Q26 105 2 83Q-12 70 -15 73T-3
90Q24 115 53 137Q96 171 133 171Q153 171 167 158T175 117H176Q223 171 255 171Q270 171 278 161T283 136Q281 125 272 117T251 109Q235 109 236 124Q237 128 241 133T246 143Q248 151 238 151Q226 151 200 127Q183 111 162 83Q142 57 137 38Q130 14 147 10Q175
4 228 44Q246 57 282 90Q288 96 292 93Q294 90 286 82Q251 50 233 36Q176 -6 139 -6Q115 -6 102 8T95 49Z" />
<glyph unicode="y" glyph-name="y" horiz-adv-x="315" d="M213 112L212 113Q191 95 131 49Q58 -6 24 -6Q8 -6 0 1T-8 23Q-6 41 10 63Q42 105 81 143Q70 138 37 112Q12 92 2 83Q-10 73 -13 75Q-16 78 -2 91Q34 124 69 147Q101 169 127 169Q143 169 145 166T138
153Q121 134 86 91Q58 56 49 37Q43 24 48 19Q54 13 71 22Q102 39 146 73L254 160Q269 171 283 171T300 169T297 156L238 78L106 -99Q-29 -283 -71 -355Q-81 -372 -76 -375T-61 -367T12 -266Q94 -152 125 -112Q192 -27 253 34Q275 56 314 92Q324 102 328 99Q330
96 317 83L259 27Q196 -38 133 -118Q67 -205 14 -282Q-51 -374 -71 -392Q-87 -406 -100 -405Q-119 -403 -119 -384T-78 -299Q-30 -224 57 -103L213 112Z" />
<glyph unicode="z" glyph-name="z" horiz-adv-x="244" d="M50 36Q64 39 76 38Q113 34 124 4Q150 18 183 43Q217 68 244 93Q255 102 258 99T245 82Q223 62 189 36Q158 14 126 -5Q128 -11 128 -20Q128 -68 76 -136T-34 -256Q-102 -316 -175 -360T-291 -405T-333
-370Q-333 -309 -178 -191Q-98 -131 17 -62L93 -15Q95 5 88 17T66 29Q33 29 -6 -8Q-14 -16 -18 -13Q-24 -7 -15 4Q-6 16 27 34Q44 43 75 58T125 83Q175 113 198 139Q204 145 202 148Q201 150 196 148Q148 121 106 121Q69 121 57 140Q28 107 4 85Q-4 78 -7 81T-1
92Q27 118 53 149Q51 165 63 180T96 195Q113 195 113 185Q100 178 97 169Q95 161 101 155T125 149Q167 149 206 166Q222 172 226 167Q232 161 220 144Q194 109 134 76Q116 67 89 55T50 36ZM-287 -394H-286Q-247 -394 -185 -348T-61 -237Q-14 -188 33 -125T91 -26L22
-70Q-98 -145 -172 -201Q-302 -299 -309 -367Q-311 -394 -287 -394Z" />
<glyph unicode="{" glyph-name="braceleft" horiz-adv-x="295" d="M555 463L549 455Q544 455 531 455T509 456Q429 456 394 418Q378 400 342 335T268 237Q235 208 178 206Q191 193 192 169T176 118Q160 96 129 58T88 4Q49 -55 120 -74Q137 -79 164 -81L158 -87Q132
-87 109 -82Q60 -72 52 -41T85 50Q154 141 157 147Q171 174 165 191T139 212V213Q162 213 192 221T238 246Q257 265 272 286T303 336T326 374Q355 420 393 442T499 465L555 463Z" />
<glyph unicode="|" glyph-name="bar" horiz-adv-x="144" d="M82 750V-250H62V750H82Z" />
<glyph unicode="}" glyph-name="braceright" horiz-adv-x="295" d="M253 458L258 463Q290 463 307 459Q356 449 364 418T331 326Q329 324 302 290T261 235Q247 209 254 193T281 174V173Q258 176 228 164T179 131Q165 116 151 98T130 67T109 33T91 3Q61 -43 23
-65T-82 -88L-139 -86L-133 -79H-93Q-11 -79 22 -41Q38 -23 74 42T148 140Q193 178 247 180Q231 191 227 211T240 259Q249 271 282 313T328 373Q366 430 297 451Q278 456 253 458Z" />
<glyph unicode="~" glyph-name="asciitilde" horiz-adv-x="307" d="M226 214H227Q297 214 308 153Q310 147 306 147L302 153Q284 181 224 181Q206 181 166 170T104 158Q69 158 53 190Q51 196 53 198Q55 199 58 194Q69 179 90 179Q114 179 159 196T226 214Z" />
</font>
</defs>
</svg>
